<svg width="20" height="20" viewBox="0 0 20 20" fill="none" xmlns="http://www.w3.org/2000/svg">
<circle cx="10" cy="10" r="9.5" />
<path d="M9.62357 9.73162C11.4118 9.73162 13.1883 9.73162 14.9765 9.73162C15.6589 9.73162 15.7412 9.63751 15.6706 8.99045C15.4589 7.24927 14.9059 5.63751 13.8236 4.22574C13.4471 3.73162 12.9765 3.35515 12.4706 3.01398C12.2824 2.88457 12.0824 2.74339 12.2353 2.49633C12.4 2.22574 12.6236 2.40221 12.8 2.50809C13.8353 3.11986 14.5295 4.03751 15.0824 5.06104C15.7177 6.22574 16.0824 7.48457 16.2236 8.80221C16.2706 9.24927 16.2353 9.79045 16.953 9.76692C17.0706 9.76692 17.1883 9.83751 17.1765 9.97868C17.1647 10.1199 17.0353 10.1669 16.9177 10.1787C16.4 10.2257 16.1177 10.3434 16.6353 10.8493C16.8118 11.0257 16.7412 11.2963 16.5295 11.4022C16.1412 11.614 16.1059 11.9904 16.0236 12.3434C15.6706 13.8375 15.0706 15.2022 14.0589 16.3669C13.6942 16.7904 13.2471 17.1081 12.8 17.414C12.6353 17.5199 12.4353 17.6493 12.2824 17.4375C12.1177 17.214 12.2471 17.0375 12.4471 16.8963C14.1648 15.7787 14.9883 14.0728 15.4706 12.1669C15.5765 11.7316 15.4824 11.6257 15.0236 11.6846C13.5883 11.861 12.153 12.1199 10.7412 12.4022C10.0236 12.5434 10 12.5081 9.94122 11.7787C9.85887 10.6375 9.85887 10.6375 10.9883 10.6375C12.3765 10.6375 13.7765 10.6375 15.1648 10.6375C15.3412 10.6375 15.6353 10.7081 15.6471 10.4493C15.6706 10.1316 15.353 10.2022 15.153 10.2022C12.8353 10.1904 10.5295 10.1787 8.21181 10.2022C7.60004 10.2022 7.12945 10.6846 6.51769 10.7669C6.32945 10.7904 6.35298 11.0493 6.30592 11.2257C6.05887 12.2493 5.91769 12.3316 4.94122 11.9081C4.43534 11.6963 3.94122 11.461 3.4471 11.2257C3.10593 11.061 2.75298 10.8728 2.83534 10.4022C2.91769 9.95515 3.25887 9.83751 3.65887 9.77868C4.45887 9.64927 5.25887 9.71986 6.07063 9.71986C7.23534 9.71986 8.42357 9.73162 9.62357 9.73162Z" fill="#4452C5"/>
<path d="M8.21179 9.4025C7.51767 9.41427 6.95296 8.86133 6.92943 8.15545C6.90591 7.37898 7.45885 6.77898 8.20002 6.77898C8.88238 6.76721 9.45885 7.37898 9.45885 8.12015C9.47061 8.81427 8.89414 9.39074 8.21179 9.4025Z"/>
</svg>
