<svg width="135" height="245" viewBox="0 0 135 245" fill="none" xmlns="http://www.w3.org/2000/svg">
<mask id="mask0" mask-type="alpha" maskUnits="userSpaceOnUse" x="-2" y="-1" width="137" height="247">
<path d="M-1.31356 11.7047C-1.71356 12.4302 -1.44973 13.3425 -0.724269 13.7425L11.0977 20.261C11.8232 20.661 12.7356 20.3971 13.1356 19.6717C13.5356 18.9462 13.2717 18.0338 12.5463 17.6338L2.03783 11.8397L7.83198 1.33122C8.23199 0.60576 7.96815 -0.306606 7.24269 -0.706609C6.51724 -1.10661 5.60487 -0.842779 5.20487 -0.117321L-1.31356 11.7047ZM97.7175 43.157L96.4515 43.9616L97.7175 43.157ZM57.3615 128.484L58.5913 127.626L57.3615 128.484ZM93.6913 241.811C93.587 242.633 94.1687 243.384 94.9905 243.488L108.383 245.187C109.205 245.292 109.956 244.71 110.06 243.888C110.164 243.066 109.583 242.315 108.761 242.211L96.8562 240.701L98.3667 228.796C98.4709 227.974 97.8892 227.224 97.0674 227.119C96.2456 227.015 95.4948 227.597 95.3905 228.419L93.6913 241.811ZM0.41669 13.8699C43.7509 1.33876 79.3806 17.1015 96.4515 43.9616L98.9834 42.3524C81.1279 14.2579 44.0678 -1.8758 -0.41669 10.988L0.41669 13.8699ZM96.4515 43.9616C111.965 68.3718 107.098 96.3301 95.7879 114.682C90.1253 123.87 82.9603 130.46 76.16 133.033C72.781 134.311 69.5481 134.579 66.6239 133.761C63.7122 132.947 60.9581 131.015 58.5913 127.626L56.1316 129.343C58.8329 133.212 62.1347 135.621 65.8161 136.65C69.4851 137.676 73.3828 137.29 77.2214 135.838C84.8565 132.951 92.4751 125.775 98.3419 116.256C110.091 97.1923 115.265 67.9704 98.9834 42.3524L96.4515 43.9616ZM58.5913 127.626C55.5985 123.339 54.4638 117.713 55.2147 112.386C55.9651 107.062 58.5734 102.192 62.8747 99.2989C67.138 96.4311 73.2984 95.3493 81.5007 98.0331C89.7386 100.729 99.9714 107.212 112.139 119.387L114.261 117.266C101.91 104.908 91.2853 98.0782 82.4336 95.1819C73.5463 92.2739 66.3849 93.3222 61.2003 96.8096C56.0536 100.272 53.0877 105.982 52.2441 111.967C51.4009 117.949 52.6522 124.36 56.1316 129.343L58.5913 127.626ZM112.139 119.387C144.068 151.333 135.381 208.953 94.2606 240.814L96.0981 243.186C138.228 210.543 147.815 150.838 114.261 117.266L112.139 119.387Z" fill="url(#paint0_linear)"/>
</mask>
<g mask="url(#mask0)">
<rect x="8.62939" y="0.239136" width="140.612" height="244.3" fill="url(#paint1_linear)"/>
</g>
<defs>
<linearGradient id="paint0_linear" x1="133" y1="125" x2="-4.77118e-07" y2="125" gradientUnits="userSpaceOnUse">
<stop stop-color="#64E0B9"/>
<stop offset="1" stop-color="#4451C4"/>
</linearGradient>
<linearGradient id="paint1_linear" x1="149.241" y1="244.539" x2="-59.6766" y2="96.8881" gradientUnits="userSpaceOnUse">
<stop stop-color="#64E0B9"/>
<stop offset="0.930911" stop-color="#4451C4"/>
</linearGradient>
</defs>
</svg>
