<svg width="20" height="20" viewBox="0 0 20 20" fill="none" xmlns="http://www.w3.org/2000/svg">
<g clip-path="url(#clip0)">
<path d="M17.9417 4.78571L15.9333 6.99747C15.8701 7.0669 15.8198 7.14701 15.7842 7.23414L15.0352 9.07023L13.5185 6.63401L16.4472 4.67859C16.5125 4.63511 16.5724 4.58399 16.6255 4.52631L19.2504 1.68085C19.6275 1.27206 19.6105 0.61914 19.1947 0.25003C18.7918 -0.107789 18.1745 -0.0784922 17.8076 0.319457L15.2476 3.09458L10.4581 6.2475L5.50773 5.83033L1.84897 4.45475C1.33627 4.26203 0.764217 4.52143 0.571498 5.03412C0.378779 5.54682 0.638179 6.11872 1.15088 6.31159L4.94697 7.73859C5.03806 7.77277 5.13358 7.79337 5.23048 7.79993L9.06273 8.05338L11.8527 12.5349L11.2867 15.7128C11.269 15.8126 11.2702 15.9149 11.2905 16.0144L11.9721 19.357C12.0611 19.7937 12.4871 20.072 12.92 19.9838C13.3549 19.895 13.6355 19.4706 13.5468 19.0359L12.8959 15.8436L13.3917 13.0595L15.3021 11.8901C15.5535 11.7361 15.7504 11.5071 15.8644 11.235C16.3963 9.96577 17.2186 7.97266 17.2186 7.97266L19.1314 5.86619C19.4297 5.53751 19.4052 5.02939 19.0766 4.73108C18.7481 4.43262 18.2398 4.45719 17.9417 4.78571V4.78571Z" fill="white"/>
<path d="M16.9679 13.6898C16.4502 12.8584 15.3564 12.6039 14.5249 13.1216C13.6933 13.6393 13.439 14.7331 13.9567 15.5645C14.4743 16.3961 15.568 16.6505 16.3996 16.1329C17.2313 15.6152 17.4856 14.5214 16.9679 13.6898V13.6898Z" fill="white"/>
</g>
<defs>
<clipPath id="clip0">
<rect width="20" height="20" fill="white"/>
</clipPath>
</defs>
</svg>
