<svg width="20" height="20" viewBox="0 0 20 20" fill="none" xmlns="http://www.w3.org/2000/svg">
<circle cx="10" cy="10" r="9.5" fill="white" stroke="white"/>
<path d="M9.39037 12.6118C8.09626 12.2118 6.88449 12.9294 5.71979 13.8118C5.36685 14.0824 4.99038 14.3294 4.61391 14.5765C4.41391 14.7059 4.16685 14.8118 3.97861 14.5883C3.76685 14.353 3.94332 14.153 4.11979 13.9883C5.8492 12.3412 7.56684 10.6941 9.30802 9.05885C9.74331 8.64708 10.3433 8.7059 10.6845 9.21179C11.1786 9.92943 11.6727 10.6706 12.108 11.4353C12.5315 12.1647 12.2492 12.6 11.4139 12.6118C10.8257 12.6236 10.2374 12.6118 9.39037 12.6118Z" fill="#4452C5"/>
<path d="M11.9434 7.63499C11.9551 7.19969 12.1551 6.90557 12.5669 6.81146C12.9904 6.71734 13.3081 6.88204 13.461 7.28204C13.6257 7.71734 13.7551 8.17616 13.8845 8.62322C13.9669 8.91734 14.0963 9.01146 14.3904 8.87028C14.7787 8.68204 15.1787 8.5291 15.5669 8.35263C15.7669 8.27028 15.9551 8.25851 16.0845 8.45851C16.2139 8.68204 16.061 8.82322 15.8963 8.94087C15.2728 9.34087 14.6492 9.74087 14.0139 10.1409C13.7551 10.3056 13.4728 10.3291 13.2728 10.0703C12.7434 9.38793 12.3316 8.63499 11.9787 7.84675C11.9434 7.77616 11.9551 7.69381 11.9434 7.63499Z" fill="#4452C5"/>
<path d="M10.896 5.5293C11.4607 5.74106 11.9313 6.01165 12.3783 6.3293C12.4489 6.37636 12.4725 6.44694 12.4489 6.5293C12.3313 6.87047 11.3195 7.19989 11.0842 6.94106C10.8372 6.67047 10.6019 6.694 10.3078 6.81165C9.80187 7.01165 9.28422 7.18812 8.76658 7.36459C8.63717 7.41165 8.48422 7.41165 8.3901 7.28224C8.29599 7.15283 8.31952 6.98812 8.43717 6.91753C9.20187 6.36459 10.0607 5.95283 10.896 5.5293Z" fill="#4452C5"/>
<path d="M15.3434 6.12943C15.3552 6.65884 14.967 7.07061 14.4611 7.09414C13.9199 7.11767 13.4964 6.7059 13.4846 6.15296C13.4728 5.62355 13.9081 5.16473 14.4258 5.17649C14.9199 5.17649 15.3317 5.61179 15.3434 6.12943Z" fill="#4452C5"/>
</svg>
