<svg width="19" height="20" viewBox="0 0 19 20" fill="none" xmlns="http://www.w3.org/2000/svg">
<path d="M9.63234 3.61659C10.6307 3.61659 11.4413 2.80503 11.4413 1.80759C11.4413 0.80969 10.6307 0 9.63234 0C8.63444 0 7.82568 0.80969 7.82568 1.80759C7.82568 2.80457 8.63444 3.61659 9.63234 3.61659Z" fill="white"/>
<path d="M10.5088 10.4887C9.15497 9.69296 8.0816 9.20566 7.22951 8.91309L7.22718 14.1863L6.6481 16.9667C6.47014 17.6403 7.0194 17.9981 7.58917 17.9981C8.15847 17.9981 8.51253 17.6282 8.73243 17.0785L9.28588 14.4919V10.6056H9.7485V18.9778L9.75549 18.9839C9.7648 19.5448 10.2186 20 10.7809 20C11.346 20 11.8058 19.5388 11.8058 18.9727L11.8044 11.2276C11.4014 11.0039 10.9779 10.7635 10.5088 10.4887Z" fill="white"/>
<path d="M2.81901 2.40295L6.06336 5.73488C7.7065 5.92123 9.62544 6.63169 11.8039 7.86626V6.95268L16.2306 2.40295C16.2339 2.40295 16.2339 2.40108 16.2367 2.39782C16.5358 2.10153 16.5358 1.61655 16.2367 1.31793C15.939 1.0207 15.4568 1.02256 15.1596 1.31793C15.1577 1.32258 15.1577 1.32305 15.1535 1.32445L12.2991 4.20122L12.2972 4.21194V4.20076H6.75332L3.89797 1.32398C3.89611 1.32305 3.89471 1.32212 3.89471 1.31793C3.59562 1.02256 3.11251 1.0207 2.81528 1.31793C2.51665 1.61655 2.51665 2.10153 2.81528 2.39782C2.81807 2.40108 2.81901 2.40295 2.81901 2.40295ZM11.8039 6.46864L11.8188 6.46538L11.8039 6.53339V6.46864Z" fill="white"/>
<path d="M16.7841 8.62518L15.1698 10.0852C14.4598 9.74374 13.4675 9.2173 12.0922 8.40855C7.88353 5.93522 4.60936 5.20938 2.36105 6.24875C0.772886 6.98344 0.128581 8.44209 0 9.18795L2.22269 9.57556C2.22362 9.56671 2.40904 8.71276 3.30911 8.29674C4.17331 7.89562 6.314 7.63147 10.9495 10.3545C14.2339 12.2846 15.9264 12.9941 16.9248 12.9941C17.4717 12.9941 17.8113 12.7812 18.0899 12.4388C18.5278 11.9035 18.8661 10.9261 16.7841 8.62518Z" fill="white"/>
</svg>
