<svg width="20" height="20" viewBox="0 0 20 20" fill="none" xmlns="http://www.w3.org/2000/svg">
<circle cx="10" cy="10" r="9.5" fill="white" stroke="white"/>
<path d="M12.5511 13.0485C12.5511 13.3426 12.4099 13.5544 12.1628 13.6485C10.6687 14.2485 9.57461 15.4485 8.2099 16.2367C7.7746 16.4956 7.35108 16.7779 6.91578 17.0485C6.70402 17.1779 6.44519 17.3544 6.24519 17.0603C6.05696 16.7897 6.23343 16.5662 6.43343 16.4015C7.08049 15.8367 7.71578 15.2603 8.39813 14.7191C8.73931 14.4485 8.88049 14.1544 8.88049 13.7191C8.88049 12.9779 8.82167 12.225 8.96284 11.4956C9.13931 10.5426 9.76284 10.2956 10.5158 10.8603C11.1628 11.3426 11.7275 11.9073 12.2923 12.472C12.4452 12.6367 12.5628 12.8132 12.5511 13.0485Z" fill="#4452C5"/>
<path d="M13.8564 5.83677C13.8682 6.00148 13.7741 6.07207 13.6682 6.13089C13.4682 6.24854 13.2682 6.37795 13.0564 6.47207C12.2682 6.82501 11.5153 7.23677 10.8917 7.84854C10.6329 8.0956 10.4682 8.07207 10.2329 7.78971C9.66819 7.11913 9.66819 7.16618 10.4682 6.70736C11.3505 6.21324 12.3153 5.97795 13.2682 5.68383C13.4917 5.61324 13.727 5.55442 13.8564 5.83677Z" fill="#4452C5"/>
<path d="M9.58594 6.54269C9.57418 7.02504 9.15064 7.4368 8.68006 7.41327C8.20947 7.38975 7.82124 6.95445 7.84477 6.4721C7.8683 5.98975 8.30359 5.60151 8.78594 5.62504C9.22124 5.64857 9.60947 6.08386 9.58594 6.54269Z" fill="#4452C5"/>
<path d="M11.7631 3.21336C11.8101 3.50748 11.716 3.67218 11.4572 3.58983C11.1631 3.49571 10.6337 3.69571 10.6101 3.29571C10.5866 2.88395 11.116 2.78983 11.4454 2.71924C11.8454 2.62512 11.669 3.06042 11.7631 3.21336Z" fill="#4452C5"/>
<path fill-rule="evenodd" clip-rule="evenodd" d="M7.25626 8.81365C7.22523 8.84875 7.19405 8.88401 7.16272 8.91943C6.49213 7.76649 6.77449 6.68414 7.12743 5.57826C7.22155 5.28414 7.35096 5.07237 7.65684 4.9312C8.2686 4.63708 8.48037 3.81355 8.11567 3.22532C7.86861 2.82532 7.51566 2.7312 7.1039 2.94296C6.55096 3.22532 6.24508 4.04884 6.58625 4.55473C6.85684 4.94296 6.78626 5.27237 6.66861 5.64885C6.56273 6.00179 6.45684 6.35473 6.32743 6.70767C5.97515 7.66931 6.13913 8.62324 6.30179 9.56947C6.34012 9.79243 6.37837 10.015 6.40978 10.2371C6.45684 10.59 6.77449 10.7783 7.0686 10.59C7.79802 10.143 8.5039 9.62532 9.05684 8.96649C9.32743 8.64885 9.3039 8.26061 8.9392 7.97826C8.59802 7.70767 8.25684 7.70767 7.95096 8.03708C7.7221 8.28674 7.49325 8.5456 7.25626 8.81365ZM7.81517 3.92409C7.81728 3.91065 7.81937 3.8973 7.82149 3.88406L7.82144 3.88293C7.80969 3.60092 7.79747 3.30763 7.43325 3.33112C7.08031 3.36642 6.9156 3.64877 6.90384 3.98995C6.89207 4.2723 7.00972 4.51936 7.3156 4.51936C7.72008 4.53059 7.77047 4.20921 7.81517 3.92409Z" fill="#4452C5"/>
</svg>
