<svg width="23" height="23" viewBox="0 0 23 23" fill="none" xmlns="http://www.w3.org/2000/svg">
<circle cx="11.1607" cy="11.8033" r="10.9375" fill="white" stroke="white" stroke-width="0.446429"/>
<path d="M12.8636 15.6244C12.6929 16.0576 12.7849 16.3465 13.1525 16.5435C13.9009 16.9505 14.6493 17.3707 15.3846 17.7908C15.5947 17.909 15.8048 18.0272 16.0018 18.1585C16.1856 18.2898 16.3431 18.4736 16.2118 18.71C16.0937 18.9463 15.8573 18.9332 15.6341 18.8938C15.5028 18.8675 15.3846 18.8281 15.2533 18.7756C14.1898 18.3554 13.1394 17.9353 12.0758 17.5151C11.6425 17.3444 11.3931 17.0818 11.3668 16.596C11.3011 15.5062 11.2092 14.4164 11.1436 13.3266C11.1173 12.7882 11.3537 12.3812 11.892 12.2367C12.4041 12.1054 12.7192 12.4206 12.9424 12.8276C13.2575 13.4053 13.5858 13.9699 13.8615 14.5608C14.0848 15.0335 14.413 15.2436 14.912 15.3224C15.621 15.4274 16.33 15.5718 17.039 15.7163C17.3017 15.7688 17.5905 15.8607 17.538 16.2152C17.4855 16.5172 17.1966 16.5172 16.9603 16.5303C15.9361 16.5566 14.9119 16.4778 13.8878 16.399C13.3888 16.399 13.1919 15.9657 12.8636 15.6244Z" fill="#4452C5"/>
<path d="M12.7584 9.33495C12.4957 8.71783 12.7584 8.52087 13.231 8.44209C13.4805 8.4027 13.73 8.29766 13.9795 8.19262C14.2552 8.06132 14.3602 7.78558 14.4784 7.52297C14.6754 7.08968 14.2421 7.1422 14.0583 7.03715C13.5987 6.76142 13.4543 6.35438 13.5462 5.86856C13.625 5.409 13.9007 5.05449 14.3996 4.98883C14.9117 4.92318 15.2662 5.15953 15.5157 5.61909C15.7652 6.09178 15.8702 6.53821 15.6207 7.05029C15.4894 7.32602 15.3844 7.61489 15.3319 7.91688C15.1087 9.16426 14.0714 9.55816 13.126 9.93894C12.4826 10.1884 12.8897 9.45312 12.7584 9.33495Z" fill="#4452C5"/>
<path d="M11.9708 9.79434C11.9708 10.0176 11.9051 10.2276 11.7869 10.4115C11.6819 10.5953 11.5243 10.766 11.4456 10.9761C10.8547 12.578 9.38411 13.0638 8.03169 13.7203C7.83474 13.8122 7.58526 13.8778 7.44083 13.6546C7.27014 13.392 7.45396 13.1951 7.63778 13.0375C8.00543 12.7618 8.37307 12.486 8.76698 12.2497C9.39723 11.8821 9.85679 11.4094 10.0406 10.6741C10.1457 10.2276 10.3295 9.80747 10.5396 9.3873C10.7103 9.04591 11.0254 8.87522 11.4193 8.99339C11.8132 9.11157 11.9708 9.40043 11.9708 9.79434Z" fill="#4452C5"/>
<path d="M11.7736 6.56424C12.2988 6.57737 12.7584 7.06319 12.7321 7.60153C12.7058 8.153 12.2463 8.5863 11.6948 8.56004C11.1696 8.53378 10.7626 8.10048 10.7757 7.57527C10.7888 7.01067 11.2484 6.55111 11.7736 6.56424Z" fill="#4452C5"/>
<path fill-rule="evenodd" clip-rule="evenodd" d="M6.76249 4.72295C6.70049 4.72045 6.6265 4.71747 6.53495 4.71289C6.5014 4.71792 6.4655 4.72317 6.42756 4.72871C6.16856 4.76656 5.81499 4.81822 5.47141 4.90984C5.10376 5.01489 4.80177 5.2381 4.86742 5.65827C4.9707 6.35828 5.22442 7.01818 5.47958 7.68179C5.51636 7.77747 5.55318 7.87323 5.58958 7.96919C5.62897 8.1005 5.73401 8.21867 5.89157 8.13989C6.00974 8.08736 5.99661 7.95606 5.97035 7.85102C5.87844 7.48337 5.78653 7.12886 5.66836 6.77434C5.53706 6.38043 5.57645 6.15722 6.06227 6.24913C6.49557 6.34104 6.92887 6.32791 7.36217 6.24913C7.78233 6.17035 7.88738 6.34104 7.75607 6.72182C7.65103 7.03694 7.55911 7.35207 7.48033 7.6672C7.473 7.69652 7.46248 7.72811 7.45166 7.76062C7.40435 7.90283 7.35117 8.06263 7.53285 8.12676C7.75598 8.20485 7.81796 8.01752 7.87183 7.85473C7.88136 7.82593 7.89063 7.7979 7.9005 7.77224C8.004 7.5088 8.08726 7.23862 8.16962 6.97136C8.2022 6.86564 8.23464 6.76038 8.26814 6.65617C8.75396 5.19871 8.54388 4.87045 7.02077 4.73915C6.95234 4.7306 6.87835 4.72762 6.76249 4.72295ZM6.11322 5.78488C6.28572 5.79323 6.46799 5.80205 6.60068 5.8684C6.92893 5.82901 7.25719 5.78961 7.58545 5.73709C7.70362 5.72396 7.86117 5.6977 7.87431 5.54014C7.887 5.34974 7.71564 5.31886 7.57373 5.29329C7.56885 5.29241 7.564 5.29154 7.55919 5.29066C7.46627 5.27854 7.37335 5.26145 7.28043 5.24436C7.07135 5.2059 6.86228 5.16744 6.6532 5.18562C6.5798 5.19069 6.49615 5.19136 6.40884 5.19206C6.04322 5.19499 5.61338 5.19844 5.60278 5.52701C5.59476 5.75979 5.8419 5.77175 6.11322 5.78488Z" fill="#4452C5"/>
</svg>
