<svg width="23" height="24" viewBox="0 0 23 24" fill="none" xmlns="http://www.w3.org/2000/svg">
<circle cx="11.1607" cy="12.1256" r="10.9375" fill="white" stroke="white" stroke-width="0.446429"/>
<path d="M12.8636 15.9466C12.6929 16.3799 12.7849 16.6688 13.1525 16.8657C13.9009 17.2728 14.6493 17.6929 15.3846 18.1131C15.5947 18.2313 15.8048 18.3495 16.0018 18.4808C16.1856 18.6121 16.3431 18.7959 16.2118 19.0322C16.0937 19.2686 15.8573 19.2554 15.6341 19.216C15.5028 19.1898 15.3846 19.1504 15.2533 19.0979C14.1898 18.6777 13.1394 18.2575 12.0758 17.8374C11.6425 17.6667 11.3931 17.4041 11.3668 16.9183C11.3011 15.8284 11.2092 14.7386 11.1436 13.6488C11.1173 13.1105 11.3537 12.7034 11.892 12.559C12.4041 12.4277 12.7192 12.7428 12.9424 13.1499C13.2575 13.7276 13.5858 14.2922 13.8615 14.8831C14.0848 15.3558 14.413 15.5658 14.912 15.6446C15.621 15.7497 16.33 15.8941 17.039 16.0385C17.3017 16.091 17.5905 16.183 17.538 16.5375C17.4855 16.8395 17.1966 16.8395 16.9603 16.8526C15.9361 16.8789 14.9119 16.8001 13.8878 16.7213C13.3888 16.7213 13.1919 16.288 12.8636 15.9466Z" fill="#4452C5"/>
<path d="M12.7584 9.65722C12.4957 9.04009 12.7584 8.84314 13.231 8.76436C13.4805 8.72497 13.73 8.61993 13.9795 8.51488C14.2552 8.38358 14.3602 8.10785 14.4784 7.84524C14.6754 7.41194 14.2421 7.46446 14.0583 7.35942C13.5987 7.08369 13.4543 6.67665 13.5462 6.19083C13.625 5.73127 13.9007 5.37675 14.3996 5.3111C14.9117 5.24545 15.2662 5.48179 15.5157 5.94135C15.7652 6.41404 15.8702 6.86047 15.6207 7.37255C15.4894 7.64829 15.3844 7.93715 15.3319 8.23915C15.1087 9.48652 14.0714 9.88043 13.126 10.2612C12.4826 10.5107 12.8897 9.77539 12.7584 9.65722Z" fill="#4452C5"/>
<path d="M11.9708 10.1166C11.9708 10.3398 11.9051 10.5499 11.7869 10.7337C11.6819 10.9175 11.5243 11.0882 11.4456 11.2983C10.8547 12.9002 9.38411 13.386 8.03169 14.0426C7.83474 14.1345 7.58526 14.2001 7.44083 13.9769C7.27014 13.7143 7.45396 13.5173 7.63778 13.3598C8.00543 13.084 8.37307 12.8083 8.76698 12.572C9.39723 12.2043 9.85679 11.7316 10.0406 10.9963C10.1457 10.5499 10.3295 10.1297 10.5396 9.70957C10.7103 9.36818 11.0254 9.19749 11.4193 9.31566C11.8132 9.43383 11.9708 9.7227 11.9708 10.1166Z" fill="#4452C5"/>
<path d="M11.7736 6.88651C12.2988 6.89964 12.7584 7.38545 12.7321 7.9238C12.7058 8.47527 12.2463 8.90857 11.6948 8.8823C11.1696 8.85604 10.7626 8.42275 10.7757 7.89754C10.7888 7.33293 11.2484 6.87337 11.7736 6.88651Z" fill="#4452C5"/>
<path fill-rule="evenodd" clip-rule="evenodd" d="M6.76249 5.04521C6.70049 5.04272 6.6265 5.03973 6.53495 5.03516C6.5014 5.04019 6.4655 5.04544 6.42756 5.05098C6.16856 5.08882 5.81499 5.14049 5.47141 5.23211C5.10376 5.33715 4.80177 5.56037 4.86742 5.98053C4.9707 6.68055 5.22442 7.34045 5.47958 8.00405C5.51636 8.09973 5.55318 8.19549 5.58958 8.29146C5.62897 8.42276 5.73401 8.54093 5.89157 8.46215C6.00974 8.40963 5.99661 8.27833 5.97035 8.17329C5.87844 7.80564 5.78653 7.45112 5.66836 7.09661C5.53706 6.7027 5.57645 6.47948 6.06227 6.5714C6.49557 6.66331 6.92887 6.65018 7.36217 6.5714C7.78233 6.49261 7.88738 6.66331 7.75607 7.04408C7.65103 7.35921 7.55911 7.67434 7.48033 7.98946C7.473 8.01878 7.46248 8.05037 7.45166 8.08289C7.40435 8.2251 7.35117 8.3849 7.53285 8.44902C7.75598 8.52712 7.81796 8.33979 7.87183 8.177C7.88136 8.1482 7.89063 8.12016 7.9005 8.0945C8.004 7.83107 8.08726 7.56089 8.16962 7.29363C8.2022 7.18791 8.23464 7.08264 8.26814 6.97843C8.75396 5.52098 8.54388 5.19272 7.02077 5.06142C6.95234 5.05286 6.87835 5.04988 6.76249 5.04521ZM6.11322 6.10715C6.28572 6.1155 6.46799 6.12432 6.60068 6.19066C6.92893 6.15127 7.25719 6.11188 7.58545 6.05936C7.70362 6.04623 7.86117 6.01997 7.87431 5.86241C7.887 5.672 7.71564 5.64113 7.57373 5.61556C7.56885 5.61468 7.564 5.6138 7.55919 5.61293C7.46627 5.60081 7.37335 5.58372 7.28043 5.56663C7.07135 5.52817 6.86228 5.48971 6.6532 5.50789C6.5798 5.51295 6.49615 5.51362 6.40884 5.51432C6.04322 5.51725 5.61338 5.5207 5.60278 5.84928C5.59476 6.08206 5.8419 6.09402 6.11322 6.10715Z" fill="#4452C5"/>
<path d="M16.576 12.5499C16.6943 12.4897 16.768 12.3825 16.768 12.2598C16.7725 12.012 16.5716 11.8557 16.3149 11.8557C16.1274 11.8557 15.9756 11.9406 15.8729 12.0611L16.0336 12.2441C16.0894 12.1727 16.1899 12.1258 16.2814 12.1258C16.3885 12.1258 16.4644 12.1816 16.4689 12.2709C16.4756 12.3736 16.3841 12.4584 16.2256 12.4584H16.143V12.6839H16.2836C16.4332 12.6839 16.5359 12.7687 16.5359 12.8915C16.5359 13.0098 16.4354 13.0901 16.2814 13.0901C16.1742 13.0901 16.0894 13.0366 16.0202 12.9428L15.8149 13.1013C15.9198 13.2687 16.0872 13.358 16.2948 13.358C16.6117 13.358 16.835 13.1772 16.835 12.9138C16.835 12.7419 16.7345 12.608 16.576 12.5499ZM18.0923 13.3379L17.6838 12.7732L18.0276 12.2977H17.6838L17.5231 12.5366L17.3579 12.2977H17.012L17.3557 12.7732L16.9428 13.3379H17.2865L17.5209 13.0053L17.7508 13.3379H18.0923ZM18.9172 12.5499C19.0355 12.4897 19.1091 12.3825 19.1091 12.2598C19.1136 12.012 18.9127 11.8557 18.656 11.8557C18.4685 11.8557 18.3167 11.9406 18.214 12.0611L18.3748 12.2441C18.4306 12.1727 18.531 12.1258 18.6225 12.1258C18.7297 12.1258 18.8056 12.1816 18.81 12.2709C18.8167 12.3736 18.7252 12.4584 18.5667 12.4584H18.4841V12.6839H18.6248C18.7743 12.6839 18.877 12.7687 18.877 12.8915C18.877 13.0098 18.7765 13.0901 18.6225 13.0901C18.5154 13.0901 18.4306 13.0366 18.3614 12.9428L18.156 13.1013C18.2609 13.2687 18.4283 13.358 18.6359 13.358C18.9529 13.358 19.1761 13.1772 19.1761 12.9138C19.1761 12.7419 19.0756 12.608 18.9172 12.5499Z" fill="#4452C5"/>
</svg>
