<svg width="23" height="23" viewBox="0 0 23 23" fill="none" xmlns="http://www.w3.org/2000/svg">
<circle cx="11.1607" cy="11.482" r="10.9375" fill="white" stroke="white" stroke-width="0.446429"/>
<path d="M7.49782 12.1139C6.43427 11.5362 5.9747 10.4332 5.21315 9.61914C4.93741 9.31715 4.7142 8.96263 4.47786 8.62124C4.33343 8.41116 4.14959 8.16169 4.39906 7.92534C4.68793 7.66274 4.93742 7.88595 5.13437 8.0829C5.84341 8.76568 6.55243 9.44845 7.20894 10.1706C7.52407 10.512 7.85233 10.7221 8.29876 10.814C8.9684 10.9453 9.62492 11.1029 10.2683 11.2998C10.8592 11.4705 11.1086 11.9695 10.9511 12.5209C10.8198 13.0067 10.3339 13.2825 9.74309 13.0724C9.37544 12.9411 9.17849 13.2168 8.88962 13.23C7.86546 13.2825 6.8413 13.3744 5.81714 13.44C5.05558 13.4926 4.29403 13.5451 3.53247 13.5713C3.25674 13.5845 2.90222 13.6107 2.88909 13.2037C2.87596 12.8623 3.17796 12.8098 3.44057 12.7573C4.79298 12.5341 6.13227 12.324 7.49782 12.1139Z" fill="#4452C5"/>
<path d="M14.5096 11.9823C14.8116 12.9276 15.5863 13.4266 16.3609 13.9124C16.6761 14.1094 16.978 14.3194 17.2669 14.5427C17.4245 14.6608 17.5427 14.8315 17.4376 15.0547C17.3457 15.2386 17.1619 15.2779 16.9912 15.2517C16.0589 15.1466 15.1398 15.0285 14.2076 14.9103C13.9844 14.884 13.7874 14.7659 13.6824 14.5689C13.2753 13.8205 12.8289 13.0983 12.4744 12.3236C12.2774 11.8903 12.2643 11.4045 12.8026 11.1419C13.2491 10.9187 13.6824 11.1157 13.9056 11.7196C14.05 12.1136 14.2338 11.7459 14.3783 11.8378C14.457 11.851 14.5096 11.9035 14.5096 11.9823Z" fill="#4452C5"/>
<path d="M14.5088 11.9825C14.4694 11.93 14.4169 11.8906 14.3775 11.8381C14.325 11.628 14.2594 11.4179 14.2331 11.2079C14.1937 10.6301 14.6008 10.1574 15.1391 10.1443C15.6643 10.1312 16.1239 10.617 16.0976 11.1685C16.0713 11.7725 15.5987 12.1926 15.0078 12.1138C14.8502 12.0876 14.6795 12.0219 14.5088 11.9825Z" fill="#4452C5"/>
<path d="M19.4336 12.8492C19.4204 13.4138 19.0396 13.834 18.5144 13.8208C18.0155 13.8208 17.5691 13.3613 17.5559 12.8492C17.5428 12.3108 18.0155 11.825 18.5407 11.8382C19.0659 11.8644 19.4336 12.2714 19.4336 12.8492Z" fill="#4452C5"/>
</svg>
