<svg width="23" height="16" viewBox="0 0 23 16" fill="none" xmlns="http://www.w3.org/2000/svg">
<path d="M21.36 8.12834H19.8416V7.33263H19.8649C20.2642 7.33263 20.5891 7.00718 20.5891 6.60712V5.10931C20.5891 4.70926 20.2642 4.38381 19.8649 4.38381H19.8416V3.5881H19.8649C20.2642 3.5881 20.5891 3.26265 20.5891 2.8626V1.36478C20.5891 0.964729 20.2642 0.639282 19.8649 0.639282H2.67142C2.27209 0.639282 1.94723 0.964729 1.94723 1.36478V2.8626C1.94723 3.26265 2.27209 3.5881 2.67142 3.5881H2.69478V4.38381H2.67142C2.27209 4.38381 1.94723 4.70926 1.94723 5.10931V6.60712C1.94723 7.00718 2.27209 7.33263 2.67142 7.33263H2.69478V8.12834H1.17633C0.777003 8.12834 0.452148 8.45378 0.452148 8.85384V9.60275C0.452148 10.0028 0.777003 10.3282 1.17633 10.3282H1.94723V14.494H1.92387C1.73031 14.494 1.57346 14.6512 1.57346 14.8451C1.57346 15.039 1.73031 15.1961 1.92387 15.1961H4.1665C4.36007 15.1961 4.51691 15.039 4.51691 14.8451C4.51691 14.6512 4.36007 14.494 4.1665 14.494H4.14314V10.3282H18.3932V14.494H18.3698C18.1763 14.494 18.0194 14.6512 18.0194 14.8451C18.0194 15.039 18.1763 15.1961 18.3698 15.1961H20.6125C20.806 15.1961 20.9629 15.039 20.9629 14.8451C20.9629 14.6512 20.806 14.494 20.6125 14.494H20.5891V10.3282H21.36C21.7593 10.3282 22.0842 10.0028 22.0842 9.60275V8.85384C22.0842 8.45378 21.7593 8.12834 21.36 8.12834ZM19.1407 8.12834H18.3465V7.33263H19.1407V8.12834ZM4.89069 8.12834V7.33263H17.6456V8.12834H4.89069ZM19.1407 4.38381H18.3465V3.5881H19.1407V4.38381ZM4.89069 4.38381V3.5881H17.6456V4.38381H4.89069ZM2.64806 2.8626V1.36478C2.64806 1.35187 2.65857 1.34138 2.67142 1.34138H19.8649C19.8778 1.34138 19.8883 1.35187 19.8883 1.36478V2.8626C19.8883 2.87551 19.8778 2.886 19.8649 2.886H2.67142C2.65857 2.886 2.64806 2.87551 2.64806 2.8626ZM3.3956 3.5881H4.18986V4.38381H3.3956V3.5881ZM2.64806 6.60712V5.10931C2.64806 5.09639 2.65857 5.08591 2.67142 5.08591H19.8649C19.8778 5.08591 19.8883 5.09639 19.8883 5.10931V6.60712C19.8883 6.62004 19.8778 6.63053 19.8649 6.63053H2.67142C2.65857 6.63053 2.64806 6.62004 2.64806 6.60712ZM3.3956 7.33263H4.18986V8.12834H3.3956V7.33263ZM3.44232 14.494H2.64806V10.3282H3.44232V14.494ZM19.8883 14.494H19.094V10.3282H19.8883V14.494ZM21.3834 9.60275C21.3834 9.61567 21.3728 9.62615 21.36 9.62615H1.17633C1.16348 9.62615 1.15297 9.61567 1.15297 9.60275V8.85384C1.15297 8.84092 1.16348 8.83044 1.17633 8.83044H21.36C21.3728 8.83044 21.3834 8.84092 21.3834 8.85384V9.60275Z" fill="white"/>
<path d="M4.62873 7.31703H5.0025C5.19607 7.31703 5.35291 7.15985 5.35291 6.96598C5.35291 6.77211 5.19607 6.61493 5.0025 6.61493H4.62873C4.43516 6.61493 4.27832 6.77211 4.27832 6.96598C4.27832 7.15985 4.43516 7.31703 4.62873 7.31703Z" fill="white"/>
<path d="M4.62873 11.0613H5.0025C5.19607 11.0613 5.35291 10.9041 5.35291 10.7102C5.35291 10.5163 5.19607 10.3592 5.0025 10.3592H4.62873C4.43516 10.3592 4.27832 10.5163 4.27832 10.7102C4.27832 10.9041 4.43516 11.0613 4.62873 11.0613Z" fill="white"/>
<path d="M19.9539 7.31703H20.3277C20.5213 7.31703 20.6781 7.15985 20.6781 6.96598C20.6781 6.77211 20.5213 6.61493 20.3277 6.61493H19.9539C19.7604 6.61493 19.6035 6.77211 19.6035 6.96598C19.6035 7.15985 19.7604 7.31703 19.9539 7.31703Z" fill="white"/>
<path d="M19.9539 11.0613H20.3277C20.5213 11.0613 20.6781 10.9041 20.6781 10.7102C20.6781 10.5163 20.5213 10.3592 20.3277 10.3592H19.9539C19.7604 10.3592 19.6035 10.5163 19.6035 10.7102C19.6035 10.9041 19.7604 11.0613 19.9539 11.0613Z" fill="white"/>
</svg>
