<svg width="23" height="23" viewBox="0 0 23 23" fill="none" xmlns="http://www.w3.org/2000/svg">
<path d="M4.23052 11.0157C1.89797 11.0157 0 12.9129 0 15.2451C0 17.5776 1.89757 19.476 4.23052 19.476C6.56228 19.476 8.46025 17.5776 8.46025 15.2451C8.46025 12.9129 6.56228 11.0157 4.23052 11.0157ZM4.23052 18.5373C2.41513 18.5373 0.938316 17.0609 0.938316 15.2455C0.938316 13.4293 2.41513 11.9537 4.23052 11.9537C6.04591 11.9537 7.52193 13.4293 7.52193 15.2455C7.52193 17.0609 6.04591 18.5373 4.23052 18.5373Z" fill="white"/>
<path d="M18.7699 11.0157C16.4381 11.0157 14.5405 12.9129 14.5405 15.2451C14.5405 17.5776 16.4381 19.476 18.7699 19.476C21.1024 19.476 23 17.5776 23 15.2451C23 12.9129 21.1028 11.0157 18.7699 11.0157ZM18.7699 18.5373C16.9549 18.5373 15.4781 17.0609 15.4781 15.2455C15.4781 13.4293 16.9549 11.9537 18.7699 11.9537C20.5857 11.9537 22.0617 13.4293 22.0617 15.2455C22.0617 17.0609 20.5857 18.5373 18.7699 18.5373Z" fill="white"/>
<path d="M14.4319 9.29121C14.8073 9.37339 15.1411 9.32993 15.422 9.20311C15.8574 9.73054 16.2936 10.2568 16.7384 10.7763C17.0711 11.1655 17.7245 11.1165 18.0647 10.7763C18.4471 10.3935 18.3966 9.83761 18.0647 9.44924C17.4914 8.77879 16.93 8.09807 16.3706 7.41577C16.2955 6.89228 15.9506 6.42688 15.2628 6.27556C13.3265 5.84927 11.3886 5.42298 9.45195 4.99669C8.43462 4.77307 7.7219 5.47316 7.54214 6.26055C7.3924 6.49128 7.3284 6.7785 7.38647 7.06968L9.21254 16.2039C9.31644 16.7231 9.77315 17.0842 10.2844 17.0842C10.3551 17.0842 10.4278 17.0767 10.5001 17.062C11.0931 16.9431 11.4771 16.3667 11.3586 15.7741L11.1468 14.7153C11.2705 14.7623 11.4021 14.7895 11.5364 14.7895C11.6672 14.7895 11.7999 14.7658 11.9291 14.7157C14.1712 13.8528 14.5038 12.3985 14.5015 11.6084C14.4991 10.7475 14.1088 9.87791 13.4909 9.08182C13.8053 9.15293 14.1186 9.22207 14.4319 9.29121ZM11.1441 12.6747C11.0062 12.7272 10.8861 12.8066 10.785 12.9015L9.98215 8.88626C11.2709 9.68234 12.3112 10.8391 12.3127 11.6155C12.3139 12.0192 11.9208 12.3752 11.1441 12.6747Z" fill="white"/>
<path d="M15.514 4.30923C17.0074 5.10216 16.5669 5.42257 17.1069 5.63513L16.9007 6.7852L17.2863 6.85474L17.487 5.73706C17.5083 5.74061 17.5241 5.74496 17.5451 5.74851C17.6893 5.64145 17.8228 5.55927 17.9528 5.48697C17.9726 5.83701 18.4719 5.97885 18.4719 5.97885L18.9903 6.4241C19.268 6.49047 19.5466 6.31901 19.6133 6.04127C19.6785 5.76313 19.5067 5.4846 19.2289 5.41823L18.5138 5.24834C19.4351 4.99312 19.8685 5.54702 19.9476 5.10532C20.0507 4.53009 19.1424 3.88571 17.9172 3.66565C16.6937 3.44638 13.7318 3.36539 15.514 4.30923Z" fill="white"/>
</svg>
