<svg width="20" height="20" viewBox="0 0 20 20" fill="none" xmlns="http://www.w3.org/2000/svg">
<circle cx="10" cy="10" r="9.5" fill="white" stroke="white"/>
<path d="M10.0377 4.09245C10.0142 3.29245 10.6848 2.85715 11.3318 3.15127C11.7671 3.35127 12.0024 3.73951 12.273 4.10421C12.4259 4.30421 12.3789 4.50421 12.0612 4.44539C11.6024 4.36303 11.5907 4.64539 11.5671 4.96304C11.5554 5.19833 11.5083 5.46892 11.273 5.56304C11.0024 5.66892 10.9201 5.3748 10.8024 5.22186C10.4965 4.84539 10.1083 4.52774 10.0377 4.09245Z" fill="#4452C5"/>
<path fill-rule="evenodd" clip-rule="evenodd" d="M8.77612 11.9589C8.94496 11.3172 9.1143 10.6737 8.94377 9.97456C9.36817 9.9969 9.43209 10.2843 9.48781 10.5348C9.49078 10.5482 9.49373 10.5614 9.49671 10.5746C9.58495 10.9687 9.67025 11.3599 9.75554 11.7511C9.84083 12.1422 9.92612 12.5334 10.0144 12.9275C10.0223 12.961 10.0295 12.9967 10.0367 13.0332C10.0831 13.2657 10.136 13.5313 10.4614 13.4804C10.7936 13.4161 10.7647 13.1274 10.7391 12.872C10.7366 12.8469 10.7341 12.8222 10.732 12.7981C10.7057 12.518 10.6697 12.2379 10.6336 11.9572C10.5727 11.4833 10.5115 11.0077 10.4967 10.5275C10.4614 9.66867 10.1438 9.05691 9.42612 8.57456C9.10103 8.36617 8.81728 8.09871 8.53303 7.83078C8.4161 7.72057 8.29908 7.61027 8.17907 7.50397C7.70848 7.0922 7.22612 7.03338 6.86142 7.36279C6.43789 7.75103 6.50848 8.20985 6.75554 8.64514C7.08495 9.22161 7.43789 9.78632 7.79083 10.351C7.92024 10.5628 8.02613 10.7628 8.0026 11.0099C7.99836 11.043 7.99413 11.0761 7.9899 11.1092C7.92363 11.6277 7.8586 12.1364 7.81436 12.6451C7.79083 13.0334 7.63789 13.1157 7.24965 13.0216C6.35553 12.7863 5.5673 13.1863 5.14377 13.9981C4.75554 14.751 4.94377 15.8334 5.55554 16.3863C6.14377 16.9157 7.02612 17.0216 7.68495 16.6334C8.43789 16.1981 8.84966 15.3393 8.57907 14.4687C8.39463 13.8693 8.49256 13.315 8.59618 12.7285C8.59832 12.7164 8.60046 12.7043 8.60259 12.6922C8.64793 12.4461 8.71199 12.2026 8.77612 11.9589ZM8.13203 14.857C8.1085 14.1393 7.52027 13.5393 6.81439 13.5511C6.04968 13.5511 5.4732 14.1393 5.48497 14.904C5.48497 15.6805 6.09673 16.3393 6.82615 16.3276C7.53203 16.3158 8.15556 15.6217 8.13203 14.857Z" fill="#4452C5"/>
<path fill-rule="evenodd" clip-rule="evenodd" d="M13.9088 14.2924C14.5676 14.0218 15.05 13.2454 15.0382 12.4454C15.0264 11.3512 14.2617 10.563 13.1559 10.563C12.7206 10.563 12.4735 10.4336 12.297 10.0336C12.116 9.63871 11.9178 9.24958 11.7184 8.85815C11.6326 8.68982 11.5467 8.52106 11.4617 8.35123C11.4512 8.32838 11.4404 8.30289 11.4291 8.27624C11.3647 8.12451 11.2842 7.93474 11.1441 7.97476C10.6431 8.11298 10.4275 7.81988 10.2132 7.5286C10.1357 7.42318 10.0583 7.318 9.96762 7.23359C9.69703 6.98653 9.6382 6.70417 9.80291 6.33947C9.96762 5.963 10.0735 5.563 10.1676 5.163C10.2382 4.84535 10.1206 4.57476 9.81468 4.42182C9.57938 4.30417 9.35585 4.3277 9.15585 4.50417C8.86173 4.763 8.53232 6.88064 8.74409 7.21006C8.77938 7.28064 8.8382 7.35123 8.89703 7.38653C9.13764 7.52758 9.33729 7.73445 9.53725 7.94164C9.90436 8.32203 10.2725 8.70349 10.897 8.68064C10.9441 8.68064 11.0147 8.7277 11.0382 8.77476C11.0938 8.88594 11.1498 8.99713 11.2058 9.10838C11.458 9.60928 11.7109 10.1116 11.9323 10.6218C12.0505 10.8975 11.8944 11.0835 11.7395 11.2682C11.663 11.3593 11.5869 11.4501 11.5441 11.5512C11.1911 12.3512 11.297 13.2806 11.85 13.8571C12.3794 14.3983 13.2029 14.5748 13.9088 14.2924ZM13.6147 13.7865C14.1795 13.5747 14.4971 13.0806 14.4971 12.4688C14.4971 11.7865 14.05 11.2218 13.4383 11.1159C13.423 11.1135 13.4075 11.1109 13.3918 11.1083C13.2507 11.0848 13.0983 11.0594 13.003 11.1865C12.9302 11.2774 12.9841 11.3825 13.034 11.4799C13.0486 11.5084 13.0629 11.5363 13.0736 11.5629C13.1188 11.6735 13.1683 11.7798 13.2176 11.8854C13.2836 12.0271 13.3491 12.1676 13.403 12.3159C13.4618 12.4806 13.4265 12.6335 13.25 12.7041C13.0853 12.7629 12.9912 12.657 12.9206 12.5276C12.8618 12.4159 12.8089 12.3012 12.7559 12.1865C12.703 12.0718 12.65 11.957 12.5912 11.8453C12.5812 11.8252 12.5715 11.8034 12.5615 11.7811C12.5132 11.6726 12.4592 11.5512 12.3324 11.5512C12.1629 11.5512 12.0983 11.6847 12.0356 11.8143C12.0287 11.8287 12.0218 11.843 12.0147 11.857C11.7559 12.41 11.803 12.9159 12.203 13.3865C12.5795 13.8335 13.05 13.9982 13.6147 13.7865Z" fill="#4452C5"/>
</svg>
