<svg width="20" height="20" viewBox="0 0 20 20" fill="none" xmlns="http://www.w3.org/2000/svg">
<circle cx="10" cy="10" r="9.5" fill="white" stroke="white"/>
<path d="M9.7691 9.78841C9.07498 8.54135 9.87498 8.01194 10.6867 7.47076C11.1691 7.14135 11.6279 6.77664 12.0985 6.41194C12.275 6.27076 12.4632 6.11782 12.6632 6.32958C12.8867 6.56488 12.7103 6.76488 12.5456 6.92958C12.0397 7.44723 11.5338 7.96488 11.0044 8.45899C10.7338 8.71782 10.6867 8.95311 10.8515 9.29429C11.1456 9.89429 11.4044 10.5061 11.6515 11.1178C11.8279 11.5531 11.8867 12.0119 11.4279 12.3296C10.9573 12.659 10.5691 12.4119 10.2279 12.0825C9.65146 11.5296 9.08675 10.9531 8.52205 10.3884C8.43969 10.3061 8.34557 10.2119 8.32204 10.1061C8.05146 9.059 7.92205 8.00017 7.81616 6.92958C7.8044 6.78841 7.85145 6.64723 8.01616 6.6237C8.27498 6.57664 8.35734 6.76488 8.41616 6.95311C8.62792 7.68252 8.83969 8.4237 9.05146 9.15311C9.14557 9.44723 9.23969 9.72958 9.7691 9.78841Z" fill="#4452C5"/>
<path d="M7.59296 17.5925C7.3459 17.5572 7.01648 17.6748 6.95766 17.3101C6.9106 16.9219 7.24001 16.9454 7.47531 16.9219C11.1459 16.4984 13.2753 14.2748 14.4165 10.9337C14.5577 10.5101 14.7694 10.3219 15.2165 10.3572C15.6871 10.3925 16.1577 10.369 16.6282 10.369C16.84 10.369 17.0282 10.4396 17.0047 10.7101C16.9929 10.9337 16.8282 10.9925 16.6282 11.0043C16.6047 11.0043 16.5929 11.016 16.5694 11.0043C15.3577 10.7337 14.9694 11.4396 14.5106 12.4396C13.2518 15.1925 11.1812 17.0396 8.07531 17.5454C7.93413 17.569 7.75766 17.569 7.59296 17.5925Z" fill="#4452C5"/>
<path d="M7.32214 13.0591C7.45156 13.2473 7.95743 13.0944 7.80449 13.5414C7.68685 13.8944 7.40449 14.0591 7.03979 14.0709C6.3692 14.0944 5.89861 13.5179 6.06332 12.8709C6.14567 12.5767 6.22803 12.2591 6.63979 12.5767C6.88685 12.765 7.07508 12.565 7.25155 12.4238C7.3692 12.3297 7.45155 12.0473 7.65155 12.2591C7.79273 12.412 7.63979 12.5767 7.54567 12.7297C7.48684 12.8356 7.33391 12.8944 7.32214 13.0591Z" fill="#4452C5"/>
<path fill-rule="evenodd" clip-rule="evenodd" d="M6.06318 7.43553C6.40436 7.07082 6.59259 6.65906 6.59259 6.16494C6.61612 5.10612 5.87494 4.27082 4.89847 4.22377C3.9573 4.18847 3.13377 5.00024 3.06318 6.00024C2.99259 6.96494 3.74554 7.95318 4.69848 7.94141C5.27017 7.94141 5.4166 8.21833 5.61835 8.59988C5.63664 8.63448 5.65539 8.66993 5.67495 8.70612C5.76586 8.87855 5.82754 9.07687 5.88959 9.27639C6.06038 9.82557 6.23396 10.3838 7.02789 10.4355C7.04397 10.4436 7.06554 10.4681 7.0851 10.4903C7.09416 10.5006 7.10279 10.5104 7.11024 10.5179C7.13678 10.5475 7.16339 10.5771 7.19001 10.6067C7.77685 11.2591 8.36702 11.9152 8.32201 12.8944C8.31024 13.0473 8.34554 13.2002 8.38083 13.3532C8.47495 13.7767 8.68671 14.0708 9.1573 13.9414C9.60436 13.812 9.68671 13.4591 9.56906 13.0473C9.122 11.5179 8.36907 10.2238 6.7573 9.65906C6.68671 9.63553 6.61612 9.56494 6.59259 9.50612C6.35732 8.97676 6.12205 8.43564 5.88678 7.89452L5.88671 7.89435C5.80401 7.70829 5.91206 7.59488 6.0193 7.48231C6.03411 7.46676 6.04891 7.45123 6.06318 7.43553ZM6.06738 6.26865C6.07014 6.25091 6.07252 6.23567 6.0749 6.22379C6.08666 5.49437 5.59254 4.89438 4.98078 4.80026C4.40431 4.7179 3.80431 5.14143 3.61608 5.77673C3.45137 6.34143 3.78078 7.03555 4.34549 7.28261C4.35083 7.2851 4.3562 7.28761 4.3616 7.29014C4.53473 7.37114 4.7387 7.46657 4.89843 7.32967C5.03704 7.21551 4.97221 7.09005 4.9076 6.96504C4.879 6.90968 4.85043 6.85442 4.8396 6.80026C4.81907 6.71815 4.76671 6.62808 4.71376 6.537C4.58462 6.31487 4.45196 6.08669 4.76902 5.9532C5.02487 5.8459 5.11282 6.08023 5.19939 6.31089C5.23622 6.40903 5.2728 6.5065 5.32196 6.57673C5.3578 6.62849 5.37746 6.69779 5.39692 6.76635C5.43495 6.90035 5.47219 7.03157 5.62784 7.02379C5.8214 7.01411 5.88758 6.82928 5.95081 6.65268C5.96445 6.6146 5.97794 6.57691 5.99255 6.54143C6.03949 6.44755 6.05646 6.33869 6.06738 6.26865Z" fill="#4452C5"/>
<path fill-rule="evenodd" clip-rule="evenodd" d="M12.8165 4.42376C12.8165 3.34141 11.993 2.48258 10.9577 2.47082C9.89889 2.45905 9.05183 3.34141 9.0636 4.43552C9.07536 5.49435 9.93419 6.38846 10.946 6.3767C11.9224 6.3767 12.8165 5.44729 12.8165 4.42376ZM9.64007 4.43558C9.64007 5.21205 10.2048 5.78852 10.9577 5.77675C11.6636 5.76499 12.2989 5.0944 12.2871 4.38852C12.2636 3.64734 11.6401 3.00028 10.9577 3.00028C10.2048 3.00028 9.64007 3.62381 9.64007 4.43558Z" fill="#4452C5"/>
</svg>
