<svg width="20" height="20" viewBox="0 0 20 20" fill="none" xmlns="http://www.w3.org/2000/svg">
<circle cx="10" cy="10" r="9.5" fill="white" stroke="white"/>
<path d="M5.55565 11.2362C5.97918 10.8715 6.17918 10.5891 6.2733 10.1774C6.48507 9.27147 7.21448 9.04794 7.84977 9.63618C8.35566 10.1068 8.35566 10.8009 7.73213 11.0362C6.77918 11.4127 6.41448 12.2597 5.81448 12.9421C5.66154 13.1185 5.53212 13.3185 5.37918 13.495C5.17918 13.7185 4.93212 13.8009 4.63801 13.7068C4.34389 13.6126 4.17918 13.4126 4.14389 13.1068C4.01448 11.9185 3.95565 10.7185 4.03801 9.5303C4.08507 8.81265 4.55565 8.41265 5.13212 8.50677C5.75565 8.60088 6.06154 9.10677 5.93212 9.83618C5.89683 10.0479 5.82624 10.2597 5.77918 10.4597C5.72036 10.6715 5.66154 10.8832 5.55565 11.2362Z" fill="#4452C5"/>
<path d="M8.7316 9.90639C8.79042 8.90639 8.77866 8.97698 9.80219 9.01228C11.3669 9.05933 12.9081 9.42404 14.4845 9.17698C14.6963 9.14169 14.9198 9.15345 15.1316 9.17698C15.6845 9.22404 16.0257 9.58875 16.014 10.0829C15.9904 10.6946 15.5904 11.0946 15.0022 11.0593C14.6257 11.0358 14.2492 10.9417 14.0375 10.5887C13.8963 10.3535 13.7198 10.2946 13.4492 10.3064C12.1081 10.4123 10.7551 10.5064 9.41395 10.6005C8.71984 10.6476 8.69631 10.6123 8.7316 9.90639Z" fill="#4452C5"/>
<path d="M6.23848 7.62424C6.22672 6.81248 6.7326 6.25954 7.49731 6.23601C8.22672 6.21248 8.83848 6.82424 8.85025 7.56542C8.85025 8.35366 8.26201 8.97718 7.50907 8.97718C6.82672 8.96542 6.25025 8.35366 6.23848 7.62424Z" fill="#4452C5"/>
</svg>
