<svg width="20" height="20" viewBox="0 0 20 20" fill="none" xmlns="http://www.w3.org/2000/svg">
<circle cx="10" cy="10" r="9.5" fill="white" stroke="white"/>
<path d="M10.1333 11.4436C11.4392 11.7966 12.8863 11.2907 14.3569 11.0083C14.5098 10.973 14.6627 10.9495 14.8157 10.926C15.051 10.8789 15.3098 10.8318 15.4039 11.1377C15.498 11.4318 15.2745 11.5613 15.0392 11.6436C13.8745 12.0554 12.7333 12.5377 11.5216 12.7966C11.1216 12.8789 10.7216 12.9966 10.3098 13.0319C9.40391 13.0907 8.78038 13.6789 8.0745 14.126C7.82744 14.2907 7.88626 14.4201 8.08626 14.5613C8.69803 14.9848 9.29803 15.4319 9.90979 15.8554C10.1451 16.0201 10.4745 16.1848 10.3098 16.5377C10.1216 16.926 9.80391 16.7142 9.54509 16.5848C8.52156 16.0436 7.49803 15.5142 6.49803 14.9377C5.92156 14.6083 5.86273 14.2201 6.33332 13.7613C7.0392 13.0789 7.75685 12.4201 8.48626 11.7613C8.89803 11.3848 9.40391 11.4436 10.1333 11.4436Z" fill="#4452C5"/>
<path d="M10.7092 3.52598L10.7059 3.50782C10.7059 3.09605 10.3798 3.18481 10.3798 3.18481C9.90919 4.04363 9.46213 4.92598 8.90919 5.72599C8.39154 6.47893 8.34449 7.29069 8.36802 8.13775C8.37978 8.78481 8.8386 8.50245 9.13272 8.52598C9.52096 8.54951 9.49743 8.29069 9.45037 8.00834C9.36801 7.58481 9.14449 7.13775 9.29743 6.73775C9.72096 5.6554 10.0386 4.51422 10.7092 3.52598Z" fill="#4452C5"/>
<path d="M6.37987 9.09616C7.19163 9.20205 8.06222 8.97852 8.94457 8.97852C9.53281 8.97852 9.83869 9.23734 9.79163 9.69617C9.74457 10.1315 9.37987 10.355 8.81516 10.2726C7.55634 10.0844 6.29751 9.90793 5.03869 9.71969C4.92104 9.70793 4.8034 9.67264 4.69751 9.63734C4.55634 9.59029 4.45046 9.50793 4.47399 9.34323C4.49752 9.17852 4.63869 9.11969 4.77987 9.11969C5.28575 9.0844 5.8034 9.09616 6.37987 9.09616Z" fill="#4452C5"/>
<path d="M10.6268 7.82007C11.0974 7.83183 11.4739 8.2789 11.4503 8.77302C11.4268 9.25537 11.0386 9.65536 10.5915 9.6436C10.1092 9.63184 9.72092 9.20831 9.73268 8.71419C9.74445 8.22007 10.1562 7.80831 10.6268 7.82007Z" fill="#4452C5"/>
</svg>
