<svg width="20" height="20" viewBox="0 0 20 20" fill="none" xmlns="http://www.w3.org/2000/svg">
<circle cx="10" cy="10" r="9.5" fill="white" stroke="white"/>
<path d="M13.6404 15.2072C13.111 14.9484 12.5699 15.3955 11.9934 15.4543C10.9581 15.5602 9.87574 15.5837 8.82868 15.4778C8.4875 15.4425 8.18162 15.3249 7.84045 15.5014C7.66398 15.5955 7.38162 15.6661 7.21692 15.5955C6.53456 15.3131 5.87574 15.4308 5.19339 15.572C4.86398 15.6425 4.53457 15.5014 4.25221 15.3014C4.1228 15.219 3.96986 15.1249 4.00515 14.9367C4.04045 14.7367 4.22868 14.7484 4.38162 14.7249C5.69927 14.5602 7.02868 14.3955 8.34633 14.2308C9.66397 14.0661 10.9934 13.9131 12.311 13.7367C12.4993 13.7131 12.8287 13.7249 12.6993 13.3955C12.5934 13.1249 12.511 12.6661 12.0287 12.8661C11.6993 12.9955 11.3699 13.1484 11.0875 13.3484C10.664 13.6543 10.264 13.6308 9.82868 13.3837C9.64045 13.2778 9.44045 13.1955 9.25221 13.1014C8.82868 12.8896 8.76986 12.0778 9.14633 11.7837C9.26397 11.6896 9.36986 11.7367 9.46397 11.8072C9.60515 11.9131 9.74633 12.019 9.87574 12.1367C10.5346 12.7131 10.7581 12.7367 11.5346 12.3131C11.8052 12.1719 11.8757 12.0308 11.711 11.7602C11.064 10.7367 10.4169 9.70136 9.78162 8.66607C9.62868 8.40724 9.47574 8.38371 9.21692 8.54842C8.55809 8.96018 8.04045 9.44254 8.1228 10.3131C8.14633 10.5367 8.0875 10.7837 8.02868 11.0072C7.9228 11.4425 7.60515 11.6308 7.18162 11.5249C6.75809 11.419 6.54633 11.1014 6.68751 10.6778C6.88751 10.0661 7.1228 9.4543 7.38162 8.86607C7.59339 8.39548 8.1228 8.31313 8.5228 8.10136C9.25221 7.70136 9.2875 7.53666 8.61692 7.06607C7.99339 6.63077 7.65221 5.99548 7.29927 5.36018C7.09927 5.00724 7.21692 4.6543 7.54633 4.43077C7.91104 4.19548 8.05221 4.54842 8.22868 4.77195C8.73456 5.43077 8.96986 6.21901 9.3228 6.96018C9.78162 7.94842 10.4522 8.84254 11.0287 9.77195C11.6757 10.8072 12.3346 11.819 12.9581 12.8661C13.2757 13.3837 13.6875 13.5837 14.2875 13.4778C14.711 13.3955 15.1346 13.3484 15.5699 13.3014C15.9463 13.2543 16.0757 13.3955 15.9463 13.7719C15.6757 14.5837 14.7228 15.2072 13.6404 15.2072Z" fill="#4452C5"/>
<path d="M11.9232 7.27808C11.9232 6.56044 11.9232 5.83103 11.9232 5.11338C11.9232 4.94867 11.9232 4.71338 12.1585 4.71338C12.3938 4.71338 12.3938 4.94867 12.3938 5.11338C12.4056 6.5722 12.4056 8.04279 12.3938 9.50161C12.3938 9.66632 12.4056 9.91338 12.182 9.92514C11.8997 9.94867 11.9232 9.67808 11.9232 9.48985C11.9114 8.76044 11.9232 8.01926 11.9232 7.27808Z" fill="#4452C5"/>
<path d="M9.19296 9.66606C9.65178 9.67782 10.0165 10.0778 10.0047 10.5602C9.99296 11.0308 9.59296 11.4425 9.1459 11.4308C8.67531 11.419 8.27531 10.9837 8.29884 10.4896C8.32237 10.0308 8.73413 9.64253 9.19296 9.66606Z" fill="#4452C5"/>
<path d="M5.48802 10.0428C5.48802 10.8192 5.48802 11.6075 5.48802 12.3839C5.48802 12.5369 5.51155 12.7486 5.29979 12.7604C5.08802 12.7722 5.08802 12.5604 5.08802 12.4075C5.08802 10.8428 5.08802 9.28981 5.08802 7.7251C5.08802 7.57216 5.07626 7.34863 5.27626 7.34863C5.52332 7.34863 5.48802 7.59569 5.48802 7.7604C5.48802 8.5251 5.48802 9.28981 5.48802 10.0428Z" fill="#4452C5"/>
</svg>
