<svg width="107" height="150" viewBox="0 0 107 150" fill="none" xmlns="http://www.w3.org/2000/svg">
<mask id="mask0" mask-type="alpha" maskUnits="userSpaceOnUse" x="0" y="0" width="107" height="150">
<path d="M0.498547 68.0746C-0.660386 71.1659 0.244565 74.653 2.76264 76.7889C7.53337 81.5631 17.3448 98.7972 22.2014 110.941C25.5157 119.224 32.7931 127.354 38.3143 132.717C40.6905 135.056 42.0245 138.252 42.0176 141.587V142.501C42.0176 146.643 45.3743 150 49.5158 150H89.503C93.6445 150 97.0012 146.643 97.0012 142.501V134.824C96.9783 134.189 97.2197 133.572 97.6682 133.122C106.893 124.687 106.998 110.606 106.998 110.011V70.4463C107.091 65.0944 103.056 60.5696 97.7288 60.0525C95.7267 59.9209 93.7314 60.3957 92.0028 61.4139V57.5276C92.0234 53.9261 90.0945 50.5957 86.9598 48.8213C83.8262 47.0468 79.9776 47.1063 76.9 48.978C76.5797 45.6065 74.5547 42.6342 71.5355 41.1023C68.5152 39.5704 64.9217 39.6905 62.0112 41.4226V37.2834C68.2143 33.7631 72.0355 27.1711 72.0092 20.039C72.0092 8.99654 63.0569 0.0454102 52.0144 0.0454102C40.972 0.0454102 32.0208 8.99654 32.0208 20.039C31.9945 27.1711 35.8157 33.7631 42.0176 37.2834V77.5211C42.0886 80.4717 41.687 83.4131 40.8278 86.2366C40.5601 87.0706 39.8771 87.7067 39.0259 87.9161C38.2251 88.1186 37.3762 87.8955 36.7767 87.3257C34.8249 85.4644 33.0905 83.3867 31.609 81.1329C27.2718 74.645 16.3587 62.526 9.52747 62.526C5.69029 62.4459 2.16087 64.615 0.498547 68.0746ZM37.0192 20.039C37.0192 11.7572 43.7326 5.04381 52.0144 5.04381C60.2963 5.04381 67.0096 11.7572 67.0096 20.039C67.0337 24.3155 65.2123 28.3941 62.0112 31.2313V20.039C62.0112 14.5178 57.5357 10.0422 52.0144 10.0422C46.4932 10.0422 42.0176 14.5178 42.0176 20.039V31.2313C38.8177 28.3941 36.9952 24.3155 37.0192 20.039ZM27.4423 83.9073C29.1367 86.4769 31.1182 88.8451 33.3479 90.9673C35.1865 92.7063 37.7869 93.3847 40.2409 92.7646C42.7418 92.1411 44.7496 90.2808 45.5642 87.836C46.5984 84.4976 47.0893 81.0151 47.016 77.5211V20.039C47.016 17.2784 49.2538 15.0406 52.0144 15.0406C54.775 15.0406 57.0128 17.2784 57.0128 20.039V72.5228C57.0128 73.9036 58.1317 75.0225 59.5126 75.0225C60.8923 75.0225 62.0112 73.9036 62.0112 72.5228V50.0305C62.0112 47.2699 64.2502 45.0321 67.0096 45.0321C69.7702 45.0321 72.0092 47.2699 72.0092 50.0305V72.5228C72.0092 73.9036 73.1281 75.0225 74.5078 75.0225C75.8887 75.0225 77.0076 73.9036 77.0076 72.5228V57.5276C77.0076 54.7669 79.2454 52.5292 82.006 52.5292C84.7666 52.5292 87.0044 54.7669 87.0044 57.5276V75.0225C87.0044 76.4023 88.1233 77.5211 89.503 77.5211C90.8839 77.5211 92.0028 76.4023 92.0028 75.0225V70.0241C91.9993 68.6982 92.5279 67.426 93.4695 66.4924C94.5003 65.4708 95.92 64.9411 97.3684 65.0383C100.068 65.3907 102.066 67.7246 102 70.4463V110.011C102 110.134 101.873 122.508 94.292 129.436C92.8105 130.833 91.9799 132.787 92.0028 134.824V142.501C92.0028 143.882 90.8839 145.001 89.503 145.001H49.5158C48.1349 145.001 47.016 143.882 47.016 142.501V141.587C47.0195 136.902 45.1375 132.413 41.7957 129.131C37.5615 125.02 29.989 116.944 26.8451 109.082C21.7014 96.2311 11.525 78.4833 6.29664 73.255C5.10682 72.0663 4.70869 70.9657 5.11369 69.9864C6.01978 68.4167 7.71528 67.4706 9.52747 67.5244C12.9242 67.5244 22.1339 75.9446 27.4423 83.9073Z" fill="url(#paint0_linear)"/>
<path d="M94.5011 107.513C95.8819 107.513 97.0008 106.394 97.0008 105.013V90.0179C97.0008 88.6382 95.8819 87.5193 94.5011 87.5193C93.1213 87.5193 92.0024 88.6382 92.0024 90.0179V105.013C92.0024 106.394 93.1213 107.513 94.5011 107.513Z" fill="url(#paint1_linear)"/>
<path d="M92.0023 122.508C92.6648 122.508 93.3009 122.245 93.7688 121.776C95.6702 120.016 96.8268 117.595 97.0007 115.01C96.9984 113.66 95.9116 112.563 94.5616 112.547C93.1967 112.52 92.0607 113.589 92.0023 114.953C91.8147 116.221 91.1901 117.385 90.2348 118.242C89.5209 118.957 89.3069 120.031 89.6936 120.965C90.0803 121.899 90.991 122.508 92.0023 122.508Z" fill="url(#paint2_linear)"/>
<path d="M54.5134 140.004H57.0121C58.3929 140.004 59.5118 138.885 59.5118 137.504C59.5118 136.124 58.3929 135.005 57.0121 135.005H54.5134C53.1326 135.005 52.0137 136.124 52.0137 137.504C52.0137 138.885 53.1326 140.004 54.5134 140.004Z" fill="url(#paint3_linear)"/>
<path d="M67.0089 140.004H84.5039C85.8847 140.004 87.0036 138.885 87.0036 137.504C87.0036 136.124 85.8847 135.005 84.5039 135.005H67.0089C65.6291 135.005 64.5103 136.124 64.5103 137.504C64.5103 138.885 65.6291 140.004 67.0089 140.004Z" fill="url(#paint4_linear)"/>
<path d="M32.0205 41.3804C33.0181 41.3804 33.9196 40.789 34.3155 39.8737C34.7113 38.9585 34.526 37.8956 33.843 37.1692C25.1836 28.0167 24.7134 13.8429 32.7481 4.1367C33.3419 3.45141 33.5181 2.49841 33.2092 1.64609C32.8991 0.793761 32.1521 0.175969 31.2563 0.0318172C30.3605 -0.112334 29.4578 0.240036 28.8961 0.952785C19.2585 12.5993 19.8168 29.6046 30.1992 40.5933C30.6716 41.0956 31.3306 41.3804 32.0205 41.3804Z" fill="url(#paint5_linear)"/>
<path d="M75.3406 34.7598C75.9298 35.0618 76.6163 35.1179 77.2466 34.9142C77.8782 34.7106 78.4021 34.2655 78.7042 33.6752C84.1682 23.0354 82.7633 10.1625 75.1324 0.952785C74.5718 0.240036 73.668 -0.112334 72.7722 0.0318172C71.8776 0.175969 71.1305 0.793761 70.8205 1.64609C70.5104 2.49841 70.6866 3.45141 71.2815 4.1367C77.6402 11.8088 78.8106 22.5332 74.2584 31.3962C73.628 32.6238 74.1131 34.1294 75.3406 34.7598Z" fill="url(#paint6_linear)"/>
</mask>
<g mask="url(#mask0)">
<rect width="107" height="150" fill="url(#paint7_linear)"/>
</g>
<defs>
<linearGradient id="paint0_linear" x1="107" y1="75.0225" x2="-3.83845e-07" y2="75.0225" gradientUnits="userSpaceOnUse">
<stop stop-color="#64E0B9"/>
<stop offset="1" stop-color="#4451C4"/>
</linearGradient>
<linearGradient id="paint1_linear" x1="97.0008" y1="97.5161" x2="92.0024" y2="97.5161" gradientUnits="userSpaceOnUse">
<stop stop-color="#64E0B9"/>
<stop offset="1" stop-color="#4451C4"/>
</linearGradient>
<linearGradient id="paint2_linear" x1="97.0007" y1="117.527" x2="89.5034" y2="117.527" gradientUnits="userSpaceOnUse">
<stop stop-color="#64E0B9"/>
<stop offset="1" stop-color="#4451C4"/>
</linearGradient>
<linearGradient id="paint3_linear" x1="59.5118" y1="137.504" x2="52.0137" y2="137.504" gradientUnits="userSpaceOnUse">
<stop stop-color="#64E0B9"/>
<stop offset="1" stop-color="#4451C4"/>
</linearGradient>
<linearGradient id="paint4_linear" x1="87.0036" y1="137.504" x2="64.5103" y2="137.504" gradientUnits="userSpaceOnUse">
<stop stop-color="#64E0B9"/>
<stop offset="1" stop-color="#4451C4"/>
</linearGradient>
<linearGradient id="paint5_linear" x1="34.5211" y1="20.6902" x2="22.0239" y2="20.6902" gradientUnits="userSpaceOnUse">
<stop stop-color="#64E0B9"/>
<stop offset="1" stop-color="#4451C4"/>
</linearGradient>
<linearGradient id="paint6_linear" x1="82.0057" y1="17.5174" x2="70.6699" y2="17.5174" gradientUnits="userSpaceOnUse">
<stop stop-color="#64E0B9"/>
<stop offset="1" stop-color="#4451C4"/>
</linearGradient>
<linearGradient id="paint7_linear" x1="107" y1="150" x2="-27.8939" y2="31.8458" gradientUnits="userSpaceOnUse">
<stop stop-color="#64E0B9"/>
<stop offset="0.930911" stop-color="#4451C4"/>
</linearGradient>
</defs>
</svg>
