<svg width="20" height="20" viewBox="0 0 20 20" fill="none" xmlns="http://www.w3.org/2000/svg">
<circle cx="10" cy="10" r="9.5" fill="white" stroke="white"/>
<path d="M6.30697 7.84048C6.29521 8.35813 5.8952 8.78166 5.38932 8.78166C4.8599 8.78166 4.44813 8.3346 4.47166 7.78166C4.48343 7.26401 4.90696 6.85225 5.41284 6.86402C5.90696 6.87578 6.30697 7.32284 6.30697 7.84048Z" fill="#4452C5"/>
<path fill-rule="evenodd" clip-rule="evenodd" d="M7.08029 12.6652C7.06999 12.712 7.06042 12.7556 7.04787 12.7933C7.08317 13.2991 7.28317 13.6403 7.74199 13.758L7.74201 13.758C8.11847 13.8756 8.49494 13.9933 8.88317 14.0521C10.1538 14.2286 11.2832 14.7227 12.3655 15.3815C12.4345 15.4219 12.505 15.4662 12.5763 15.5111C12.8575 15.688 13.1522 15.8732 13.4244 15.8638C14.0185 15.843 14.271 16.1824 14.5417 16.5464C14.5766 16.5932 14.6117 16.6405 14.6479 16.6874C14.7185 16.7815 14.7891 16.8756 14.8714 16.958C14.9048 16.989 14.9363 17.0254 14.9678 17.0617C15.0911 17.2042 15.2135 17.3455 15.4479 17.158C15.7199 16.9403 15.5793 16.763 15.4263 16.57C15.4139 16.5543 15.4014 16.5386 15.3891 16.5227C14.8734 15.8924 14.3664 15.2578 13.8602 14.6241C13.5349 14.2169 13.2099 13.8101 12.8832 13.405C12.6949 13.1697 12.542 12.9344 12.5185 12.6168C12.4824 12.1537 12.4401 11.6937 12.398 11.2351C12.3578 10.7967 12.3177 10.3597 12.2832 9.92267C12.2596 9.64032 12.1891 9.38149 12.0126 9.15796C11.7693 8.85786 11.5287 8.55775 11.2886 8.25813C10.8321 7.68856 10.377 7.12074 9.9067 6.55796C9.342 5.87561 8.83612 5.16973 8.65965 4.26385C8.61325 4.01641 8.5262 3.77406 8.43858 3.5301C8.39288 3.40289 8.34703 3.27523 8.30671 3.1462C8.23612 2.93443 8.15376 2.76972 7.89494 2.84031C7.60082 2.9109 7.61258 3.11091 7.68317 3.3462C7.75847 3.58621 7.83 3.82622 7.90153 4.06623C8.00882 4.42622 8.11611 4.78621 8.23611 5.1462C8.31846 5.40502 8.3067 5.62855 8.15376 5.86384C8.03865 6.05143 7.92818 6.2421 7.81786 6.43251C7.62375 6.76753 7.43012 7.10173 7.21258 7.41679C6.83611 7.9462 6.44787 8.48738 5.98905 8.9462C5.65964 9.27561 5.4714 9.56973 5.70669 9.96973C5.95375 10.405 6.35376 10.3344 6.73023 10.1344C6.81966 10.0947 6.90909 10.0382 6.99143 9.9861C7.00658 9.97653 7.02149 9.9671 7.03611 9.95796C7.99131 9.34132 8.42148 9.17824 8.62676 8.86688C8.82096 8.57234 8.81389 8.14509 8.85964 7.07561C8.8617 7.04886 8.86232 7.02067 8.86294 6.99212C8.8659 6.85739 8.86903 6.71444 9.02435 6.67561C9.17172 6.63877 9.24698 6.75336 9.31788 6.8613C9.33754 6.89124 9.35686 6.92066 9.37729 6.9462C9.54688 7.15724 9.71164 7.3719 9.87621 7.58632C10.2254 8.04127 10.5737 8.49511 10.9655 8.91091C11.4714 9.46385 11.7067 10.0874 11.7185 10.8168C11.7185 10.849 11.7236 10.8833 11.7287 10.9179C11.7441 11.0223 11.7599 11.1285 11.6361 11.1815C11.5374 11.2308 11.4553 11.1643 11.3758 11.0999C11.3606 11.0875 11.3454 11.0752 11.3302 11.0638C11.0884 10.8904 10.8483 10.7153 10.6086 10.5404C10.2304 10.2644 9.85308 9.98912 9.4714 9.72267C8.96552 9.36973 8.68317 9.42855 8.38905 9.98149C7.96552 10.7815 7.56552 11.5815 7.16552 12.3933C7.12002 12.4843 7.09896 12.5801 7.08029 12.6652ZM9.69316 12.7285C10.7207 13.2288 11.75 13.73 12.6831 14.511C12.7456 14.3027 12.6882 14.2234 12.6416 14.159C12.6356 14.1507 12.6297 14.1426 12.6243 14.1345C12.1772 13.6404 11.8008 13.1345 11.8714 12.4168C11.8949 12.2521 11.789 12.1463 11.6243 12.0639C11.1341 11.8377 10.659 11.6039 10.1809 11.3686C10.0623 11.3102 9.94354 11.2518 9.82429 11.1933C9.81628 11.1897 9.80819 11.186 9.80003 11.1824C9.56846 11.0776 9.28112 10.9477 9.2243 11.3227C9.2068 11.4347 9.14249 11.556 9.07715 11.6793C8.92278 11.9705 8.76267 12.2725 9.20077 12.4874C9.36459 12.5685 9.52885 12.6485 9.69316 12.7285Z" fill="#4452C5"/>
</svg>
