<svg width="20" height="20" viewBox="0 0 20 20" fill="none" xmlns="http://www.w3.org/2000/svg">
<g clip-path="url(#clip0)">
<path d="M11.2435 8.7574C11.0896 8.60359 10.8403 8.60344 10.6864 8.75725L8.75703 10.6857C8.60323 10.8395 8.60307 11.0889 8.75688 11.2429C8.83379 11.3198 8.93465 11.3583 9.03551 11.3583C9.13622 11.3583 9.23708 11.3198 9.31398 11.2429L11.2433 9.3145C11.3973 9.16069 11.3973 8.91121 11.2435 8.7574V8.7574Z" fill="#E972DD"/>
<path d="M18.492 11.8629C17.8654 11.4258 17.0917 11.1649 16.4223 11.1649C16.2047 11.1649 16.0283 11.3413 16.0283 11.5589V15.7787C15.6403 15.4899 15.1388 15.315 14.5914 15.315C13.364 15.315 12.3655 16.191 12.3655 17.2678C12.3655 18.3446 13.364 19.2206 14.5914 19.2206C15.8181 19.2206 16.8162 18.3446 16.8162 17.2678V11.9904C17.7732 12.1653 18.8355 12.9223 18.8355 13.6942V15.2021C18.8355 15.4197 19.0119 15.5961 19.2293 15.5961C19.4469 15.5961 19.6233 15.4197 19.6233 15.2021V13.6942C19.6233 13.0221 19.2216 12.3716 18.492 11.8629V11.8629ZM14.5914 18.4328C13.7986 18.4328 13.1534 17.9102 13.1534 17.2678C13.1534 16.6254 13.7986 16.1028 14.5914 16.1028C15.3838 16.1028 16.0283 16.6254 16.0283 17.2678C16.0283 17.9102 15.3838 18.4328 14.5914 18.4328Z" fill="#E972DD"/>
<path d="M1.75552 9.0166C2.69728 9.0166 3.46342 8.3382 3.46342 7.50415C3.46342 7.48096 3.46251 7.45792 3.46129 7.43488C3.46266 7.42206 3.46342 7.40894 3.46342 7.39566V4.07918C3.50111 4.07491 3.53911 4.06804 3.57695 4.05782L7.84252 2.92288V4.27571C7.57687 4.12465 7.26117 4.03661 6.92258 4.03661C5.98081 4.03661 5.21482 4.71471 5.21482 5.54799C5.21482 6.38203 5.98081 7.06058 6.92258 7.06058C7.86434 7.06058 8.63033 6.38203 8.63033 5.54799V0.930087C8.63033 0.68961 8.52886 0.473546 8.35171 0.337439C8.17822 0.204383 7.95071 0.162421 7.72793 0.221778L3.37447 1.379C3.37431 1.37915 3.37416 1.37915 3.37401 1.37915C2.97576 1.48566 2.67546 1.8833 2.67546 2.30414V6.23081C2.40966 6.07975 2.09411 5.99156 1.75552 5.99156C0.813748 5.99156 0.0476074 6.67011 0.0476074 7.50415C0.0476074 8.3382 0.813748 9.0166 1.75552 9.0166ZM6.92258 6.27262C6.41538 6.27262 6.00263 5.94761 6.00263 5.54814C6.00263 5.14912 6.41538 4.82457 6.92258 4.82457C7.42993 4.82457 7.84252 5.14912 7.84252 5.54814C7.84252 5.94761 7.42993 6.27262 6.92258 6.27262ZM3.46327 2.30414C3.46327 2.23822 3.52934 2.15338 3.5771 2.14041L7.84252 1.00669V1.97561C7.84252 2.03924 7.77493 2.12561 7.72778 2.13812L3.46327 3.27276V2.30414ZM1.75552 6.77952C2.25417 6.77952 2.67546 7.11139 2.67546 7.50415C2.67546 7.89691 2.25417 8.22879 1.75552 8.22879C1.25686 8.22879 0.835568 7.89691 0.835568 7.50415C0.835568 7.11139 1.25686 6.77952 1.75552 6.77952Z" fill="#E972DD"/>
<path d="M14.9441 9.33443C15.0999 9.35045 15.256 9.35839 15.4118 9.35839C16.213 9.35839 17.0052 9.14812 17.6983 8.75017C17.8371 8.79687 17.982 8.82052 18.1269 8.82052C18.469 8.82052 18.811 8.69051 19.0713 8.43035C19.3229 8.17965 19.4616 7.84472 19.4619 7.48736C19.462 7.33905 19.4379 7.1947 19.3922 7.05844C19.8675 6.23066 20.0745 5.26142 19.9761 4.30501C19.8687 3.26223 19.4006 2.27895 18.6576 1.53646C17.9145 0.794281 16.9311 0.326601 15.8883 0.219485C14.9317 0.121066 13.9616 0.32828 13.1332 0.803589C12.6673 0.647034 12.1318 0.753693 11.7614 1.12387C11.5097 1.37533 11.3711 1.71072 11.3711 2.06808C11.3711 2.21563 11.3952 2.35952 11.4407 2.49532C10.9652 3.32296 10.758 4.29219 10.8566 5.24876C10.8709 5.38776 10.8921 5.5257 10.919 5.66227L2.23359 14.8028C1.64796 15.4198 1.65085 16.3658 2.24091 16.9569L2.58469 17.3002C2.17713 18.9319 0.458691 19.0144 0.381177 19.0173C0.164351 19.0243 -0.00608922 19.2054 0.000166856 19.4224C0.00642291 19.636 0.18144 19.805 0.393689 19.805C0.397656 19.805 0.401471 19.805 0.405438 19.8048C0.431683 19.804 1.05683 19.7824 1.73188 19.4629C2.24579 19.2195 2.86896 18.7632 3.20938 17.924L3.23105 17.9457C3.52737 18.2426 3.91357 18.3912 4.30282 18.3912C4.68887 18.3912 5.07781 18.2452 5.38543 17.9527L8.74387 14.7552C8.90134 14.6052 8.9076 14.3559 8.75745 14.1983C8.60746 14.0407 8.35813 14.0346 8.20051 14.1846L4.84237 17.3819C4.53704 17.6721 4.07424 17.6751 3.78814 17.3886L2.79801 16.4C2.51221 16.1136 2.51526 15.6503 2.80472 15.3454L11.1821 6.52927C11.4112 7.08179 11.7474 7.5896 12.1754 8.0173C12.6026 8.44439 13.1102 8.78008 13.6625 9.00896L11.2529 11.2965C11.2506 11.2987 11.2484 11.3008 11.2461 11.303L10.7736 11.7732C10.6193 11.9266 10.6187 12.1761 10.7721 12.3303C10.8491 12.4077 10.9503 12.4464 11.0514 12.4464C11.1518 12.4464 11.2524 12.4083 11.3293 12.3317L11.7985 11.8648L14.53 9.27187C14.6667 9.29888 14.8048 9.32009 14.9441 9.33443V9.33443ZM18.1007 2.09371C19.2225 3.21492 19.5123 4.92924 18.8735 6.34372L13.8484 1.32208C15.2635 0.683655 16.9785 0.973113 18.1007 2.09371ZM12.3184 1.68112C12.4252 1.57431 12.5654 1.52105 12.7056 1.52105C12.846 1.52105 12.9862 1.57431 13.0931 1.68112L18.5148 7.09903C18.6176 7.20187 18.6742 7.33951 18.6741 7.48675C18.6739 7.63339 18.6175 7.77026 18.5146 7.87265C18.3009 8.08642 17.9528 8.08642 17.7389 7.87265L12.3184 2.45489C12.2155 2.35204 12.1589 2.21471 12.1589 2.06793C12.1589 1.92114 12.2155 1.78381 12.3184 1.68112ZM11.9593 3.20989L16.9836 8.23184C15.5688 8.87072 13.8542 8.58126 12.7323 7.46005C11.6099 6.33823 11.3202 4.62407 11.9593 3.20989V3.20989Z" fill="#E972DD"/>
<path d="M10.014 12.9524C9.84687 12.8132 9.59846 12.8356 9.45914 13.0029L9.45365 13.0094C9.31434 13.1767 9.33692 13.4251 9.504 13.5642C9.5777 13.6257 9.66712 13.6556 9.75608 13.6556C9.86884 13.6556 9.98099 13.6073 10.0588 13.5139L10.0645 13.5072C10.2036 13.3401 10.181 13.0917 10.014 12.9524V12.9524Z" fill="#E972DD"/>
</g>
<defs>
<clipPath id="clip0">
<rect width="20" height="20" fill="white"/>
</clipPath>
</defs>
</svg>
