<svg width="100" height="100" viewBox="0 0 100 100" fill="none" xmlns="http://www.w3.org/2000/svg">
<path d="M93.5484 96.7743C97.9952 96.7743 96.7742 96.7743 93.5484 96.7743C87.2302 96.7743 89.1016 96.7743 93.5484 96.7743C93.5484 99.2011 89.866 96.7743 93.5484 96.7743H90.3226H83.5081C83.2107 96.7743 82.9286 96.6421 82.7396 96.4125C78.2584 90.9676 74.3337 85.0814 70.9984 78.874C70.6435 78.2135 71.1256 77.4194 71.8754 77.4194H72.5806C73.471 77.4194 74.1936 76.6984 74.1936 75.8065V69.3549C74.1936 68.463 73.471 67.742 72.5806 67.742H66.4568C66.0475 67.742 65.6791 67.4928 65.5302 67.1115C64.9485 65.6226 64.4018 64.1158 63.8863 62.5989C63.6674 61.9548 64.1491 61.2904 64.8293 61.2904H66.129C67.0194 61.2904 67.7419 60.5694 67.7419 59.6775V53.2259C67.7419 52.3339 67.0194 51.613 66.129 51.613H61.555C61.088 51.613 60.6826 51.2898 60.5827 50.8335C58.918 43.237 58.0645 35.4595 58.0645 27.6775V20.9678V14.5162C58.0645 13.6243 57.3419 12.9033 56.4516 12.9033H55.8387C55.2864 12.9033 54.8387 12.4556 54.8387 11.9033V8.06458C54.8387 7.17264 54.1161 6.45167 53.2258 6.45167H52.6129C52.0606 6.45167 51.6129 6.00396 51.6129 5.45167V1.00006C51.6129 0.447776 51.1652 6.10352e-05 50.6129 6.10352e-05H49.3871C48.8348 6.10352e-05 48.3871 0.447776 48.3871 1.00006V5.45167C48.3871 6.00396 47.9394 6.45167 47.3871 6.45167H46.7742C45.8839 6.45167 45.1613 7.17264 45.1613 8.06458V11.9033C45.1613 12.4556 44.7136 12.9033 44.1613 12.9033H43.5484C42.6581 12.9033 41.9355 13.6243 41.9355 14.5162V20.9678V27.6775C41.9355 35.4595 41.082 43.237 39.4173 50.8335C39.3174 51.2898 38.912 51.613 38.445 51.613H33.871C32.9806 51.613 32.2581 52.3339 32.2581 53.2259V59.6775C32.2581 60.5694 32.9806 61.2904 33.871 61.2904H35.1707C35.8509 61.2904 36.3326 61.9548 36.1137 62.5988C35.5981 64.1155 35.0515 65.6217 34.4698 67.1113C34.3208 67.4926 33.9524 67.742 33.543 67.742H27.4194C26.529 67.742 25.8065 68.463 25.8065 69.3549V75.8065C25.8065 76.6984 26.529 77.4194 27.4194 77.4194H28.1654C28.9151 77.4194 29.3972 78.2133 29.0423 78.8736C25.704 85.0844 21.7602 90.9647 17.2749 96.4126C17.0859 96.6421 16.8038 96.7743 16.5065 96.7743H9.67742C14.0121 96.7743 13.3266 96.7743 9.67742 96.7743C4.43548 96.7743 12.5113 96.7743 8.06452 96.7743C3.61774 96.7743 2.82258 96.7743 6.45161 96.7743C2.92339 96.7743 6.45161 100.668 6.45161 96.7743H1C0.447715 96.7743 0 97.222 0 97.7743V99.0001C0 99.5523 0.447715 100 1 100H99C99.5523 100 100 99.5523 100 99.0001V97.7743C100 97.222 99.5523 96.7743 99 96.7743H93.5484C97.9952 96.7743 93.5484 100.668 93.5484 96.7743ZM61.8095 66.3791C62.0543 67.0372 61.5706 67.742 60.8684 67.742H58.3353C57.9049 67.742 57.5227 67.4665 57.3866 67.0582L55.9031 62.6065C55.6873 61.959 56.1693 61.2904 56.8518 61.2904H59.3224C59.7585 61.2904 60.1438 61.5731 60.2784 61.9878C60.7565 63.461 61.2687 64.9252 61.8095 66.3791ZM51.3421 61.2904C51.7725 61.2904 52.1547 61.5658 52.2908 61.9742L53.7743 66.4258C53.9901 67.0734 53.5081 67.742 52.8256 67.742H47.1728C46.4903 67.742 46.0083 67.0734 46.2241 66.4258L47.7076 61.9742C47.8437 61.5658 48.2258 61.2904 48.6563 61.2904H51.3421ZM54.8387 27.6775C54.8387 28.5231 53.82 28.9588 53.2221 28.3608L52.9878 28.1265C52.5972 27.736 52.5972 27.1028 52.9878 26.7123L53.1316 26.5685C53.7616 25.9385 54.8387 26.3847 54.8387 27.2756V27.6775ZM50.7071 24.4317C50.3166 24.8222 49.6834 24.8222 49.2929 24.4317L49.149 24.2878C48.5191 23.6578 48.9652 22.5807 49.8561 22.5807H50.1439C51.0348 22.5807 51.4809 23.6578 50.851 24.2878L50.7071 24.4317ZM45.1613 27.2756C45.1613 26.3847 46.2384 25.9385 46.8684 26.5685L47.0122 26.7123C47.4028 27.1028 47.4028 27.736 47.0122 28.1265L46.7779 28.3608C46.18 28.9588 45.1613 28.5231 45.1613 27.6775V27.2756ZM44.532 39.4776C44.622 38.6328 45.6551 38.2584 46.2559 38.8592L47.0122 39.6155C47.4028 40.0061 47.4028 40.6392 47.0122 41.0297L46.0841 41.9579C45.4024 42.6396 44.2313 42.0549 44.3474 41.098C44.4128 40.5583 44.4744 40.0182 44.532 39.4776ZM46.5361 34.5781C46.1456 34.1876 46.1456 33.5544 46.5361 33.1639L49.2929 30.4072C49.6834 30.0166 50.3166 30.0166 50.7071 30.4072L53.4639 33.1639C53.8544 33.5544 53.8544 34.1876 53.4639 34.5781L50.7071 37.3349C50.3166 37.7254 49.6834 37.7254 49.2929 37.3349L46.5361 34.5781ZM53.7441 38.8592C54.3449 38.2584 55.378 38.6328 55.468 39.4776C55.5256 40.0182 55.5872 40.5583 55.6526 41.098C55.7687 42.0549 54.5976 42.6396 53.9159 41.9579L52.9878 41.0298C52.5972 40.6392 52.5972 40.0061 52.9878 39.6155L53.7441 38.8592ZM48.3871 10.6775C48.3871 10.1252 48.8348 9.67748 49.3871 9.67748H50.6129C51.1652 9.67748 51.6129 10.1252 51.6129 10.6775V11.9033C51.6129 12.4556 51.1652 12.9033 50.6129 12.9033H49.3871C48.8348 12.9033 48.3871 12.4556 48.3871 11.9033V10.6775ZM45.1613 17.1291C45.1613 16.5768 45.609 16.1291 46.1613 16.1291H53.8387C54.391 16.1291 54.8387 16.5768 54.8387 17.1291V18.3549C54.8387 18.9072 54.391 19.3549 53.8387 19.3549H46.1613C45.609 19.3549 45.1613 18.9072 45.1613 18.3549V17.1291ZM42.906 49.9336C42.9456 49.7404 43.0406 49.5627 43.18 49.4232L49.2929 43.3104C49.6834 42.9199 50.3166 42.9199 50.7071 43.3104L56.82 49.4232C56.9594 49.5627 57.0544 49.7404 57.094 49.9336C57.1257 50.0889 57.158 50.244 57.1906 50.3991C57.3219 51.0236 56.8481 51.613 56.21 51.613H43.79C43.1519 51.613 42.6781 51.0236 42.8094 50.3991C42.842 50.244 42.8743 50.0889 42.906 49.9336ZM35.4839 55.8388C35.4839 55.2865 35.9316 54.8388 36.4839 54.8388H63.5161C64.0684 54.8388 64.5161 55.2865 64.5161 55.8388V57.0646C64.5161 57.6169 64.0684 58.0646 63.5161 58.0646H36.4839C35.9316 58.0646 35.4839 57.6169 35.4839 57.0646V55.8388ZM39.7216 61.9878C39.8562 61.5731 40.2415 61.2904 40.6776 61.2904H43.1482C43.8307 61.2904 44.3127 61.959 44.0969 62.6065L42.6134 67.0582C42.4773 67.4665 42.0951 67.742 41.6647 67.742H39.1316C38.4294 67.742 37.9457 67.0372 38.1905 66.3791C38.7313 64.9252 39.2435 63.461 39.7216 61.9878ZM29.0323 71.9678C29.0323 71.4155 29.48 70.9678 30.0323 70.9678H69.9677C70.52 70.9678 70.9677 71.4155 70.9677 71.9678V73.1936C70.9677 73.7459 70.52 74.1936 69.9677 74.1936H30.0323C29.48 74.1936 29.0323 73.7459 29.0323 73.1936V71.9678ZM33.1481 77.972C33.3192 77.6339 33.6653 77.4194 34.0443 77.4194H65.9525C66.3315 77.4194 66.6776 77.6339 66.8487 77.972C69.9019 84.0049 73.5009 89.7594 77.5956 95.1422C78.1016 95.8074 77.6317 96.7743 76.7959 96.7743H65.5161C64.9638 96.7743 64.5161 96.3265 64.5161 95.7743V95.1614C64.5161 87.1565 58.0032 80.6452 50 80.6452C41.9968 80.6452 35.4839 87.1565 35.4839 95.1614V95.7743C35.4839 96.3265 35.0362 96.7743 34.4839 96.7743H23.2057C22.3699 96.7743 21.9 95.8074 22.406 95.1421C26.4999 89.7593 30.0951 84.0049 33.1481 77.972ZM61.2903 95.7743C61.2903 96.3265 60.8426 96.7743 60.2903 96.7743H39.7097C39.1574 96.7743 38.7097 96.3265 38.7097 95.7743V95.1614C38.7097 88.9372 43.7742 83.871 50 83.871C56.2258 83.871 61.2903 88.9372 61.2903 95.1614V95.7743Z" fill="url(#paint0_linear)"/>
<defs>
<linearGradient id="paint0_linear" x1="100" y1="100" x2="11.1592" y2="-9.08791" gradientUnits="userSpaceOnUse">
<stop stop-color="#64E0B9"/>
<stop offset="0.930911" stop-color="#4451C4"/>
</linearGradient>
</defs>
</svg>
