<svg width="20" height="20" viewBox="0 0 20 20" fill="none" xmlns="http://www.w3.org/2000/svg">
<circle cx="10" cy="10" r="9.5" fill="white" stroke="white"/>
<path d="M10.5084 14.1061C10.5084 13.6002 10.4966 13.0826 10.5084 12.5767C10.5202 12.1649 10.3437 12.012 9.94369 12.0238C9.09663 12.0473 8.26134 11.9296 7.46134 11.6473C6.32017 11.259 5.63781 10.412 5.22605 9.31787C5.09664 8.97669 5.22605 8.83552 5.56723 8.83552C6.06135 8.83552 6.5437 8.82375 7.03782 8.83552C7.35546 8.83552 7.579 8.75316 7.55547 8.37669C7.53194 8.00022 7.75546 7.97669 8.06134 8.03552C8.42605 8.11787 8.779 8.22375 9.07312 8.47081C9.22606 8.60022 9.39076 8.7061 9.56723 8.77669C9.73193 8.84728 9.95547 8.88258 10.0261 8.68258C10.1084 8.47081 9.86135 8.44728 9.73194 8.40022C8.90841 8.11787 8.34369 7.5414 7.88487 6.83552C7.59075 6.38846 7.60252 5.92963 7.94369 5.75316C8.43781 5.49434 8.72017 5.80022 8.90841 6.21199C9.19076 6.82375 9.5437 7.36493 10.1437 7.7414C10.4378 7.91787 10.6613 7.96493 10.9319 7.72963C11.7319 7.05905 12.6496 6.80022 13.6731 6.98846C14.0261 7.04728 14.1672 6.84728 14.3437 6.63552C14.4143 6.5414 14.4966 6.44728 14.6378 6.49434C14.779 6.5414 14.7672 6.68258 14.7672 6.78846C14.7202 7.82375 14.6849 8.85905 14.6261 9.89434C14.6143 10.1061 14.4966 10.259 14.2613 10.2943C14.0378 10.3296 13.9555 10.1649 13.8849 10.0002C13.7437 9.67081 13.6143 9.35316 13.4613 9.02375C13.3437 8.76493 13.1555 8.7414 12.9555 8.9414C12.5202 9.35316 12.3437 9.89434 12.2496 10.459C12.2025 10.7179 12.4143 10.7885 12.6143 10.8238C14.1555 11.0238 13.9437 11.5296 13.8496 12.612C13.8025 13.2473 13.6966 13.7649 13.1555 14.1296C12.9672 14.259 12.7672 14.6238 12.5437 14.3179C12.3672 14.0826 12.3672 13.6473 12.6966 13.4826C13.1672 13.2473 13.0966 12.8826 13.0731 12.4943C13.0496 12.1767 12.8731 12.0238 12.579 12.0473C12.2378 12.0826 11.7084 11.8473 11.6261 12.3649C11.4496 13.5061 10.8496 14.612 11.2613 15.8238C11.3437 16.059 11.3084 16.259 11.0025 16.2943C10.7084 16.3179 10.4849 16.2355 10.4849 15.8943C10.5202 15.2826 10.5202 14.6943 10.5084 14.1061C10.5202 14.1061 10.5202 14.1061 10.5084 14.1061Z" fill="#4452C5"/>
<path d="M8.12029 4.75334C7.89676 4.6357 7.41441 4.98864 7.34382 4.50628C7.27323 4.0357 7.75559 3.64746 8.26147 3.64746C8.77912 3.64746 9.13206 4.02393 9.09676 4.52981C9.085 4.72981 8.99088 4.75334 8.12029 4.75334Z" fill="#4452C5"/>
</svg>
