<svg width="100" height="100" viewBox="0 0 100 100" fill="none" xmlns="http://www.w3.org/2000/svg">
<mask id="mask0" mask-type="alpha" maskUnits="userSpaceOnUse" x="0" y="0" width="100" height="100">
<path d="M19.9896 99.0267C20.6141 99.6522 21.4623 100.003 22.3462 100C23.2293 100.003 24.0768 99.6516 24.6993 99.025L31.8405 91.8836C32.6806 91.0396 33.0043 89.8104 32.6888 88.6621L67.1499 54.2051L82.5272 49.8119C84.5091 51.1098 87.1292 50.8413 88.8068 49.1686L95.973 42.0022C96.9108 41.0645 97.4377 39.7927 97.4377 38.4665C97.4377 37.1403 96.9108 35.8685 95.973 34.9308L65.0617 4.03199C63.1093 2.08016 59.9445 2.08016 57.9921 4.03199L50.826 11.1984C49.1502 12.8745 48.8815 15.497 50.1827 17.4781L45.7946 32.8526L11.3352 67.3112C10.1876 66.9956 8.95877 67.3179 8.11376 68.1562L0.975891 75.2976C-0.325297 76.5992 -0.325297 78.7091 0.975891 80.0107L19.9896 99.0267ZM66.7616 50.8502L49.1527 33.2409L52.8525 20.283L79.7157 47.1487L66.7616 50.8502ZM53.1891 13.55L60.3553 6.3919C61.0061 5.74129 62.061 5.74129 62.7118 6.3919L93.6098 37.2957C94.2604 37.9465 94.2604 39.0015 93.6098 39.6523L86.4436 46.8187C85.7928 47.4693 84.7379 47.4693 84.0871 46.8187L53.1891 15.9065C52.5385 15.2557 52.5385 14.2008 53.1891 13.55ZM16.4115 66.9512L18.7931 69.3345C19.447 69.9661 20.4864 69.9571 21.1293 69.3142C21.7721 68.6713 21.7811 67.6319 21.1496 66.9779L18.7681 64.5947L47.2795 36.0808L63.9201 52.7218L35.407 81.234L25.9076 71.7344C25.2537 71.1028 24.2142 71.1118 23.5714 71.7547C22.9285 72.3976 22.9195 73.437 23.5511 74.091L33.0505 83.5906L30.6673 85.9839L14.0184 69.3428L16.4115 66.9512ZM10.4736 70.5128L29.4874 89.5287L22.3478 96.6668L3.33574 77.6542L10.4736 70.5128Z" fill="url(#paint0_linear)"/>
<path d="M46.0929 60.6096C49.2908 60.6088 52.0427 58.349 52.6657 55.2124C53.2886 52.0757 51.6092 48.9358 48.6544 47.7129C45.6996 46.49 42.2924 47.5248 40.5167 50.1843C38.741 52.8439 39.0912 56.3875 41.3532 58.648C42.6089 59.907 44.3148 60.613 46.0929 60.6096ZM43.7097 51.5249C44.8466 50.3897 46.6271 50.2155 47.9624 51.1089C49.2978 52.0023 49.8162 53.7145 49.2008 55.1986C48.5854 56.6827 47.0074 57.5255 45.4317 57.2117C43.856 56.8979 42.7214 55.5149 42.7215 53.9082C42.7206 53.0139 43.0763 52.1562 43.7097 51.5249Z" fill="url(#paint1_linear)"/>
<path d="M37.7816 67.2428C39.1143 67.245 40.393 66.716 41.3347 65.7729C41.7679 65.3544 41.9417 64.7348 41.7892 64.1521C41.6367 63.5694 41.1816 63.1143 40.5989 62.9618C40.0163 62.8093 39.3966 62.983 38.9782 63.4163C38.3173 64.0772 37.2459 64.0772 36.585 63.4163C35.9242 62.7554 35.9242 61.6839 36.585 61.023C37.2005 60.3667 37.1839 59.3402 36.5474 58.7042C35.9109 58.0681 34.8844 58.0522 34.2285 58.6681C32.7908 60.1048 32.3606 62.2663 33.1385 64.144C33.9164 66.0217 35.7492 67.2455 37.7816 67.2445V67.2428Z" fill="url(#paint2_linear)"/>
<path d="M77.6857 1.43192L76.4974 9.74327C76.3672 10.655 77.0007 11.4996 77.9124 11.6299C78.8241 11.7601 79.6687 11.1266 79.799 10.2149L80.9873 1.90357C81.1175 0.991871 80.484 0.147214 79.5723 0.0169719C78.6606 -0.11327 77.816 0.520223 77.6857 1.43192Z" fill="url(#paint3_linear)"/>
<path d="M90.0201 23.5178C90.0993 23.518 90.1784 23.5124 90.2567 23.5012L98.5695 22.3145C99.4807 22.1838 100.113 21.3392 99.9828 20.4279C99.8521 19.5167 99.0074 18.884 98.0962 19.0147L89.7851 20.2029C88.9243 20.3316 88.3074 21.1009 88.369 21.9691C88.4305 22.8373 89.1498 23.5119 90.0201 23.5178Z" fill="url(#paint4_linear)"/>
<path d="M84.0857 17.5812C84.5279 17.5824 84.9522 17.4066 85.2639 17.0929L90.0136 12.3448C90.6038 11.6864 90.5772 10.6816 89.9528 10.0555C89.3285 9.42935 88.3238 9.39982 87.6638 9.9882L82.9074 14.7363C82.4309 15.213 82.2884 15.9297 82.5463 16.5524C82.8042 17.175 83.4117 17.5811 84.0857 17.5812Z" fill="url(#paint5_linear)"/>
</mask>
<g mask="url(#mask0)">
<rect width="99.9999" height="99.9999" fill="url(#paint6_linear)"/>
</g>
<defs>
<linearGradient id="paint0_linear" x1="97.4377" y1="51.2841" x2="-3.49543e-07" y2="51.2841" gradientUnits="userSpaceOnUse">
<stop stop-color="#64E0B9"/>
<stop offset="1" stop-color="#4451C4"/>
</linearGradient>
<linearGradient id="paint1_linear" x1="52.7948" y1="53.9062" x2="39.3882" y2="53.9062" gradientUnits="userSpaceOnUse">
<stop stop-color="#64E0B9"/>
<stop offset="1" stop-color="#4451C4"/>
</linearGradient>
<linearGradient id="paint2_linear" x1="41.8435" y1="62.7305" x2="32.7559" y2="62.7305" gradientUnits="userSpaceOnUse">
<stop stop-color="#64E0B9"/>
<stop offset="1" stop-color="#4451C4"/>
</linearGradient>
<linearGradient id="paint3_linear" x1="81.0042" y1="5.82342" x2="76.4805" y2="5.82342" gradientUnits="userSpaceOnUse">
<stop stop-color="#64E0B9"/>
<stop offset="1" stop-color="#4451C4"/>
</linearGradient>
<linearGradient id="paint4_linear" x1="99.9999" y1="21.2577" x2="88.3647" y2="21.2577" gradientUnits="userSpaceOnUse">
<stop stop-color="#64E0B9"/>
<stop offset="1" stop-color="#4451C4"/>
</linearGradient>
<linearGradient id="paint5_linear" x1="90.4393" y1="13.5735" x2="82.4194" y2="13.5735" gradientUnits="userSpaceOnUse">
<stop stop-color="#64E0B9"/>
<stop offset="1" stop-color="#4451C4"/>
</linearGradient>
<linearGradient id="paint6_linear" x1="99.9999" y1="99.9999" x2="11.1591" y2="-9.08797" gradientUnits="userSpaceOnUse">
<stop stop-color="#64E0B9"/>
<stop offset="0.930911" stop-color="#4451C4"/>
</linearGradient>
</defs>
</svg>
