<svg width="105" height="100" viewBox="0 0 105 100" fill="none" xmlns="http://www.w3.org/2000/svg">
<mask id="mask0" mask-type="alpha" maskUnits="userSpaceOnUse" x="0" y="0" width="105" height="100">
<path d="M103.975 54.8119C103.039 45.4038 98.8363 36.5343 92.1393 29.837C86.4161 24.114 79.4109 20.4362 72.04 18.8009V13.6311C75.0506 12.8822 77.2883 10.1571 77.2883 6.91802C77.2883 3.10334 74.185 0 70.3703 0H55.7204C51.9057 0 48.8024 3.10334 48.8024 6.91802C48.8024 10.1569 51.0401 12.882 54.0505 13.6311V18.8154C46.7021 20.4576 39.7202 24.1303 34.0133 29.8372C32.7644 31.0861 31.6127 32.3963 30.5585 33.7579C30.5075 33.754 30.4564 33.7502 30.4043 33.7502H15.9047C14.7812 33.7502 13.87 34.6611 13.87 35.7849C13.87 36.9087 14.7812 37.8196 15.9047 37.8196H27.7899C26.298 40.3172 25.0951 42.9402 24.1795 45.6402H2.03471C0.911144 45.6402 0 46.5512 0 47.6749C0 48.7987 0.911144 49.7096 2.03471 49.7096H23.0297C22.4433 52.2838 22.1067 54.9035 22.0199 57.5305H13.0222C11.8986 57.5305 10.9874 58.4414 10.9874 59.5652C10.9874 60.689 11.8986 61.5999 13.0222 61.5999H22.0848C22.2565 64.2336 22.6799 66.8535 23.3552 69.4207H10.1736C9.04999 69.4207 8.13885 70.3317 8.13885 71.4554C8.13885 72.5792 9.04999 73.4901 10.1736 73.4901H24.6538C26.6498 78.7704 29.7693 83.7195 34.0133 87.9635C40.7168 94.667 49.5955 98.8711 59.0134 99.8016C60.3575 99.9343 61.7026 100 63.046 100C70.9858 100 78.8247 97.7022 85.4762 93.3707C86.4179 92.7574 86.6842 91.4969 86.071 90.5553C85.4577 89.6136 84.1972 89.3473 83.2555 89.9605C68.6957 99.4417 49.1965 97.3917 36.8908 85.086C22.452 70.6472 22.452 47.1538 36.8908 32.7149C51.3293 18.2764 74.8227 18.2764 89.2616 32.7149C101.551 45.0046 103.612 64.4871 94.1624 79.0398C93.5504 79.9823 93.8183 81.2426 94.7606 81.8544C95.7035 82.4665 96.9634 82.1985 97.5752 81.256C102.624 73.4804 104.897 64.0892 103.975 54.8119ZM52.8718 6.91822C52.8718 5.34743 54.1496 4.06963 55.7204 4.06963H70.3703C71.9411 4.06963 73.2189 5.34743 73.2189 6.91822C73.2189 8.48902 71.9411 9.76682 70.3703 9.76682H70.0053H56.0852H55.7204C54.1496 9.76682 52.8718 8.48882 52.8718 6.91822ZM58.1199 18.1159V13.8362H67.9706V18.1085C64.6996 17.7195 61.3903 17.7219 58.1199 18.1159Z" fill="url(#paint0_linear)"/>
<path d="M90.7012 84.4893C90.164 84.4893 89.6411 84.707 89.2629 85.0854C88.8824 85.4639 88.6665 85.9888 88.6665 86.5239C88.6665 87.0591 88.8824 87.584 89.2629 87.9625C89.6411 88.3429 90.1642 88.5586 90.7012 88.5586C91.2363 88.5586 91.7592 88.3429 92.1397 87.9625C92.5182 87.584 92.7359 87.0591 92.7359 86.5239C92.7359 85.9888 92.5184 85.4639 92.1397 85.0854C91.7592 84.707 91.2361 84.4893 90.7012 84.4893Z" fill="url(#paint1_linear)"/>
<path d="M63.0765 27.3357C45.672 27.3357 31.5122 41.4953 31.5122 58.9C31.5122 76.3047 45.672 90.4643 63.0765 90.4643C80.481 90.4643 94.6408 76.3047 94.6408 58.9C94.6408 41.4953 80.481 27.3357 63.0765 27.3357ZM63.0765 86.3948C47.9157 86.3948 35.5816 74.0606 35.5816 58.9C35.5816 43.7393 47.9157 31.4051 63.0765 31.4051C78.2373 31.4051 90.5714 43.7393 90.5714 58.9C90.5714 74.0606 78.2373 86.3948 63.0765 86.3948Z" fill="url(#paint2_linear)"/>
<path d="M75.9469 43.1518L65.869 53.2295C65.0262 52.8128 64.0782 52.5774 63.0761 52.5774C62.0738 52.5774 61.1261 52.8128 60.2833 53.2295L55.7729 48.7192C54.9782 47.9246 53.6902 47.9246 52.8952 48.7192C52.1007 49.5138 52.1007 50.8021 52.8952 51.5967L57.4056 56.107C56.9887 56.9498 56.7535 57.8978 56.7535 58.8999C56.7535 62.3862 59.5896 65.2225 63.0761 65.2225C66.5626 65.2225 69.3988 62.3862 69.3988 58.8999C69.3988 57.8978 69.1634 56.9498 68.7467 56.107L78.5288 46.325L78.8244 46.0293C79.6189 45.2348 79.6189 43.9464 78.8244 43.1518C78.0298 42.3573 76.7419 42.3573 75.9469 43.1518ZM63.0761 61.1533C61.8337 61.1533 60.8229 60.1425 60.8229 58.9001C60.8229 57.6577 61.8337 56.6468 63.0761 56.6468C64.3185 56.6468 65.3294 57.6577 65.3294 58.9001C65.3294 60.1425 64.3185 61.1533 63.0761 61.1533Z" fill="url(#paint3_linear)"/>
<path d="M84.8309 56.8901H82.9458C81.8223 56.8901 80.9111 57.8011 80.9111 58.9248C80.9111 60.0486 81.8223 60.9595 82.9458 60.9595H84.8309C85.9545 60.9595 86.8656 60.0486 86.8656 58.9248C86.8656 57.8011 85.9545 56.8901 84.8309 56.8901Z" fill="url(#paint4_linear)"/>
<path d="M43.2062 56.8406H41.3213C40.1978 56.8406 39.2866 57.7515 39.2866 58.8753C39.2866 59.999 40.1978 60.9099 41.3213 60.9099H43.2062C44.3298 60.9099 45.2409 59.999 45.2409 58.8753C45.2409 57.7515 44.3298 56.8406 43.2062 56.8406Z" fill="url(#paint5_linear)"/>
<path d="M63.1011 41.0646C64.2246 41.0646 65.1358 40.1537 65.1358 39.03V37.145C65.1358 36.0213 64.2246 35.1104 63.1011 35.1104C61.9775 35.1104 61.0664 36.0213 61.0664 37.145V39.03C61.0664 40.1537 61.9775 41.0646 63.1011 41.0646Z" fill="url(#paint6_linear)"/>
<path d="M63.0513 76.7354C61.9277 76.7354 61.0166 77.6463 61.0166 78.77V80.655C61.0166 81.7787 61.9277 82.6896 63.0513 82.6896C64.1748 82.6896 65.086 81.7787 65.086 80.655V78.77C65.086 77.6463 64.1748 76.7354 63.0513 76.7354Z" fill="url(#paint7_linear)"/>
<path d="M2.03468 69.4199C1.49956 69.4199 0.974612 69.6376 0.596161 70.0161C0.217711 70.3945 0 70.9195 0 71.4546C0 71.9918 0.217507 72.5147 0.596161 72.8931C0.974815 73.2716 1.49956 73.4893 2.03468 73.4893C2.5698 73.4893 3.09475 73.2716 3.473 72.8931C3.85145 72.5147 4.06936 71.9897 4.06936 71.4546C4.06936 70.9195 3.85165 70.3945 3.473 70.0161C3.09475 69.6376 2.5698 69.4199 2.03468 69.4199Z" fill="url(#paint8_linear)"/>
</mask>
<g mask="url(#mask0)">
<rect width="104.173" height="100" fill="url(#paint9_linear)"/>
</g>
<defs>
<linearGradient id="paint0_linear" x1="104.176" y1="50" x2="-3.73715e-07" y2="50" gradientUnits="userSpaceOnUse">
<stop stop-color="#64E0B9"/>
<stop offset="1" stop-color="#4451C4"/>
</linearGradient>
<linearGradient id="paint1_linear" x1="92.7359" y1="86.5239" x2="88.6665" y2="86.5239" gradientUnits="userSpaceOnUse">
<stop stop-color="#64E0B9"/>
<stop offset="1" stop-color="#4451C4"/>
</linearGradient>
<linearGradient id="paint2_linear" x1="94.6408" y1="58.9" x2="31.5122" y2="58.9" gradientUnits="userSpaceOnUse">
<stop stop-color="#64E0B9"/>
<stop offset="1" stop-color="#4451C4"/>
</linearGradient>
<linearGradient id="paint3_linear" x1="79.4203" y1="53.8892" x2="52.2993" y2="53.8892" gradientUnits="userSpaceOnUse">
<stop stop-color="#64E0B9"/>
<stop offset="1" stop-color="#4451C4"/>
</linearGradient>
<linearGradient id="paint4_linear" x1="86.8656" y1="58.9248" x2="80.9111" y2="58.9248" gradientUnits="userSpaceOnUse">
<stop stop-color="#64E0B9"/>
<stop offset="1" stop-color="#4451C4"/>
</linearGradient>
<linearGradient id="paint5_linear" x1="45.2409" y1="58.8753" x2="39.2866" y2="58.8753" gradientUnits="userSpaceOnUse">
<stop stop-color="#64E0B9"/>
<stop offset="1" stop-color="#4451C4"/>
</linearGradient>
<linearGradient id="paint6_linear" x1="65.1358" y1="38.0875" x2="61.0664" y2="38.0875" gradientUnits="userSpaceOnUse">
<stop stop-color="#64E0B9"/>
<stop offset="1" stop-color="#4451C4"/>
</linearGradient>
<linearGradient id="paint7_linear" x1="65.086" y1="79.7125" x2="61.0166" y2="79.7125" gradientUnits="userSpaceOnUse">
<stop stop-color="#64E0B9"/>
<stop offset="1" stop-color="#4451C4"/>
</linearGradient>
<linearGradient id="paint8_linear" x1="4.06936" y1="71.4546" x2="-1.45982e-08" y2="71.4546" gradientUnits="userSpaceOnUse">
<stop stop-color="#64E0B9"/>
<stop offset="1" stop-color="#4451C4"/>
</linearGradient>
<linearGradient id="paint9_linear" x1="104.173" y1="50" x2="-3.73707e-07" y2="50" gradientUnits="userSpaceOnUse">
<stop stop-color="#64E0B9"/>
<stop offset="1" stop-color="#4451C4"/>
</linearGradient>
</defs>
</svg>
