<svg width="20" height="20" viewBox="0 0 20 20" fill="none" xmlns="http://www.w3.org/2000/svg">
<circle cx="10" cy="10" r="9.5" fill="white" stroke="white"/>
<path d="M8.77753 14.6002C8.91871 13.4708 9.05989 12.3414 9.1893 11.2237C9.22459 10.8943 9.41283 10.6943 9.71871 10.5884C10.4599 10.3296 11.1893 10.059 11.9422 9.81194C12.5305 9.62371 13.0246 9.72959 13.4834 10.2119C14.8011 11.6002 16.1658 12.9649 17.4952 14.3414C17.6011 14.4472 17.6952 14.5766 17.7893 14.7061C17.8717 14.8237 17.8834 14.9649 17.7775 15.0825C17.6717 15.2002 17.5305 15.2237 17.4011 15.1531C17.2481 15.0708 17.0952 14.9766 16.954 14.8825C15.6834 13.9649 14.3893 13.0825 13.154 12.1178C12.6246 11.7061 12.1305 11.5649 11.4952 11.6825C10.1422 11.9414 10.3658 11.5296 9.96577 12.9884C9.80106 13.5766 9.65989 14.1649 9.49518 14.7531C9.43636 14.9766 9.37754 15.259 9.05989 15.2002C8.74224 15.1178 8.77753 14.8472 8.77753 14.6002Z" fill="#4452C5"/>
<path d="M12.8602 6.84717C12.9544 6.88246 13.0955 6.89423 13.2132 6.96482C14.6014 7.76481 15.9308 8.6707 17.1426 9.72952C17.2955 9.85893 17.4602 10.0119 17.3308 10.2236C17.1779 10.4707 16.9426 10.3766 16.7544 10.2589C15.4602 9.4354 14.0602 8.82364 12.625 8.30599C12.225 8.16481 12.072 7.81187 12.1544 7.40011C12.2132 7.05893 12.472 6.89423 12.8602 6.84717Z" fill="#4452C5"/>
<path d="M4.58914 7.54107C5.28326 7.42342 6.10678 7.43519 6.89502 7.39989C8.05972 7.35283 9.22443 7.23519 10.3774 7.15284C11.0244 7.10578 10.9891 7.55283 11.0362 7.94107C11.095 8.45871 10.695 8.37636 10.4009 8.35283C9.57737 8.29401 8.76561 8.17636 7.94208 8.11754C6.25973 8.01166 4.58914 7.79989 2.90678 7.90578C2.78914 7.91754 2.67149 7.91754 2.55384 7.90578C2.38914 7.88225 2.13032 7.97636 2.11855 7.74107C2.10679 7.51754 2.36561 7.54107 2.53032 7.52931C3.18914 7.54107 3.8362 7.54107 4.58914 7.54107Z" fill="#4452C5"/>
<path d="M12.2713 5.6588C12.3419 6.14115 12.236 6.49409 11.6948 6.6588C11.2595 6.78821 10.9183 6.76468 10.6831 6.35291C10.4713 5.97644 10.5654 5.27056 10.8242 5.0235C11.0831 4.77645 11.236 4.96468 11.4125 5.12939C11.5066 4.77645 11.7536 4.77645 12.0125 4.89409C12.3772 5.03527 12.236 5.38821 12.2713 5.6588Z" fill="#4452C5"/>
</svg>
