<svg width="20" height="20" viewBox="0 0 20 20" fill="none" xmlns="http://www.w3.org/2000/svg">
<path d="M19.2188 11.7969C18.7872 11.7969 18.4375 12.1466 18.4375 12.5781V16.875H16.2061L15.7109 12.7899L16.4742 8.13416C16.5439 7.70844 16.2553 7.30667 15.8295 7.23679C15.4039 7.16721 15.002 7.4556 14.9323 7.88147L14.239 12.1094H6.6272L13.0357 3.0545C13.0379 3.05542 13.0397 3.05649 13.0417 3.0574L15.5417 4.17023C17.3009 4.95331 18.4375 6.70349 18.4375 8.629C18.4375 9.06052 18.7872 9.41025 19.2188 9.41025C19.6503 9.41025 20 9.06052 20 8.629C20 6.08704 18.4995 3.77655 16.1771 2.74277L13.75 1.66245V0.78125C13.75 0.349731 13.4003 0 12.9688 0H7.03125C6.59973 0 6.25 0.349731 6.25 0.78125V1.66245L3.82294 2.74292C1.50055 3.77655 0 6.08704 0 8.629V17.6562C0 18.0878 0.349731 18.4375 0.78125 18.4375H3.60565L3.52142 19.1235C3.49411 19.3457 3.56354 19.5688 3.71185 19.7365C3.86002 19.904 4.07318 20 4.29688 20H15.7031C15.9268 20 16.1397 19.9042 16.2878 19.7368C16.4362 19.5695 16.5057 19.3466 16.4787 19.1248L16.3954 18.4375H19.2188C19.6503 18.4375 20 18.0878 20 17.6562V12.5781C20 12.1466 19.6503 11.7969 19.2188 11.7969ZM10.0426 4.57901L7.83813 1.5625H12.1774L10.0426 4.57901ZM1.5625 16.875V8.629C1.5625 6.70349 2.69913 4.95331 4.45831 4.17023L6.95831 3.0574C6.96762 3.05328 6.97617 3.04825 6.98532 3.04382L9.09042 5.92438L5.55725 10.9163L5.06805 7.8833C4.99939 7.45743 4.59839 7.16766 4.17252 7.23648C3.74649 7.30515 3.45688 7.70615 3.52554 8.13217L4.28925 12.8664L3.7973 16.875H1.5625ZM5.1799 18.4375L5.76462 13.6719H8.71964L7.659 15.7368C7.46185 16.1206 7.61307 16.5915 7.99698 16.7886C8.38074 16.9858 8.85162 16.8346 9.04877 16.4507L10.045 14.5113L11.0181 16.4853C11.154 16.7612 11.4311 16.9212 11.7194 16.9212C11.8353 16.9212 11.9531 16.8953 12.0642 16.8407C12.4512 16.6498 12.6103 16.1815 12.4194 15.7945L11.3733 13.6719H14.2438L14.8215 18.4375H5.1799Z" fill="white"/>
</svg>
