<svg width="16" height="16" viewBox="0 0 16 16" fill="none" xmlns="http://www.w3.org/2000/svg">
<path d="M15.2809 6.04231C14.773 4.47677 13.0886 3.61701 11.526 4.12557C11.3196 4.19277 11.1106 4.2857 10.9041 4.40084C10.9496 4.16854 10.9732 3.94068 10.9732 3.72325C10.9732 2.0612 9.82682 0.737915 8.19198 0.737915C6.55475 0.737915 5.35102 2.06413 5.35102 3.72325C5.35102 3.94065 5.37466 4.16851 5.42016 4.40084C5.21363 4.28573 5.00466 4.19277 4.79824 4.12557C3.23575 3.61692 1.55115 4.47677 1.04337 6.04231C0.528406 7.63017 1.4046 9.39846 2.95661 9.9037C3.16303 9.97089 3.38659 10.0187 3.62123 10.0472C3.4481 10.2084 3.29534 10.3788 3.16774 10.5547C2.20194 11.8865 2.49768 13.7571 3.82696 14.7246C5.15561 15.6918 6.88135 15.4003 7.85028 14.0642C7.97787 13.8883 8.09237 13.69 8.19195 13.4753C8.29149 13.69 8.40603 13.8883 8.53362 14.0642C9.50385 15.4021 11.1714 15.6897 12.4972 14.7246C13.8265 13.7571 14.1223 11.8864 13.1565 10.5547C13.0289 10.3788 12.8761 10.2084 12.703 10.0472C12.9375 10.0187 13.1613 9.97084 13.3677 9.9037C14.9197 9.39849 15.7958 7.63019 15.2809 6.04231ZM8.19198 1.59088C9.31018 1.59088 10.1218 2.48767 10.1218 3.72325C10.1218 4.27936 9.90457 4.965 9.54072 5.55734C9.4967 5.62903 9.47635 5.70891 9.47765 5.78765L9.03439 6.55625C8.90183 6.49878 8.75678 6.45422 8.61199 6.42467V4.67589C8.61199 4.44037 8.42706 4.24942 8.19198 4.24942C7.95689 4.24942 7.76628 4.44037 7.76628 4.67589V6.4247C7.61808 6.45495 7.47565 6.50108 7.34031 6.56048L6.84541 5.74844C6.84044 5.68264 6.82021 5.61712 6.78347 5.55734C6.41963 4.965 6.2024 4.27936 6.2024 3.72325C6.20243 2.5076 7.05773 1.59088 8.19198 1.59088ZM3.21969 9.0925C2.12575 8.73639 1.48714 7.43424 1.85308 6.30589C2.21579 5.18764 3.41887 4.57348 4.53517 4.93677C4.99342 5.08595 5.49377 5.4215 5.91219 5.85403L6.64325 7.05361C6.52704 7.17722 6.4254 7.31463 6.34104 7.46321L4.67974 6.92246C4.45595 6.84963 4.21595 6.97228 4.14331 7.19625C4.07062 7.42027 4.19304 7.66085 4.41661 7.73365L6.07728 8.27423C6.05804 8.44542 6.05934 8.59904 6.07833 8.76232L5.01502 9.13397C4.37775 9.26799 3.71507 9.25374 3.21969 9.0925ZM7.76623 11.75C7.71119 12.4391 7.48567 13.1159 7.16154 13.5628C6.46877 14.518 5.2748 14.7242 4.32742 14.0346C3.37794 13.3435 3.16672 12.0073 3.85657 11.056C4.42021 10.2788 5.39924 9.92562 5.4735 9.87714L6.34526 9.57243C6.42378 9.70939 6.51663 9.83707 6.62242 9.95278L5.59558 11.3687C5.45738 11.5593 5.49956 11.826 5.68974 11.9644C5.87983 12.1028 6.14609 12.0607 6.28435 11.8701L7.3109 10.4545C7.45493 10.5204 7.60724 10.5712 7.7662 10.6036V11.75H7.76623ZM8.19198 9.79359C7.4878 9.79359 6.91487 9.21965 6.91487 8.51416C6.91487 7.80866 7.48777 7.23472 8.19198 7.23472C8.89615 7.23472 9.46908 7.80866 9.46908 8.51416C9.46908 9.21965 8.89615 9.79359 8.19198 9.79359ZM11.9968 14.0346C11.0184 14.7467 9.89256 14.4868 9.22239 13.5628C8.89826 13.1159 8.66706 12.4391 8.61196 11.75V10.6036C8.77092 10.5712 8.92891 10.5205 9.07294 10.4545L10.0995 11.8701C10.2377 12.0607 10.5039 12.1029 10.6941 11.9644C10.8843 11.826 10.9265 11.5593 10.7883 11.3687L9.76145 9.95283C9.86633 9.83806 9.95853 9.7116 10.0366 9.57593L10.8301 9.86232C10.9279 9.93498 11.8958 10.2674 12.4676 11.056C13.1575 12.0073 12.9463 13.3435 11.9968 14.0346ZM11.3416 9.14028L10.3051 8.76616C10.3249 8.59839 10.3257 8.44375 10.3066 8.2742L11.9673 7.73362C12.1909 7.66082 12.3132 7.42025 12.2406 7.19622C12.1679 6.97219 11.9277 6.8496 11.7042 6.92243L10.0429 7.46318C9.95702 7.31204 9.8533 7.17245 9.73454 7.04718L10.4376 5.82815C10.8508 5.40822 11.34 5.08293 11.789 4.93677C12.9052 4.57348 14.1084 5.18761 14.4711 6.30583C14.8371 7.43421 14.1984 8.73636 13.1045 9.09248H13.1045C12.6175 9.25101 11.9688 9.26711 11.3416 9.14028Z" fill="white"/>
</svg>
