<svg width="54" height="48" viewBox="0 0 54 48" fill="none" xmlns="http://www.w3.org/2000/svg">
<path d="M38.365 25.676H31.0274C29.0193 25.676 27.3862 27.309 27.3862 29.3172V34.9445C27.3862 36.9527 29.0193 38.5857 31.0274 38.5857H38.365C40.3732 38.5857 42.0062 36.9527 42.0062 34.9445V29.3172C42.0062 27.309 40.3732 25.676 38.365 25.676ZM39.3581 34.9445C39.3581 35.4962 38.9057 35.9376 38.365 35.9376H31.0274C30.4757 35.9376 30.0344 35.4852 30.0344 34.9445V29.3172C30.0344 28.7655 30.4868 28.3242 31.0274 28.3242H38.365C38.9167 28.3242 39.3581 28.7766 39.3581 29.3172V34.9445Z" fill="#6B75CA"/>
<path d="M54 15.4475C54 15.2158 53.9448 14.9951 53.8235 14.7965L45.7908 0.673069C45.5591 0.264814 45.1177 0 44.6432 0H9.34573C8.87127 0 8.42991 0.25378 8.1982 0.673069L0.176543 14.7965C0.0662035 14.9951 0 15.2158 0 15.4475C0 18.6142 1.90887 21.3286 4.63425 22.5313V45.8239C4.63425 46.5521 5.23008 47.1479 5.95832 47.1479H13.2738C13.2848 47.1479 13.2959 47.1479 13.3069 47.1479H23.5685C23.5795 47.1479 23.5905 47.1479 23.6016 47.1479H48.0307C48.7589 47.1479 49.3547 46.5521 49.3547 45.8239V22.6968C49.3547 22.6416 49.3547 22.5975 49.3437 22.5533C52.0801 21.3506 54 18.6253 54 15.4475ZM10.1181 2.65917H43.8709L50.1492 13.7041H3.85084L10.1181 2.65917ZM38.4311 16.3412C38.0119 18.7246 35.9264 20.5341 33.4217 20.5341C30.917 20.5341 28.8316 18.7246 28.4123 16.3412H38.4311ZM25.5987 16.3412C25.1794 18.7246 23.094 20.5341 20.5893 20.5341C18.0846 20.5341 15.9992 18.7246 15.5689 16.3412H25.5987ZM2.73641 16.3412H12.7662C12.347 18.7246 10.2505 20.5341 7.74581 20.5341C5.24111 20.5452 3.1557 18.7246 2.73641 16.3412ZM22.2444 44.4998H14.631V30.2109C14.631 29.1737 15.4696 28.3241 16.5178 28.3241H20.3686C21.4058 28.3241 22.2554 29.1626 22.2554 30.2109V44.4998H22.2444ZM46.7066 44.4998H24.8925V30.2109C24.8925 27.7172 22.8623 25.6759 20.3576 25.6759H16.5067C14.0131 25.6759 11.9718 27.7062 11.9718 30.2109V44.5108H7.28239V23.1823C7.43686 23.1933 7.59134 23.1933 7.74581 23.1933C10.416 23.1933 12.7773 21.8361 14.1676 19.7728C15.5578 21.8361 17.9191 23.1933 20.5893 23.1933C23.2595 23.1933 25.6097 21.8361 27.011 19.7728C28.4013 21.8361 30.7626 23.1933 33.4217 23.1933C36.0919 23.1933 38.4422 21.8361 39.8325 19.7728C41.2227 21.8361 43.584 23.1933 46.2542 23.1933C46.4087 23.1933 46.5521 23.1823 46.7066 23.1823V44.4998ZM46.2542 20.5452C43.7495 20.5452 41.6641 18.7356 41.2448 16.3523H51.2746C50.8443 18.7246 48.7589 20.5452 46.2542 20.5452Z" fill="#6B75CA"/>
</svg>
