<svg width="23" height="24" viewBox="0 0 23 24" fill="none" xmlns="http://www.w3.org/2000/svg">
<circle cx="11.1607" cy="12.0894" r="10.9375" fill="white" stroke="white" stroke-width="0.446429"/>
<path d="M5.83955 13.4549C6.78493 13.6125 7.7303 13.7438 8.67568 13.9276C9.10898 14.0064 9.31907 13.8751 9.4635 13.4812C9.67358 12.8903 9.92306 12.2995 10.1725 11.7218C10.5927 10.7239 11.3805 10.5926 12.1027 11.3935C13.3238 12.7722 14.3348 14.2953 14.9913 16.0285C15.2146 16.5931 15.5034 17.1314 15.7398 17.696C15.8448 17.9586 15.9761 18.2869 15.6347 18.4576C15.2802 18.6414 15.1489 18.3 15.0045 18.0637C14.558 17.3152 14.0853 16.5799 13.6914 15.7921C13.245 14.9124 12.6016 14.2296 11.8269 13.6256C11.5512 13.4024 11.3805 13.4287 11.1967 13.7176C10.9078 14.1509 10.5927 14.571 10.3038 15.0043C10.0544 15.372 9.7261 15.5033 9.29281 15.372C8.07169 15.0174 6.86371 14.6761 5.6426 14.3215C5.35373 14.2428 5.06486 14.1377 5.13051 13.7701C5.2093 13.4024 5.56382 13.4812 5.83955 13.4549Z" fill="#4452C5"/>
<path d="M11.9189 8.18973C11.9058 8.57051 11.7482 8.85937 11.3805 9.00381C11.3149 9.03007 11.2624 9.05633 11.1967 9.06946C9.54231 9.22702 8.00607 9.76536 6.58801 10.632C6.37792 10.7633 6.10218 10.8289 5.95775 10.54C5.81332 10.2512 6.04966 10.1068 6.23349 9.96232C7.55964 8.96442 8.93832 8.0453 10.5139 7.44131C11.2886 7.12618 11.9189 7.46757 11.9189 8.18973Z" fill="#4452C5"/>
<path d="M16.5804 10.8947C15.4512 10.6584 14.217 10.5796 13.1403 9.93621C12.7726 9.71299 12.6676 8.53127 12.9958 8.26867C13.1271 8.16363 13.2584 8.22928 13.3372 8.32119C14.2301 9.411 15.5168 9.76551 16.7774 10.1857C17.0006 10.2645 17.2894 10.3301 17.2238 10.6452C17.1713 10.9604 16.8693 10.8685 16.5804 10.8947Z" fill="#4452C5"/>
<path d="M12.7329 5.39307C13.2975 5.39307 13.7965 5.90515 13.7965 6.50914C13.8096 7.13939 13.3632 7.59895 12.7329 7.59895C12.1289 7.59895 11.6562 7.11313 11.6562 6.50914C11.6694 5.93141 12.1683 5.4062 12.7329 5.39307Z" fill="#4452C5"/>
<path d="M14.125 17.6174C14.125 18.2214 13.6523 18.7335 13.0746 18.7466C12.4837 18.7466 12.011 18.2739 12.011 17.6568C11.9979 17.0265 12.4574 16.5145 13.0352 16.5276C13.5735 16.5276 14.1119 17.0528 14.125 17.6174Z" fill="#4452C5"/>
</svg>
