<svg width="20" height="20" viewBox="0 0 20 20" fill="none" xmlns="http://www.w3.org/2000/svg">
<circle cx="10" cy="10" r="9.5" fill="white" stroke="white"/>
<path d="M14.1999 11.7097C14.4941 10.8979 14.3058 10.0038 14.7411 9.22734C14.8705 9.00381 14.7882 8.86263 14.3882 8.34499C14.4117 10.1332 13.9646 11.7685 13.5764 13.4273C13.4705 13.8626 13.3294 14.2744 12.847 14.4038C12.4705 14.5097 12.0941 14.4979 11.7999 14.2038C11.4705 13.8744 11.3294 13.4626 11.5058 13.0156C11.7999 12.2862 12.0705 11.545 12.4588 10.8744C13.2235 9.54499 13.0823 8.08616 13.2705 6.54499C12.2588 7.14499 11.3529 7.6744 10.447 8.20381C8.57641 9.30969 6.70582 10.4273 4.82347 11.5215C4.57641 11.6626 4.49406 11.8273 4.59994 12.0979C4.71759 12.392 4.77642 12.6979 4.74112 13.0156C4.72936 13.1803 4.70582 13.3332 4.52935 13.4038C4.36465 13.4626 4.23524 13.3685 4.10582 13.2626C3.43524 12.6626 3.50582 11.6862 4.28229 11.2273C6.78818 9.73322 9.30582 8.25087 11.8235 6.76852C12.3646 6.45087 12.8941 6.12146 13.4235 5.78028C13.6941 5.60381 13.9294 5.58028 14.1411 5.85087C14.9176 6.86263 15.6117 7.93322 16.2588 9.02734C16.3999 9.26264 16.4117 9.54499 16.2352 9.75675C15.6352 10.4626 14.9999 11.145 14.3764 11.8391C14.3294 11.7803 14.2588 11.745 14.1999 11.7097Z" fill="#4452C5"/>
<path d="M11.9406 10.6394C11.9523 11.4865 11.3759 12.0983 10.5876 12.0983C9.81115 12.0983 9.21115 11.51 9.19938 10.7335C9.18762 9.91002 9.81115 9.23943 10.5994 9.23943C11.3641 9.22766 11.9288 9.82766 11.9406 10.6394Z" fill="#4452C5"/>
</svg>
