<svg width="20" height="20" viewBox="0 0 20 20" fill="none" xmlns="http://www.w3.org/2000/svg">
<circle cx="10" cy="10" r="9.5" fill="white" stroke="white"/>
<path d="M10.3889 8.01833C10.1183 8.00656 9.88297 7.94774 9.64768 7.83009C7.95356 7.01833 6.25944 6.1948 4.56532 5.38303C4.48297 5.33598 4.38885 5.30068 4.3065 5.24186C4.09473 5.11245 3.88297 4.97127 3.97709 4.68892C4.08297 4.37127 4.36532 4.47715 4.57709 4.53598C5.53003 4.84186 6.49473 5.11245 7.42414 5.47715C9.61238 6.32421 11.8477 6.57127 14.1653 6.32421C14.8594 6.24186 15.5771 6.28892 16.283 6.28892C16.5065 6.28892 16.7418 6.34774 16.7418 6.63009C16.7536 6.87715 16.5536 6.9595 16.3536 6.9948C14.3653 7.33597 12.3771 7.67715 10.3889 8.01833Z" fill="#4452C5"/>
<path d="M12.3302 11.3949C12.3419 11.9361 12.0008 12.3125 11.4949 12.3361C10.989 12.3596 10.5537 11.9361 10.5537 11.4184C10.5537 10.9361 10.9772 10.5125 11.4478 10.5008C11.9655 10.489 12.3184 10.8537 12.3302 11.3949Z" fill="#4452C5"/>
<path fill-rule="evenodd" clip-rule="evenodd" d="M4.18892 15.5005H9.83598C10.8066 15.5005 11.7772 15.5034 12.7477 15.5064C13.7183 15.5093 14.6889 15.5123 15.6595 15.5123C15.7189 15.5123 15.7867 15.5193 15.8573 15.5267C16.1505 15.5574 16.4925 15.5932 16.483 15.1475C16.4735 14.7483 16.1492 14.7792 15.8698 14.8057C15.8034 14.8121 15.7395 14.8181 15.683 14.8181C14.6069 14.8005 13.5374 14.8027 12.4646 14.8049C12.1066 14.8056 11.7481 14.8064 11.3889 14.8064C11.0595 14.8064 10.7654 14.7711 10.6948 14.3475C10.6819 14.2653 10.6688 14.183 10.6557 14.1007C10.4665 12.9123 10.277 11.7226 10.5301 10.5123C10.6242 10.0417 10.4242 9.68872 9.95363 9.57108C9.48304 9.45343 9.21246 9.72402 9.08304 10.1475C9.0752 10.1789 9.06605 10.2103 9.0569 10.2417C9.0386 10.3044 9.0203 10.3672 9.01245 10.4299C8.80069 11.6299 8.71834 12.8299 8.94187 14.0417C9.07128 14.7005 8.97716 14.7828 8.28305 14.7828H4.10657C3.95363 14.7828 3.78893 14.7828 3.63598 14.7946C3.41246 14.8064 3.17716 14.8417 3.17716 15.1358C3.1654 15.4652 3.41245 15.4887 3.65951 15.5005H4.18892ZM9.98225 14.2429C9.90564 13.9921 9.82756 13.7365 9.74176 13.4886C9.70646 13.5004 9.67117 13.5122 9.6594 13.5004C9.6594 13.6102 9.6581 13.72 9.65679 13.8298C9.65417 14.0494 9.65156 14.269 9.6594 14.4886C9.6594 14.6416 9.75352 14.7592 9.91823 14.7357C10.1162 14.7124 10.0721 14.5508 10.0369 14.422L10.0359 14.418C10.018 14.36 10.0002 14.3016 9.98225 14.2429Z" fill="#4452C5"/>
</svg>
