<svg width="23" height="23" viewBox="0 0 23 23" fill="none" xmlns="http://www.w3.org/2000/svg">
<circle cx="11.161" cy="11.4105" r="11.16" fill="white"/>
<path d="M10.6934 12.6299C10.9166 12.643 11.1267 12.7087 11.3105 12.8268C12.0983 13.3389 12.886 13.8509 13.6869 14.3498C13.9364 14.5074 14.094 14.7306 14.2121 15.0063C14.7242 16.188 15.2493 17.3696 15.7614 18.5512C15.8796 18.8138 16.024 19.1289 15.6957 19.3128C15.315 19.5228 15.1574 19.1552 15.013 18.8926C14.5141 18.0523 13.9758 17.2252 13.5425 16.3324C13.0042 15.2558 11.9276 15.2558 11.0086 14.9407C10.7722 14.8619 10.5753 15.1113 10.4046 15.282C9.01287 16.7263 7.35857 17.8423 5.79617 19.0633C5.55984 19.2471 5.29725 19.5491 4.99527 19.234C4.66704 18.8926 5.00841 18.63 5.23161 18.4068C6.08502 17.5534 6.95156 16.7263 7.80497 15.886C8.57961 15.1113 9.01288 14.0741 9.72186 13.2338C9.98445 12.9187 10.2602 12.6693 10.6934 12.6299Z" fill="#4452C5"/>
<path d="M10.2734 8.4545C10.3653 7.82429 10.5754 7.32537 11.2975 7.31225C11.7833 7.29912 12.0722 7.5617 12.2297 7.99497C12.4004 8.44137 12.256 8.82213 11.8884 9.09785C11.3894 9.4786 10.9168 9.3473 10.4573 8.95342C10.5492 9.925 10.3916 10.3058 9.8533 10.3451C9.06554 10.4108 8.97363 9.76745 8.80295 9.24227C8.2909 7.693 8.42219 6.09121 8.48784 4.50255C8.50097 4.17432 8.69792 3.93799 8.92112 3.71479C9.1837 3.4522 9.48568 3.47846 9.72201 3.7673C9.94521 4.04302 9.99772 4.39752 9.66949 4.5682C9.22309 4.80453 9.30187 5.13276 9.315 5.50039C9.35439 6.55074 9.55132 7.5617 10.2734 8.4545Z" fill="#4452C5"/>
<path d="M14.2125 9.43924C14.8427 9.43924 15.486 9.41298 16.1162 9.45237C16.6283 9.47863 17.1272 9.60992 17.4161 10.0826C17.613 10.3846 17.5999 10.7259 17.3767 11.0016C17.1404 11.3167 16.8384 11.1329 16.6283 10.9754C15.6436 10.1876 14.567 10.3189 13.4641 10.5815C13.2147 10.6471 12.9521 10.7128 12.7026 10.7522C11.8886 10.8966 11.8229 10.831 11.7442 10.0038C11.7048 9.58366 11.8623 9.43924 12.2431 9.43924C12.8995 9.43924 13.556 9.43924 14.2125 9.43924Z" fill="#4452C5"/>
</svg>
