<svg width="23" height="23" viewBox="0 0 23 23" fill="none" xmlns="http://www.w3.org/2000/svg">
<circle cx="11.1607" cy="11.4107" r="10.9375" fill="white" stroke="white" stroke-width="0.446429"/>
<path d="M5.77734 7.73125C5.77734 6.95657 6.25004 6.39196 6.91969 6.30005C7.51055 6.22127 8.1014 6.61518 8.27209 7.20604C8.48218 7.92821 8.20645 8.70289 7.5368 8.88671C6.95907 9.04428 6.88029 9.34628 7.01159 9.83209C7.03785 9.91088 7.05099 10.0028 7.05099 10.0947C7.0116 11.3027 7.56306 12.1693 8.58722 12.747C8.99426 12.9702 9.03366 13.2591 8.82357 13.6661C8.65288 14.0075 8.57409 14.4014 8.48217 14.7822C8.40339 15.0711 8.29836 15.1892 8.06201 14.9266C7.43176 14.1782 6.78837 13.4298 6.18438 12.6551C5.97429 12.3925 5.94805 12.0511 5.93492 11.7229C5.86927 10.3836 6.01369 9.01802 5.77734 7.73125Z" fill="#4452C5"/>
<path d="M9.7168 15.1891C9.7168 14.3356 10.3208 13.9023 11.2662 14.1255C12.8287 14.48 14.3124 15.0446 15.8092 15.5961C16.085 15.688 16.5971 15.6749 16.5314 16.0688C16.4658 16.4102 15.9405 16.5415 15.6385 16.4627C14.6144 16.1738 13.564 16.6859 12.5529 16.3314C12.1984 16.2001 11.8702 16.4233 11.5288 16.4758C10.4915 16.6203 9.7168 16.0819 9.7168 15.1891Z" fill="#4452C5"/>
<path d="M11.738 11.8539C11.738 12.668 11.134 13.3245 10.3856 13.3245C9.55841 13.3245 8.91504 12.6811 8.91504 11.8276C8.91504 10.9741 9.5059 10.3308 10.3068 10.3308C11.1472 10.3176 11.7512 10.961 11.738 11.8539Z" fill="#4452C5"/>
</svg>
