<svg width="23" height="23" viewBox="0 0 23 23" fill="none" xmlns="http://www.w3.org/2000/svg">
<circle cx="11.1607" cy="11.4459" r="10.9375" fill="white" stroke="white" stroke-width="0.446429"/>
<path d="M12.4005 12.9377C11.9016 13.2791 11.4683 13.6468 11.2451 14.2245C10.8118 15.3406 10.3654 16.4566 9.90579 17.5727C9.80075 17.8353 9.68257 18.2161 9.27553 18.0585C8.89476 17.9141 8.9998 17.5596 9.07858 17.2576C9.40684 15.9839 9.69571 14.6972 10.1159 13.4629C10.5623 12.1499 11.5339 11.1257 12.3611 10.0228C12.5581 9.74707 12.9257 9.70768 13.2671 9.83898C13.5954 9.97028 13.8186 10.2066 13.8449 10.5743C13.8974 11.1783 13.9893 11.7954 13.963 12.3994C13.9499 12.964 14.1862 13.1872 14.7115 13.2397C15.5124 13.3185 16.3134 13.4367 17.1143 13.5286C17.4032 13.568 17.7314 13.5811 17.7052 13.975C17.692 14.3164 17.39 14.3689 17.1274 14.3952C15.8669 14.5265 14.5933 14.4871 13.3328 14.4608C12.952 14.4608 12.7682 14.172 12.6631 13.8306C12.5844 13.5548 12.6106 13.2266 12.4005 12.9377Z" fill="#4452C5"/>
<path d="M10.6667 6.33322C11.1393 5.93931 11.5989 6.00496 12.0059 6.412C12.4261 6.83217 12.8331 7.25234 13.2402 7.68563C13.6472 8.11893 13.6078 8.51284 13.1483 8.91988C11.4413 10.4167 9.74753 11.9398 8.05373 13.4498C7.39722 14.0276 6.74071 14.6184 6.08419 15.183C5.90037 15.3406 5.71655 15.4981 5.49333 15.59C5.17821 15.7345 4.87621 15.6557 4.70552 15.3406C4.54795 15.078 4.54795 14.776 4.78429 14.5528C5.07316 14.2902 5.27011 14.3558 5.37516 14.7628C5.41455 14.9073 5.55898 14.7628 5.62463 14.7103C6.68818 13.7912 7.76487 12.9115 8.77589 11.9398C9.02537 11.7035 9.06476 11.2177 9.18293 10.85C9.4718 9.98343 9.81318 9.11683 9.58996 8.17145C9.55057 8.01389 9.52432 7.81694 9.68189 7.68563C10.8242 8.70979 10.8373 8.72292 10.299 10.6399C10.8767 9.98343 11.4545 9.32692 12.0322 8.65728C12.1898 8.48658 12.1241 8.34215 11.9403 8.22397C11.7039 8.07954 11.4545 7.92198 11.205 7.77755C10.6404 7.46242 10.3647 7.00286 10.6667 6.33322Z" fill="#4452C5"/>
<path d="M10.6666 6.32035C10.509 6.43852 10.3646 6.56983 10.1939 6.67487C9.81308 6.91121 9.43232 6.84556 9.10406 6.5567C8.71015 6.21531 8.60511 5.79514 8.82833 5.30932C9.01215 4.90229 9.35353 4.70533 9.7737 4.75785C10.2201 4.81037 10.5484 5.07298 10.6403 5.53254C10.7059 5.79514 10.6666 6.07088 10.6666 6.32035C10.6666 6.32035 10.6666 6.33348 10.6666 6.32035Z" fill="#4452C5"/>
<path d="M6.47804 17.2314C6.43865 17.5465 6.29421 17.7434 5.97909 17.7172C5.67709 17.6778 5.51954 17.4808 5.5458 17.1788C5.55893 16.8768 5.74274 16.693 6.04474 16.7193C6.35986 16.7455 6.46491 16.9688 6.47804 17.2314Z" fill="#4452C5"/>
</svg>
