<svg width="90" height="90" viewBox="0 0 90 90" fill="none" xmlns="http://www.w3.org/2000/svg">
<mask id="mask0" mask-type="alpha" maskUnits="userSpaceOnUse" x="0" y="0" width="90" height="90">
<path d="M34.5 51H40.5C40.8978 51 41.2794 50.842 41.5607 50.5607C41.842 50.2794 42 49.8978 42 49.5V46.1587C41.9988 45.0562 41.5602 43.9991 40.7806 43.2194C40.0009 42.4398 38.9438 42.0012 37.8412 42H37.1587C36.0562 42.0012 34.9991 42.4398 34.2194 43.2194C33.4398 43.9991 33.0012 45.0562 33 46.1587V49.5C33 49.8978 33.158 50.2794 33.4393 50.5607C33.7206 50.842 34.1022 51 34.5 51ZM36 46.1587C36.0003 45.8515 36.1225 45.557 36.3398 45.3398C36.557 45.1225 36.8515 45.0003 37.1587 45H37.8412C38.1485 45.0003 38.443 45.1225 38.6602 45.3398C38.8775 45.557 38.9997 45.8515 39 46.1587V48H36V46.1587Z" fill="black"/>
<path d="M19.5 51H25.5C25.8978 51 26.2794 50.842 26.5607 50.5607C26.842 50.2794 27 49.8978 27 49.5V46.1587C26.9988 45.0562 26.5602 43.9991 25.7806 43.2194C25.0009 42.4398 23.9438 42.0012 22.8413 42H22.1587C21.0562 42.0012 19.9991 42.4398 19.2194 43.2194C18.4398 43.9991 18.0012 45.0562 18 46.1587V49.5C18 49.8978 18.158 50.2794 18.4393 50.5607C18.7206 50.842 19.1022 51 19.5 51ZM21 46.1587C21.0003 45.8515 21.1225 45.557 21.3398 45.3398C21.557 45.1225 21.8515 45.0003 22.1587 45H22.8413C23.1485 45.0003 23.443 45.1225 23.6602 45.3398C23.8775 45.557 23.9997 45.8515 24 46.1587V48H21V46.1587Z" fill="black"/>
<path d="M64.5 51H70.5C70.8978 51 71.2794 50.842 71.5607 50.5607C71.842 50.2794 72 49.8978 72 49.5V46.1587C71.9988 45.0562 71.5602 43.9991 70.7806 43.2194C70.0009 42.4398 68.9438 42.0012 67.8413 42H67.1587C66.0562 42.0012 64.9991 42.4398 64.2194 43.2194C63.4398 43.9991 63.0012 45.0562 63 46.1587V49.5C63 49.8978 63.158 50.2794 63.4393 50.5607C63.7206 50.842 64.1022 51 64.5 51ZM66 46.1587C66.0003 45.8515 66.1225 45.557 66.3398 45.3398C66.557 45.1225 66.8515 45.0003 67.1587 45H67.8413C68.1485 45.0003 68.443 45.1225 68.6602 45.3398C68.8775 45.557 68.9997 45.8515 69 46.1587V48H66V46.1587Z" fill="black"/>
<path d="M49.5 51H55.5C55.8978 51 56.2794 50.842 56.5607 50.5607C56.842 50.2794 57 49.8978 57 49.5V46.1587C56.9988 45.0562 56.5602 43.9991 55.7806 43.2194C55.0009 42.4398 53.9438 42.0012 52.8413 42H52.1587C51.0562 42.0012 49.9991 42.4398 49.2194 43.2194C48.4398 43.9991 48.0012 45.0562 48 46.1587V49.5C48 49.8978 48.158 50.2794 48.4393 50.5607C48.7206 50.842 49.1022 51 49.5 51ZM51 46.1587C51.0003 45.8515 51.1225 45.557 51.3398 45.3398C51.557 45.1225 51.8515 45.0003 52.1587 45H52.8413C53.1485 45.0003 53.443 45.1225 53.6602 45.3398C53.8775 45.557 53.9997 45.8515 54 46.1587V48H51V46.1587Z" fill="black"/>
<path d="M34.5 39H40.5C40.8978 39 41.2794 38.842 41.5607 38.5607C41.842 38.2794 42 37.8978 42 37.5V34.1588C41.9988 33.0562 41.5602 31.9991 40.7806 31.2194C40.0009 30.4398 38.9438 30.0012 37.8412 30H37.1587C36.0562 30.0012 34.9991 30.4398 34.2194 31.2194C33.4398 31.9991 33.0012 33.0562 33 34.1588V37.5C33 37.8978 33.158 38.2794 33.4393 38.5607C33.7206 38.842 34.1022 39 34.5 39ZM36 34.1588C36.0003 33.8515 36.1225 33.557 36.3398 33.3398C36.557 33.1225 36.8515 33.0003 37.1587 33H37.8412C38.1485 33.0003 38.443 33.1225 38.6602 33.3398C38.8775 33.557 38.9997 33.8515 39 34.1588V36H36V34.1588Z" fill="black"/>
<path d="M19.5 39H25.5C25.8978 39 26.2794 38.842 26.5607 38.5607C26.842 38.2794 27 37.8978 27 37.5V34.1588C26.9988 33.0562 26.5602 31.9991 25.7806 31.2194C25.0009 30.4398 23.9438 30.0012 22.8413 30H22.1587C21.0562 30.0012 19.9991 30.4398 19.2194 31.2194C18.4398 31.9991 18.0012 33.0562 18 34.1588V37.5C18 37.8978 18.158 38.2794 18.4393 38.5607C18.7206 38.842 19.1022 39 19.5 39ZM21 34.1588C21.0003 33.8515 21.1225 33.557 21.3398 33.3398C21.557 33.1225 21.8515 33.0003 22.1587 33H22.8413C23.1485 33.0003 23.443 33.1225 23.6602 33.3398C23.8775 33.557 23.9997 33.8515 24 34.1588V36H21V34.1588Z" fill="black"/>
<path d="M64.5 39H70.5C70.8978 39 71.2794 38.842 71.5607 38.5607C71.842 38.2794 72 37.8978 72 37.5V34.1588C71.9988 33.0562 71.5602 31.9991 70.7806 31.2194C70.0009 30.4398 68.9438 30.0012 67.8413 30H67.1587C66.0562 30.0012 64.9991 30.4398 64.2194 31.2194C63.4398 31.9991 63.0012 33.0562 63 34.1588V37.5C63 37.8978 63.158 38.2794 63.4393 38.5607C63.7206 38.842 64.1022 39 64.5 39ZM66 34.1588C66.0003 33.8515 66.1225 33.557 66.3398 33.3398C66.557 33.1225 66.8515 33.0003 67.1587 33H67.8413C68.1485 33.0003 68.443 33.1225 68.6602 33.3398C68.8775 33.557 68.9997 33.8515 69 34.1588V36H66V34.1588Z" fill="black"/>
<path d="M49.5 39H55.5C55.8978 39 56.2794 38.842 56.5607 38.5607C56.842 38.2794 57 37.8978 57 37.5V34.1588C56.9988 33.0562 56.5602 31.9991 55.7806 31.2194C55.0009 30.4398 53.9438 30.0012 52.8413 30H52.1587C51.0562 30.0012 49.9991 30.4398 49.2194 31.2194C48.4398 31.9991 48.0012 33.0562 48 34.1588V37.5C48 37.8978 48.158 38.2794 48.4393 38.5607C48.7206 38.842 49.1022 39 49.5 39ZM51 34.1588C51.0003 33.8515 51.1225 33.557 51.3398 33.3398C51.557 33.1225 51.8515 33.0003 52.1587 33H52.8413C53.1485 33.0003 53.443 33.1225 53.6602 33.3398C53.8775 33.557 53.9997 33.8515 54 34.1588V36H51V34.1588Z" fill="black"/>
<path d="M34.5 27H40.5C40.8978 27 41.2794 26.842 41.5607 26.5607C41.842 26.2794 42 25.8978 42 25.5V22.1587C41.9988 21.0562 41.5602 19.9991 40.7806 19.2194C40.0009 18.4398 38.9438 18.0012 37.8412 18H37.1587C36.0562 18.0012 34.9991 18.4398 34.2194 19.2194C33.4398 19.9991 33.0012 21.0562 33 22.1587V25.5C33 25.8978 33.158 26.2794 33.4393 26.5607C33.7206 26.842 34.1022 27 34.5 27ZM36 22.1587C36.0003 21.8515 36.1225 21.557 36.3398 21.3398C36.557 21.1225 36.8515 21.0003 37.1587 21H37.8412C38.1485 21.0003 38.443 21.1225 38.6602 21.3398C38.8775 21.557 38.9997 21.8515 39 22.1587V24H36V22.1587Z" fill="black"/>
<path d="M19.5 27H25.5C25.8978 27 26.2794 26.842 26.5607 26.5607C26.842 26.2794 27 25.8978 27 25.5V22.1587C26.9988 21.0562 26.5602 19.9991 25.7806 19.2194C25.0009 18.4398 23.9438 18.0012 22.8413 18H22.1587C21.0562 18.0012 19.9991 18.4398 19.2194 19.2194C18.4398 19.9991 18.0012 21.0562 18 22.1587V25.5C18 25.8978 18.158 26.2794 18.4393 26.5607C18.7206 26.842 19.1022 27 19.5 27ZM21 22.1587C21.0003 21.8515 21.1225 21.557 21.3398 21.3398C21.557 21.1225 21.8515 21.0003 22.1587 21H22.8413C23.1485 21.0003 23.443 21.1225 23.6602 21.3398C23.8775 21.557 23.9997 21.8515 24 22.1587V24H21V22.1587Z" fill="black"/>
<path d="M64.5 27H70.5C70.8978 27 71.2794 26.842 71.5607 26.5607C71.842 26.2794 72 25.8978 72 25.5V22.1587C71.9988 21.0562 71.5602 19.9991 70.7806 19.2194C70.0009 18.4398 68.9438 18.0012 67.8413 18H67.1587C66.0562 18.0012 64.9991 18.4398 64.2194 19.2194C63.4398 19.9991 63.0012 21.0562 63 22.1587V25.5C63 25.8978 63.158 26.2794 63.4393 26.5607C63.7206 26.842 64.1022 27 64.5 27ZM66 22.1587C66.0003 21.8515 66.1225 21.557 66.3398 21.3398C66.557 21.1225 66.8515 21.0003 67.1587 21H67.8413C68.1485 21.0003 68.443 21.1225 68.6602 21.3398C68.8775 21.557 68.9997 21.8515 69 22.1587V24H66V22.1587Z" fill="black"/>
<path d="M49.5 27H55.5C55.8978 27 56.2794 26.842 56.5607 26.5607C56.842 26.2794 57 25.8978 57 25.5V22.1587C56.9988 21.0562 56.5602 19.9991 55.7806 19.2194C55.0009 18.4398 53.9438 18.0012 52.8413 18H52.1587C51.0562 18.0012 49.9991 18.4398 49.2194 19.2194C48.4398 19.9991 48.0012 21.0562 48 22.1587V25.5C48 25.8978 48.158 26.2794 48.4393 26.5607C48.7206 26.842 49.1022 27 49.5 27ZM51 22.1587C51.0003 21.8515 51.1225 21.557 51.3398 21.3398C51.557 21.1225 51.8515 21.0003 52.1587 21H52.8413C53.1485 21.0003 53.443 21.1225 53.6602 21.3398C53.8775 21.557 53.9997 21.8515 54 22.1587V24H51V22.1587Z" fill="black"/>
<path d="M85.746 84H85.9433C86.4733 84 86.9959 83.8751 87.4687 83.6355C87.9416 83.3959 88.3513 83.0483 88.6647 82.6208C88.9782 82.1934 89.1866 81.6981 89.273 81.1751C89.3594 80.6522 89.3214 80.1162 89.1621 79.6106L85.6764 68.55C85.582 68.2495 85.3953 67.9863 85.1429 67.7979C84.8905 67.6094 84.5852 67.5052 84.2702 67.5H84.2456C83.935 67.5001 83.6321 67.5965 83.3786 67.7761C83.1252 67.9557 82.9338 68.2095 82.8307 68.5026L78.9626 79.5056C78.7837 80.0145 78.7294 80.5589 78.8042 81.0931C78.879 81.6273 79.0808 82.1358 79.3926 82.576C79.7045 83.0162 80.1172 83.3752 80.5964 83.6229C81.0756 83.8707 81.6071 84 82.1466 84H82.7466V87H78V57H81V54H78V15C78.3978 15 78.7794 14.842 79.0607 14.5607C79.342 14.2794 79.5 13.8978 79.5 13.5V9H81C81.3978 9 81.7794 8.84196 82.0607 8.56066C82.342 8.27936 82.5 7.89782 82.5 7.5V1.5C82.5 1.10218 82.342 0.720644 82.0607 0.43934C81.7794 0.158035 81.3978 0 81 0H9C8.60218 0 8.22064 0.158035 7.93934 0.43934C7.65804 0.720644 7.5 1.10218 7.5 1.5V7.5C7.5 7.89782 7.65804 8.27936 7.93934 8.56066C8.22064 8.84196 8.60218 9 9 9H10.5V13.5C10.5 13.8978 10.658 14.2794 10.9393 14.5607C11.2206 14.842 11.6022 15 12 15V54H9V57H12V87H7.5V84H7.85344C8.39285 84 8.9244 83.8706 9.40353 83.6229C9.88267 83.3751 10.2954 83.0161 10.6072 82.5759C10.919 82.1357 11.1208 81.6273 11.1956 81.093C11.2704 80.5589 11.2161 80.0145 11.0372 79.5056L7.16906 68.5026C7.06606 68.2095 6.87462 67.9557 6.62118 67.7761C6.36774 67.5965 6.0648 67.5001 5.75419 67.5H5.72962C5.41466 67.5052 5.10932 67.6094 4.85691 67.7979C4.6045 67.9863 4.41783 68.2495 4.32337 68.55L0.83775 79.6112C0.678539 80.1167 0.64063 80.6527 0.727092 81.1756C0.813555 81.6985 1.02196 82.1937 1.33542 82.6211C1.64889 83.0484 2.05861 83.396 2.53139 83.6356C3.00417 83.8751 3.52673 84 4.05675 84H4.5V87H0V90H90V87H85.746V84ZM4.05675 81C3.99789 81 3.93985 80.9861 3.88735 80.9595C3.83485 80.9329 3.78935 80.8942 3.75453 80.8468C3.71972 80.7993 3.69657 80.7443 3.68695 80.6862C3.67734 80.6282 3.68153 80.5686 3.69919 80.5125L5.83125 73.7437L8.20631 80.5003C8.22623 80.5568 8.23232 80.6172 8.22409 80.6766C8.21585 80.7359 8.19352 80.7924 8.15897 80.8413C8.12441 80.8903 8.07864 80.9302 8.02549 80.9578C7.97233 80.9854 7.91334 80.9999 7.85344 81H4.05675ZM10.5 6V3H79.5V6H10.5ZM22.5 87H15V84H22.5V87ZM34.5 87H31.5V82.5C31.5 82.1022 31.658 81.7206 31.9393 81.4393C32.2206 81.158 32.6022 81 33 81C33.3978 81 33.7794 81.158 34.0607 81.4393C34.342 81.7206 34.5 82.1022 34.5 82.5V87ZM46.5 87H43.5V82.5C43.5 82.1022 43.658 81.7206 43.9393 81.4393C44.2206 81.158 44.6022 81 45 81C45.3978 81 45.7794 81.158 46.0607 81.4393C46.342 81.7206 46.5 82.1022 46.5 82.5V87ZM58.5 87H55.5V82.5C55.5 82.1022 55.658 81.7206 55.9393 81.4393C56.2206 81.158 56.6022 81 57 81C57.3978 81 57.7794 81.158 58.0607 81.4393C58.342 81.7206 58.5 82.1022 58.5 82.5V87ZM64.5 82.5V87H61.5V82.5C61.5 81.3065 61.0259 80.1619 60.182 79.318C59.3381 78.4741 58.1935 78 57 78C55.8065 78 54.6619 78.4741 53.818 79.318C52.9741 80.1619 52.5 81.3065 52.5 82.5V87H49.5V82.5C49.5 81.3065 49.0259 80.1619 48.182 79.318C47.3381 78.4741 46.1935 78 45 78C43.8065 78 42.6619 78.4741 41.818 79.318C40.9741 80.1619 40.5 81.3065 40.5 82.5V87H37.5V82.5C37.5 81.3065 37.0259 80.1619 36.182 79.318C35.3381 78.4741 34.1935 78 33 78C31.8065 78 30.6619 78.4741 29.818 79.318C28.9741 80.1619 28.5 81.3065 28.5 82.5V87H25.5V75H64.5V82.5ZM22.5 72V69H67.5V72H22.5ZM29.427 66L30.927 63H59.073L60.573 66H29.427ZM75 87H67.5V84H75V87ZM75 81H67.5V75H69C69.3978 75 69.7794 74.842 70.0607 74.5607C70.342 74.2794 70.5 73.8978 70.5 73.5V67.5C70.5 67.1022 70.342 66.7206 70.0607 66.4393C69.7794 66.158 69.3978 66 69 66H63.927L61.3416 60.8291C61.217 60.58 61.0255 60.3705 60.7885 60.224C60.5516 60.0776 60.2785 60 60 60H30C29.7215 60 29.4484 60.0776 29.2115 60.224C28.9745 60.3705 28.783 60.58 28.6584 60.8291L26.073 66H21C20.6022 66 20.2206 66.158 19.9393 66.4393C19.658 66.7206 19.5 67.1022 19.5 67.5V73.5C19.5 73.8978 19.658 74.2794 19.9393 74.5607C20.2206 74.842 20.6022 75 21 75H22.5V81H15V57H75V81ZM75 54H15V15H75V54ZM76.5 12H13.5V9H76.5V12ZM82.1466 81C82.0866 81 82.0276 80.9856 81.9744 80.9581C81.9212 80.9305 81.8753 80.8906 81.8407 80.8417C81.8061 80.7928 81.7837 80.7364 81.7754 80.677C81.7671 80.6177 81.7731 80.5572 81.7929 80.5007L84.1687 73.7437L86.3016 80.5125C86.3192 80.5686 86.3234 80.6282 86.3138 80.6862C86.3042 80.7443 86.281 80.7993 86.2462 80.8468C86.2114 80.8942 86.1659 80.9329 86.1134 80.9595C86.0609 80.9861 86.0029 81 85.944 81H82.1466Z" fill="black"/>
</mask>
<g mask="url(#mask0)">
<rect width="90" height="90" fill="url(#paint0_linear)"/>
</g>
<defs>
<linearGradient id="paint0_linear" x1="90" y1="90" x2="10.0432" y2="-8.17918" gradientUnits="userSpaceOnUse">
<stop stop-color="#64E0B9"/>
<stop offset="0.930911" stop-color="#4451C4"/>
</linearGradient>
</defs>
</svg>
