<svg width="51" height="51" viewBox="0 0 51 51" fill="none" xmlns="http://www.w3.org/2000/svg">
<path d="M25.9941 39.7192H25.0059C24.4536 39.7192 24.0059 40.167 24.0059 40.7192V42.9693C24.0059 43.5216 24.4536 43.9693 25.0059 43.9693H25.9941C26.5464 43.9693 26.9941 43.5216 26.9941 42.9693V40.7192C26.9941 40.167 26.5464 39.7192 25.9941 39.7192Z" fill="#6B75CA"/>
<path d="M25.9941 30.7544H25.0059C24.4536 30.7544 24.0059 31.2021 24.0059 31.7544V34.0044C24.0059 34.5567 24.4536 35.0044 25.0059 35.0044H25.9941C26.5464 35.0044 26.9941 34.5567 26.9941 34.0044V31.7544C26.9941 31.2021 26.5464 30.7544 25.9941 30.7544Z" fill="#6B75CA"/>
<path d="M25.9941 21.7896H25.0059C24.4536 21.7896 24.0059 22.2373 24.0059 22.7896V25.0396C24.0059 25.5919 24.4536 26.0396 25.0059 26.0396H25.9941C26.5464 26.0396 26.9941 25.5919 26.9941 25.0396V22.7896C26.9941 22.2373 26.5464 21.7896 25.9941 21.7896Z" fill="#6B75CA"/>
<path d="M25.9941 12.8247H25.0059C24.4536 12.8247 24.0059 13.2724 24.0059 13.8247V16.0747C24.0059 16.627 24.4536 17.0747 25.0059 17.0747H25.9941C26.5464 17.0747 26.9941 16.627 26.9941 16.0747V13.8247C26.9941 13.2724 26.5464 12.8247 25.9941 12.8247Z" fill="#6B75CA"/>
<path d="M33.4321 39.7192H32.4438C31.8916 39.7192 31.4438 40.167 31.4438 40.7192V42.9693C31.4438 43.5216 31.8916 43.9693 32.4438 43.9693H33.4321C33.9844 43.9693 34.4321 43.5216 34.4321 42.9693V40.7192C34.4321 40.167 33.9844 39.7192 33.4321 39.7192Z" fill="#6B75CA"/>
<path d="M33.4321 30.7544H32.4438C31.8916 30.7544 31.4438 31.2021 31.4438 31.7544V34.0044C31.4438 34.5567 31.8916 35.0044 32.4438 35.0044H33.4321C33.9844 35.0044 34.4321 34.5567 34.4321 34.0044V31.7544C34.4321 31.2021 33.9844 30.7544 33.4321 30.7544Z" fill="#6B75CA"/>
<path d="M33.4321 21.7896H32.4438C31.8916 21.7896 31.4438 22.2373 31.4438 22.7896V25.0396C31.4438 25.5919 31.8916 26.0396 32.4438 26.0396H33.4321C33.9844 26.0396 34.4321 25.5919 34.4321 25.0396V22.7896C34.4321 22.2373 33.9844 21.7896 33.4321 21.7896Z" fill="#6B75CA"/>
<path d="M33.4321 12.8247H32.4438C31.8916 12.8247 31.4438 13.2724 31.4438 13.8247V16.0747C31.4438 16.627 31.8916 17.0747 32.4438 17.0747H33.4321C33.9844 17.0747 34.4321 16.627 34.4321 16.0747V13.8247C34.4321 13.2724 33.9844 12.8247 33.4321 12.8247Z" fill="#6B75CA"/>
<path d="M18.5562 39.7192H17.5679C17.0156 39.7192 16.5679 40.167 16.5679 40.7192V42.9693C16.5679 43.5216 17.0156 43.9693 17.5679 43.9693H18.5562C19.1084 43.9693 19.5562 43.5216 19.5562 42.9693V40.7192C19.5562 40.167 19.1084 39.7192 18.5562 39.7192Z" fill="#6B75CA"/>
<path d="M18.5562 30.7544H17.5679C17.0156 30.7544 16.5679 31.2021 16.5679 31.7544V34.0044C16.5679 34.5567 17.0156 35.0044 17.5679 35.0044H18.5562C19.1084 35.0044 19.5562 34.5567 19.5562 34.0044V31.7544C19.5562 31.2021 19.1084 30.7544 18.5562 30.7544Z" fill="#6B75CA"/>
<path d="M18.5562 21.7896H17.5679C17.0156 21.7896 16.5679 22.2373 16.5679 22.7896V25.0396C16.5679 25.5919 17.0156 26.0396 17.5679 26.0396H18.5562C19.1084 26.0396 19.5562 25.5919 19.5562 25.0396V22.7896C19.5562 22.2373 19.1084 21.7896 18.5562 21.7896Z" fill="#6B75CA"/>
<path d="M18.5562 12.8247H17.5679C17.0156 12.8247 16.5679 13.2724 16.5679 13.8247V16.0747C16.5679 16.627 17.0156 17.0747 17.5679 17.0747H18.5562C19.1084 17.0747 19.5562 16.627 19.5562 16.0747V13.8247C19.5562 13.2724 19.1084 12.8247 18.5562 12.8247Z" fill="#6B75CA"/>
<path d="M46.9658 45.6074C46.9658 45.1594 47.2683 44.7745 47.6788 44.5951C49.6316 43.7414 51 41.7923 51 39.5284C51 38.7486 50.7678 37.3357 48.7604 34.0817C47.7297 32.411 46.7134 31.0411 46.6707 30.9835L46.2741 30.4502C45.8743 29.9125 45.0691 29.9125 44.6692 30.4502L44.2727 30.9835C44.2299 31.0411 43.2136 32.411 42.183 34.0817C41.9454 34.4669 41.3201 34.3008 41.3201 33.8483V6.94339C41.3201 6.39111 40.8723 5.94339 40.3201 5.94339H38.6013C38.0491 5.94339 37.6013 5.49568 37.6013 4.94339V1C37.6013 0.447716 37.1536 0 36.6013 0H14.3987C13.8464 0 13.3987 0.447715 13.3987 1V4.94339C13.3987 5.49568 12.9509 5.94339 12.3987 5.94339H10.6799C10.1277 5.94339 9.67994 6.39111 9.67994 6.94339V33.8482C9.67994 34.3007 9.05457 34.4668 8.81702 34.0816C7.78637 32.4109 6.77005 31.041 6.72732 30.9834L6.33079 30.4502C5.93094 29.9124 5.12572 29.9125 4.72588 30.4502L4.32932 30.9835C4.28659 31.0411 3.27028 32.411 2.23962 34.0817C0.232189 37.3357 0 38.7486 0 39.5283C0 41.7922 1.36839 43.7414 3.32116 44.595C3.7317 44.7744 4.03418 45.1593 4.03418 45.6073V47.0117C4.03418 47.564 3.58646 48.0117 3.03418 48.0117H1C0.447715 48.0117 0 48.4594 0 49.0117V50C0 50.5523 0.447715 51 1 51H50C50.5523 51 51 50.5523 51 50V49.0117C51 48.4594 50.5523 48.0117 50 48.0117H47.9658C47.4135 48.0117 46.9658 47.564 46.9658 47.0117V45.6074ZM2.98828 39.5283C2.98828 38.8887 3.72724 37.3844 4.71802 35.7549C5.09028 35.1427 5.96637 35.1427 6.33862 35.7549C7.32945 37.3845 8.06836 38.8887 8.06836 39.5283C8.06836 40.9289 6.92893 42.0683 5.52832 42.0683C4.12771 42.0683 2.98828 40.9289 2.98828 39.5283ZM9.67994 47.0117C9.67994 47.564 9.23222 48.0117 8.67994 48.0117H8.02246C7.47018 48.0117 7.02246 47.564 7.02246 47.0117V45.5577C7.02246 45.1391 7.31319 44.7761 7.69801 44.6113C8.4901 44.272 9.67994 44.7894 9.67994 45.6511V47.0117ZM16.3869 3.98828C16.3869 3.436 16.8347 2.98828 17.3869 2.98828H33.6131C34.1654 2.98828 34.6131 3.436 34.6131 3.98828V4.94339C34.6131 5.49568 34.1654 5.94339 33.6131 5.94339H17.3869C16.8347 5.94339 16.3869 5.49568 16.3869 4.94339V3.98828ZM38.3318 47.0117C38.3318 47.564 37.8841 48.0117 37.3318 48.0117H13.6682C13.1159 48.0117 12.6682 47.564 12.6682 47.0117V9.93167C12.6682 9.37939 13.1159 8.93167 13.6682 8.93167H37.3318C37.8841 8.93167 38.3318 9.37939 38.3318 9.93167V47.0117ZM43.9775 47.0117C43.9775 47.564 43.5298 48.0117 42.9775 48.0117H42.3201C41.7678 48.0117 41.3201 47.564 41.3201 47.0117V45.6511C41.3201 44.7894 42.5099 44.2719 43.302 44.6113C43.6868 44.7761 43.9775 45.139 43.9775 45.5577V47.0117ZM42.9316 39.5283C42.9316 38.8887 43.6706 37.3844 44.6614 35.7549C45.0336 35.1427 45.9097 35.1427 46.282 35.7549C47.2728 37.3845 48.0117 38.8887 48.0117 39.5283C48.0117 40.9289 46.8723 42.0683 45.4717 42.0683C44.0711 42.0683 42.9316 40.9289 42.9316 39.5283Z" fill="#6B75CA"/>
</svg>
