<svg width="20" height="20" viewBox="0 0 20 20" fill="none" xmlns="http://www.w3.org/2000/svg">
<circle cx="10" cy="10" r="9.5" fill="white" stroke="white"/>
<path d="M4.9423 10.9265C4.93054 10.5383 5.03642 10.3618 5.1423 10.1618C5.49524 9.49125 5.88347 8.82067 6.21288 8.13831C6.41288 7.72655 6.60112 7.71478 6.89524 8.03243C6.9423 8.09125 7.01289 8.13831 7.08347 8.1736C7.76583 8.62066 8.09525 9.17361 7.64819 9.98537C7.29525 10.6207 7.76583 11.0442 8.08347 11.4913C8.22465 11.6913 8.40113 11.5736 8.53054 11.456C8.91877 11.103 9.30701 10.7736 9.53054 10.2677C10.2717 8.63243 10.4364 8.6089 11.9188 9.59713C12.0599 9.69125 12.2129 9.79713 12.3541 9.89125C13.2011 10.4324 13.1894 10.4324 12.3658 11.0324C11.9188 11.3618 11.4717 11.5854 10.9188 11.256C10.6599 11.0913 10.4717 11.256 10.2599 11.4442C9.76583 11.8795 9.33054 12.4324 8.5423 12.3854C8.24818 12.3736 8.40113 12.6324 8.45995 12.7854C8.51878 12.9383 8.5776 13.103 8.41289 13.2089C8.21289 13.3383 8.08347 13.1854 7.96583 13.056C7.88347 12.9736 7.82465 12.8677 7.7423 12.7854C7.24818 12.1501 6.68348 11.6677 5.8129 11.6442C5.30701 11.6089 4.95407 11.3265 4.9423 10.9265Z" fill="#4452C5"/>
<path d="M9.02484 16.3855C8.86014 16.3855 8.75426 16.3973 8.66014 16.3855C8.5072 16.3738 8.3072 16.3973 8.3072 16.1738C8.29543 16.0091 8.47191 15.9502 8.60132 15.9385C9.20132 15.8796 9.36602 15.4561 9.43661 14.962C9.60131 13.6326 10.2013 12.6326 11.4131 11.9855C11.9778 11.6796 12.4837 11.2561 12.9778 10.8444C13.4366 10.4679 13.7307 10.8091 14.0719 10.9973C14.4248 11.1855 14.2484 11.3973 14.119 11.6326C14.0131 11.8208 14.119 12.0091 14.1895 12.1973C14.4601 12.9738 14.6484 13.7855 15.0131 14.5149C15.2954 15.0914 15.0484 15.5973 15.0601 16.1385C15.0601 16.3267 14.8954 16.3973 14.719 16.3973C14.4484 16.3973 14.166 16.4914 13.9307 16.3032C13.8366 16.2208 13.8954 16.0914 13.9896 16.0561C14.4366 15.8679 14.2131 15.5973 14.0837 15.3385C13.766 14.7267 13.4366 14.1267 13.119 13.5149C12.9778 13.2444 12.8484 13.1502 12.4837 13.3149C11.566 13.7267 10.8366 14.2561 10.5778 15.2914C10.519 15.5502 10.3778 15.8091 10.0131 15.7855C9.94249 15.7855 9.8366 15.8796 9.80131 15.962C9.6719 16.3855 9.33073 16.4208 9.02484 16.3855Z" fill="#4452C5"/>
<path d="M9.2246 7.02053C10.0481 7.10289 10.4246 6.64406 10.8481 6.32642C11.5422 5.80877 12.507 5.797 13.1658 6.31465C13.2834 6.40877 13.4599 6.49112 13.3658 6.67936C13.2834 6.8323 13.107 6.797 13.0011 6.73818C12.5422 6.47936 12.2364 6.71465 11.9305 7.0323C11.6481 7.32642 11.3305 7.597 11.0599 7.90289C10.307 8.72642 9.24813 8.6323 8.28343 8.80877C8.10696 8.84406 7.96577 8.66759 7.83636 8.54995C7.56577 8.29112 7.29518 8.0323 7.02459 7.78524C6.85989 7.6323 6.57753 7.50289 6.74224 7.22053C6.89518 6.96171 6.94225 6.65583 7.41284 6.60877C8.05989 6.53818 8.54224 6.02053 8.71872 5.40877C8.90695 4.74994 9.25989 4.24406 9.73048 3.78524C9.91871 3.597 10.154 3.60877 10.3893 3.56171C10.554 3.52642 10.7893 3.47936 10.8599 3.66759C10.954 3.91465 10.6952 3.93818 10.554 3.997C10.2599 4.11465 10.1422 4.32642 10.0952 4.62053C10.0364 4.97347 9.96577 5.31465 9.90695 5.66759C9.81283 6.12642 9.76578 6.60877 9.2246 7.02053Z" fill="#4452C5"/>
<path d="M7.13014 12.7382C7.13014 13.2441 6.82426 13.5617 6.35367 13.5617C5.89485 13.5617 5.56543 13.2088 5.56543 12.7264C5.56543 12.2558 5.90661 11.8911 6.35367 11.8911C6.8125 11.9029 7.13014 12.2558 7.13014 12.7382Z" fill="#4452C5"/>
<path d="M8.684 10.6209C8.22518 10.6209 7.89577 10.2562 7.90753 9.77381C7.9193 9.29146 8.27224 8.93852 8.7193 8.96205C9.14283 8.97381 9.47224 9.32675 9.47224 9.78558C9.47224 10.2562 9.13106 10.6209 8.684 10.6209Z" fill="#4452C5"/>
</svg>
