<svg width="12" height="15" viewBox="0 0 12 15" fill="none" xmlns="http://www.w3.org/2000/svg">
<path d="M9.945 0.454124C9.83728 0.329585 9.67078 0.273122 9.50971 0.306391C8.23799 0.569185 7.04055 1.16652 6.04895 2.04962C5.06116 1.17013 3.86403 0.570153 2.58768 0.306391C2.42663 0.27315 2.26014 0.329585 2.15239 0.454124C-0.0815905 3.03645 -0.322317 6.76247 1.45731 9.59822C2.33243 10.9926 3.81744 11.6133 5.34944 11.3421C5.45978 12.3592 5.4758 13.3691 5.39634 14.3621C5.37518 14.6267 5.5836 14.8539 5.8499 14.8539C6.08446 14.8539 6.2834 14.6732 6.30246 14.4348C6.38709 13.3772 6.36945 12.3024 6.2507 11.2207C7.89974 11.7366 9.65419 11.169 10.6401 9.59819C12.4203 6.76159 12.1783 3.03562 9.945 0.454124ZM2.2269 9.11344C0.700984 6.68216 0.862595 3.52285 2.66682 1.25836C5.50139 1.96819 7.44842 4.43096 7.67049 7.24283C7.78685 8.71638 6.97473 9.67025 6.09773 10.1341C5.88018 8.86761 5.53347 7.64522 5.08033 6.44369L5.59815 4.97544C5.68178 4.73832 5.5577 4.4782 5.321 4.39442C5.08426 4.3106 4.82464 4.43494 4.74103 4.67207L4.56164 5.18075C4.29972 4.59121 4.00976 4.00028 3.69217 3.40969C3.57314 3.18831 3.29747 3.10552 3.07646 3.22476C2.85545 3.34404 2.77284 3.62021 2.89187 3.84159C3.64316 5.23875 4.23384 6.63483 4.6547 8.00623L3.69935 7.67567C3.46212 7.5936 3.2033 7.7197 3.12134 7.95742C3.03939 8.19512 3.16532 8.45438 3.40258 8.53649L4.94835 9.07135C5.06011 9.52838 5.15184 9.97747 5.22698 10.4391C4.06181 10.6602 2.9178 10.2143 2.2269 9.11344ZM9.87049 9.11344C9.25581 10.0929 8.27597 10.5671 7.20673 10.4839C8.21072 9.65514 8.67808 8.45452 8.57672 7.171C8.44781 5.53863 7.79807 3.95466 6.69113 2.69604C7.4795 2.00485 8.42147 1.51105 9.43057 1.25833C11.2444 3.53486 11.3879 6.69582 9.87049 9.11344Z" fill="white"/>
</svg>
