<svg width="96" height="36" viewBox="0 0 96 36" fill="none" xmlns="http://www.w3.org/2000/svg">
<path d="M12.0287 7.67273C13.8614 7.67273 14.745 9.44 14.745 10.8473C14.745 12.2873 13.7632 14.0218 11.8978 14.0218H7.67595V7.67273H12.0287ZM2.86504 26H7.67595V18.2109H12.1269C17.265 18.2109 19.556 14.6109 19.556 10.8473C19.556 7.14909 17.265 3.45091 12.1269 3.45091H2.86504V26Z" fill="#4452C5"/>
<path d="M43.5412 7.67273C45.3739 7.67273 46.2575 9.44 46.2575 10.8473C46.2575 12.2873 45.2757 14.0218 43.4103 14.0218H39.3521V7.67273H43.5412ZM45.6357 18.0145C49.4975 17.2291 51.2648 14.0218 51.2648 10.8473C51.2648 7.14909 48.8757 3.45091 43.7703 3.45091H34.5412V26H39.3521V18.2109H40.4321L45.4721 26H51.2321L45.6357 18.0145ZM55.3792 3.45091V26H60.1574V3.45091H55.3792ZM81.0904 18.7018C79.8794 20.5345 77.8176 21.8109 75.4613 21.8109C71.6976 21.8109 68.9485 18.6691 68.9485 14.7745C68.9485 10.8473 71.6976 7.70545 75.4613 7.70545C77.8176 7.70545 79.7485 8.85091 80.9594 10.6509L84.854 7.96727C82.8904 5.08727 79.5194 3.18909 75.4613 3.18909C69.0467 3.18909 64.1376 8.39273 64.1376 14.7745C64.1376 21.1236 69.0467 26.3273 75.4613 26.3273C79.5522 26.3273 82.9885 24.3964 84.9522 21.3855L81.0904 18.7018ZM88.3302 3.45091V26H93.1084V3.45091H88.3302Z" fill="#4452C5"/>
<path d="M25.6626 7.74745C25.9184 7.74745 26.1261 7.94792 26.1261 8.19489C26.1261 8.44186 25.9184 8.64233 25.6626 8.64233C25.4069 8.64233 25.1992 8.44186 25.1992 8.19489C25.1992 7.94792 25.4069 7.74745 25.6626 7.74745Z" fill="#4452C5"/>
<path d="M20.1001 3.27284L22.8807 3.27284C23.1366 3.27284 23.3441 3.47314 23.3441 3.72028C23.3441 4.95389 24.3835 5.95749 25.6612 5.95749C26.9389 5.95749 27.9783 4.95389 27.9783 3.72028C27.9783 3.47314 28.1858 3.27284 28.4417 3.27284L31.2223 3.27284C31.3772 3.27284 31.5219 3.34765 31.6078 3.47209C31.6938 3.59654 31.7096 3.75436 31.65 3.89244C30.5927 6.34359 29.9672 7.78939 29.7991 8.18457L30.7015 9.76879C30.7804 9.9074 30.7777 10.0761 30.6944 10.2122C30.6109 10.3484 30.4592 10.4319 30.2954 10.4319L28.9338 10.4319C28.5815 11.4519 28.275 12.4952 28.0208 13.5404L28.8563 15.1537C28.9281 15.2924 28.9204 15.4571 28.836 15.589C28.7515 15.721 28.6023 15.8012 28.4417 15.8012L27.5513 15.8012C27.256 17.5366 27.079 19.5477 27.0545 21.4392C27.1961 21.44 27.3295 21.5033 27.4168 21.6112C27.5046 21.7197 27.5355 21.8613 27.5009 21.995L27.0375 23.7847C26.9861 23.984 26.8007 24.1237 26.588 24.1237L26.1246 24.1237L26.1246 25.7344C26.1246 25.9816 25.9172 26.1819 25.6612 26.1819C25.4052 26.1819 25.1978 25.9816 25.1978 25.7344L25.1978 24.1237L24.7343 24.1237C24.5216 24.1237 24.3365 23.984 24.2847 23.7847L23.8213 21.995C23.7867 21.8613 23.8178 21.7197 23.9056 21.611C23.9929 21.5033 24.1263 21.44 24.2679 21.4392C24.2434 19.5477 24.0664 17.5366 23.7711 15.8012L22.8807 15.8012C22.7201 15.8012 22.5709 15.7208 22.4864 15.589C22.402 15.4571 22.3944 15.2924 22.4661 15.1537L23.3015 13.5404C23.0474 12.4952 22.7409 11.4519 22.3886 10.4319L21.027 10.4319C20.8631 10.4319 20.7114 10.3484 20.628 10.2122C20.5447 10.0761 20.542 9.90739 20.6209 9.76879L21.5235 8.18439C21.3863 7.86244 20.6351 6.12423 19.6724 3.89227C19.6128 3.75419 19.6286 3.59654 19.7145 3.47209C19.8005 3.34765 19.9452 3.27284 20.1001 3.27284V3.27284ZM25.0962 23.2288L26.2262 23.2288L26.4579 22.3339L24.8645 22.3339L25.0962 23.2288ZM25.1947 21.439L26.1277 21.439C26.1516 19.5531 26.3245 17.5496 26.613 15.8012L24.7094 15.8012C24.9979 17.5496 25.171 19.5531 25.1947 21.439ZM27.6919 14.9063L27.2285 14.0115L24.0939 14.0115L23.6305 14.9063L27.6919 14.9063ZM24.15 13.1166L27.1724 13.1166C27.3979 12.2149 27.6612 11.3156 27.958 10.4319L27.0515 10.4319L27.0515 10.8794C27.0515 11.6196 26.4278 12.2217 25.6612 12.2217C24.8946 12.2217 24.2709 11.6196 24.2709 10.8794L24.2709 10.4319L23.3644 10.4319C23.6612 11.3156 23.9244 12.2149 24.15 13.1166ZM25.1978 10.4319L25.1978 10.8794C25.1978 11.1262 25.4056 11.3268 25.6612 11.3268C25.9168 11.3268 26.1246 11.1262 26.1246 10.8794L26.1246 10.4319L25.1978 10.4319ZM22.3394 7.74726L23.8075 7.74726C24.0635 7.74726 24.2709 7.94756 24.2709 8.1947C24.2709 8.44185 24.0635 8.64215 23.8075 8.64215L22.3206 8.64215L21.8108 9.53756C22.7997 9.53738 28.3375 9.53738 29.5116 9.53756L29.0018 8.64215L27.5149 8.64215C27.2589 8.64215 27.0515 8.44185 27.0515 8.1947C27.0515 7.94756 27.2589 7.74726 27.5149 7.74726L28.983 7.74726C29.118 7.43265 30.0923 5.17587 30.5271 4.16772L28.8715 4.16772C28.6459 5.68361 27.2926 6.85238 25.6612 6.85238C24.0298 6.85238 22.6765 5.68361 22.4509 4.16772L20.7953 4.16772C21.3845 5.53347 22.1982 7.41797 22.3394 7.74726Z" fill="#4452C5"/>
</svg>
