<svg width="31" height="60" viewBox="0 0 31 60" fill="none" xmlns="http://www.w3.org/2000/svg">
<path d="M15.2344 48.2812C15.8812 48.2812 16.4062 47.7562 16.4062 47.1094C16.4062 46.4626 15.8812 45.9375 15.2344 45.9375C14.5876 45.9375 14.0625 46.4626 14.0625 47.1094C14.0625 47.7562 14.5876 48.2812 15.2344 48.2812Z" fill="#6B75CA"/>
<path d="M1.17184 60H8.20308C8.85036 60 9.37496 59.4754 9.37496 58.8281C9.37496 55.5972 12.0034 52.9688 15.2343 52.9688C18.4652 52.9688 21.0937 55.5972 21.0937 58.8281C21.0937 59.4754 21.6183 60 22.2656 60H29.2968C29.6887 60 30.0544 59.8041 30.2719 59.4781C30.4893 59.1522 30.5291 58.7389 30.3785 58.3772C27.7047 51.9576 26.1232 48.1709 25.6979 47.1359L27.9798 42.9868C28.1794 42.6237 28.1726 42.182 27.962 41.8254C27.751 41.4688 27.3674 41.25 26.9531 41.25H23.5098C22.619 38.5785 21.844 35.8461 21.2013 33.1087L23.3139 28.8835C23.4956 28.5201 23.4759 28.0888 23.2626 27.7432C23.0488 27.3976 22.6716 27.1875 22.2656 27.1875H20.0138C19.2672 22.6424 18.8195 17.3753 18.7577 12.4214C19.1157 12.4191 19.4531 12.2534 19.6737 11.971C19.8957 11.6867 19.974 11.3159 19.8866 10.9657L18.7147 6.27823C18.5847 5.75638 18.116 5.39062 17.5781 5.39062H16.4062V1.17188C16.4062 0.524597 15.8816 0 15.2343 0C14.5871 0 14.0625 0.524597 14.0625 1.17188V5.39062H12.8906C12.3527 5.39062 11.8844 5.75638 11.7535 6.27823L10.5816 10.9657C10.4942 11.3159 10.5729 11.6867 10.7949 11.9714C11.0156 12.2534 11.353 12.4191 11.7109 12.4214C11.6491 17.3753 11.2014 22.6424 10.4548 27.1875H8.20308C7.79705 27.1875 7.41985 27.3981 7.20608 27.7432C6.99276 28.0888 6.97353 28.5201 7.15481 28.8835L9.26739 33.1087C8.62469 35.8461 7.84969 38.5785 6.95888 41.25H3.51559C3.10131 41.25 2.7177 41.4688 2.50667 41.8254C2.2961 42.182 2.28924 42.6237 2.48882 42.9868L4.77123 47.1364C4.42425 47.9796 2.52453 52.532 0.0901395 58.3777C-0.0604647 58.7393 -0.0206392 59.1522 0.196799 59.4781C0.414236 59.8041 0.779989 60 1.17184 60ZM13.8057 7.73438H16.663L17.249 10.0781H13.2197L13.8057 7.73438ZM14.0547 12.4219H16.414C16.4744 17.3611 16.9116 22.6085 17.6413 27.1875H12.8274C13.5571 22.6085 13.9947 17.3611 14.0547 12.4219ZM20.3695 29.5312L19.1977 31.875H11.271L10.0991 29.5312H20.3695ZM11.4129 34.2188H19.0557C19.6261 36.5804 20.2917 38.9355 21.0424 41.25H18.75V40.0781C18.75 38.1395 17.173 36.5625 15.2343 36.5625C13.2957 36.5625 11.7187 38.1395 11.7187 40.0781V41.25H9.42623C10.177 38.9355 10.8426 36.5804 11.4129 34.2188ZM14.0625 41.25V40.0781C14.0625 39.4318 14.588 38.9062 15.2343 38.9062C15.8807 38.9062 16.4062 39.4318 16.4062 40.0781V41.25H14.0625ZM6.83437 48.2812H10.5468C11.1941 48.2812 11.7187 47.7567 11.7187 47.1094C11.7187 46.4621 11.1941 45.9375 10.5468 45.9375H6.78676L5.4977 43.5924C7.99847 43.5928 22.0019 43.5928 24.971 43.5924L23.6819 45.9375H19.9218C19.2746 45.9375 18.75 46.4621 18.75 47.1094C18.75 47.7567 19.2746 48.2812 19.9218 48.2812H23.6343C23.9758 49.1052 26.4395 55.0159 27.539 57.6562H23.3523C22.7819 53.6861 19.3597 50.625 15.2343 50.625C11.109 50.625 7.68673 53.6861 7.11635 57.6562H2.92965C4.41967 54.0793 6.47732 49.1437 6.83437 48.2812Z" fill="#6B75CA"/>
</svg>
