<svg width="20" height="20" viewBox="0 0 20 20" fill="none" xmlns="http://www.w3.org/2000/svg">
<circle cx="10" cy="10" r="9.5" fill="white" stroke="white"/>
<path d="M15.2017 5.71484C15.1899 6.1619 14.8017 6.57367 14.3899 6.5619C13.9429 6.55014 13.5429 6.11484 13.5664 5.65602C13.5899 5.1972 13.9664 4.87955 14.4488 4.90308C14.8841 4.91485 15.2017 5.26779 15.2017 5.71484Z" fill="#4452C5"/>
<path fill-rule="evenodd" clip-rule="evenodd" d="M9.395 6.38874C9.36931 6.62212 9.34358 6.85594 9.31925 7.09116C8.6369 6.38527 7.94278 5.90292 7.0016 6.0441C5.61337 6.22057 4.77807 7.27939 4.82513 8.71469C4.87219 9.92645 5.80161 10.9382 6.97808 11.0441C8.24867 11.15 9.28396 10.3029 9.56631 8.90292C9.61337 8.65586 9.66042 8.4441 9.88395 8.30292C10.1663 8.11469 10.3898 7.89116 10.5428 7.57351C10.3965 8.5076 10.2071 9.40939 10.0159 10.3201C10.0072 10.3614 9.99852 10.4027 9.98984 10.4441C9.98711 10.4605 9.98417 10.4772 9.98119 10.494C9.94573 10.6949 9.9058 10.9211 10.1663 10.997C10.4722 11.1029 10.5663 10.8559 10.6487 10.6206C10.8075 10.1912 10.9663 9.75885 11.1251 9.32652C11.2839 8.89415 11.4428 8.46177 11.6016 8.03233C11.7075 7.72645 11.7428 7.42057 11.6722 7.10292L11.1428 4.87939C11.0251 4.42057 10.7898 4.05586 10.2604 4.12645C9.75454 4.19704 9.56631 4.57351 9.53101 5.05586C9.49247 5.503 9.44382 5.94508 9.395 6.38874ZM6.71919 10.4089C7.75448 10.6677 8.60154 10.1383 9.02507 8.85593C8.49566 9.1971 8.06037 9.46769 7.62507 9.71475C7.41331 9.84416 7.2133 9.86769 7.06036 9.6324C6.93095 9.42063 7.03683 9.26769 7.20154 9.12652C7.3364 9.01025 7.46943 8.89215 7.60208 8.77439C7.80499 8.59425 8.007 8.4149 8.21331 8.24416C8.94272 7.65593 8.89566 7.22063 8.0486 6.78534C7.82507 6.66769 7.57801 6.59711 7.31919 6.58534C6.36624 6.53828 5.47213 7.27946 5.34272 8.2324C5.2133 9.24416 5.81331 10.1853 6.71919 10.4089Z" fill="#4452C5"/>
<path fill-rule="evenodd" clip-rule="evenodd" d="M9.69548 13.55C9.82489 14.8206 10.8837 15.8324 12.1072 15.8559C13.0249 15.8794 14.0014 15.1853 14.2955 14.2912C14.719 13.0794 14.4131 11.9147 13.3778 11.2324C12.9265 10.9315 13.0138 10.622 13.1077 10.2894C13.124 10.2319 13.1404 10.1737 13.1543 10.1147C13.2469 9.7095 13.556 9.77144 13.8462 9.82958C13.8508 9.83051 13.8555 9.83145 13.8602 9.83238C14.0249 9.86767 14.1778 9.87944 14.2955 9.73826C14.4249 9.57355 14.3543 9.39709 14.2602 9.24415L14.2602 9.24411C14.0249 8.85589 13.7896 8.46766 13.519 8.11473C13.2484 7.75003 13.1308 7.37356 13.2014 6.91473C13.2719 6.4912 13.3072 6.05591 13.2955 5.63238C13.2837 5.25591 13.0719 4.99709 12.6837 4.95003C12.3425 4.91473 12.0484 5.10297 12.0484 5.42062C12.0484 5.52266 12.0475 5.62504 12.0466 5.72753C12.0383 6.67664 12.03 7.63487 12.7308 8.42061C12.7651 8.45968 12.8018 8.49813 12.8382 8.53633C13.0761 8.78577 13.3044 9.02513 12.8249 9.36179C12.719 9.44415 12.6837 9.67944 12.6719 9.85591C12.6131 10.5147 12.2955 10.7971 11.6131 10.903C10.4249 11.0794 9.57783 12.35 9.69548 13.55ZM11.5662 11.4676C10.7897 11.7146 10.2721 12.444 10.2721 13.3029C10.2603 14.2205 10.8603 15.0323 11.7074 15.2205C12.5427 15.4088 13.3897 15.0088 13.7662 14.2323C14.178 13.3852 13.9662 12.3264 13.2838 11.7735C12.9897 11.5382 12.8132 11.5499 12.7309 11.9617C12.6741 12.2551 12.5945 12.5486 12.5165 12.8359C12.4975 12.9057 12.4787 12.9751 12.4603 13.044C12.4522 13.0749 12.4447 13.1078 12.4371 13.1413C12.3896 13.3511 12.3357 13.5889 12.0721 13.5382C11.7863 13.481 11.8476 13.262 11.9 13.0745C11.9123 13.0304 11.9242 12.988 11.9309 12.9499C11.9594 12.7577 12.0094 12.5654 12.0601 12.3705C12.0932 12.2434 12.1266 12.1152 12.1544 11.9852C12.2721 11.4676 12.0838 11.3029 11.5662 11.4676Z" fill="#4452C5"/>
</svg>
