<svg width="20" height="20" viewBox="0 0 20 20" fill="none" xmlns="http://www.w3.org/2000/svg">
<path d="M18.8281 6.44531V5.85938H19.4141C19.7377 5.85938 20 5.59703 20 5.27344V4.10156C20 3.85672 19.8478 3.6377 19.6183 3.55238L10.1652 0.0367583C10.0329 -0.0124214 9.88734 -0.0122652 9.75523 0.0373052L0.380234 3.55293C0.151523 3.63871 0 3.85731 0 4.10156V5.27344C0 5.59703 0.262344 5.85938 0.585938 5.85938H1.17188V6.44531C1.17188 7.20918 1.66176 7.86047 2.34375 8.10234V14.2414C1.66176 14.4833 1.17188 15.1346 1.17188 15.8984V16.5852C0.489883 16.8271 0 17.4783 0 18.2422V19.4141C0 19.7377 0.262344 20 0.585938 20H19.4141C19.7377 20 20 19.7377 20 19.4141V18.2422C20 17.4783 19.5101 16.827 18.8281 16.5852V15.8984C18.8281 15.1346 18.3382 14.4833 17.6562 14.2414V8.10234C18.3382 7.86047 18.8281 7.20918 18.8281 6.44531ZM1.75781 4.6875H1.17188V4.50762L9.96176 1.21141L18.8281 4.50879V4.6875H18.2422H1.75781ZM2.34375 15.8984C2.34375 15.5754 2.6066 15.3125 2.92969 15.3125H17.0703C17.3934 15.3125 17.6562 15.5754 17.6562 15.8984V16.4844H2.34375V15.8984ZM3.51562 14.1406V8.20313H4.6875V14.1406H3.51562ZM5.85938 14.1406V8.20313H8.20312V14.1406H5.85938ZM9.375 14.1406V8.20313H10.5469V14.1406H9.375ZM11.7188 14.1406V8.20313H14.1406V14.1406H11.7188ZM15.3125 14.1406V8.20313H16.4844V14.1406H15.3125ZM18.2422 17.6562C18.5653 17.6562 18.8281 17.9191 18.8281 18.2422V18.8281H1.17188V18.2422C1.17188 17.9191 1.43473 17.6562 1.75781 17.6562H18.2422ZM17.0703 7.03125H2.92969C2.6066 7.03125 2.34375 6.7684 2.34375 6.44531V5.85938H17.6562V6.44531C17.6562 6.7684 17.3934 7.03125 17.0703 7.03125Z" fill="#95E1EC"/>
</svg>
