<svg width="115" height="116" viewBox="0 0 115 116" fill="none" xmlns="http://www.w3.org/2000/svg">
<mask id="mask0" mask-type="alpha" maskUnits="userSpaceOnUse" x="0" y="0" width="115" height="116">
<path d="M82.1549 20.8553L84.9652 23.6907C85.6229 24.3543 86.6894 24.3543 87.3469 23.6907C88.0047 23.0271 88.0047 21.9512 87.3469 21.2876L84.5374 18.4526C84.969 17.4492 85.5356 15.8904 85.8073 14.1223C86.351 10.5859 85.5095 7.57762 83.3741 5.42323C76.6676 -1.34306 67.6321 -0.0031653 65.8886 0.334186C65.0274 0.500936 64.364 1.1702 64.1989 2.03884C63.8643 3.7981 62.5349 12.9159 69.2414 19.6822C72.6528 23.1241 77.7303 22.792 82.1549 20.8553ZM67.3734 3.53733C69.8848 3.21312 76.2001 2.99176 80.9919 7.82638C83.2724 10.1274 82.6707 13.6026 81.9321 15.8245L72.9211 6.73299C72.2634 6.06939 71.1969 6.06939 70.5394 6.73299C69.8816 7.39659 69.8816 8.47254 70.5394 9.13614L79.5497 18.227C77.3467 18.9724 73.903 19.5791 71.6231 17.2788C66.8311 12.444 67.0523 6.07143 67.3734 3.53733Z" fill="black"/>
<path d="M113.316 86.8851C113.316 86.8851 113.316 86.8852 113.316 86.8852C114.246 86.8852 115 86.8056 115 85.8672V77.711C115 76.7726 114.246 76.6892 113.316 76.6892H101.178C100.626 76.6892 100.178 76.2415 100.178 75.6892V72.9311C100.178 72.3789 100.626 71.9311 101.178 71.9311H109.049C109.979 71.9311 110.733 71.9658 110.733 71.0274V57.2071C110.733 56.2687 109.979 56.2976 109.049 56.2976H101.63C101.077 56.2976 100.63 56.7452 100.63 57.2975C100.63 57.446 100.63 57.6294 100.63 57.9969C100.63 58.6323 100.63 58.3784 100.63 58.6953C100.63 59.2476 101.077 59.6961 101.63 59.6961H106.365C106.917 59.6961 107.365 60.1438 107.365 60.6961V67.5325C107.365 68.0848 106.917 68.5325 106.365 68.5325H57.1479C56.5956 68.5325 56.1479 68.0848 56.1479 67.5325V60.6961C56.1479 60.1438 56.5956 59.6961 57.1479 59.6961H92.454C93.0063 59.6961 93.454 59.2485 93.454 58.6962C93.454 58.5552 93.454 58.3918 93.454 57.9969C93.454 57.6001 93.454 57.4382 93.454 57.2976C93.454 56.7453 93.0063 56.2976 92.454 56.2976H54.4636C53.5335 56.2976 52.7794 56.2687 52.7794 57.2071V70.2319C52.7794 71.1703 52.6505 71.9311 53.5807 71.9311H62.3341C62.8863 71.9311 63.3341 72.3789 63.3341 72.9311V75.6892C63.3341 76.2415 62.8864 76.6892 62.3341 76.6892H49.4262C48.496 76.6892 48.5126 77.45 48.5126 78.3884V85.1857C48.5126 86.1242 49.2667 86.8849 50.1969 86.8849H55.0356C55.5879 86.8849 56.0356 87.3327 56.0356 87.8849V95.8544C56.0356 96.4067 55.5879 96.8544 55.0356 96.8544H51.337C50.7847 96.8544 50.337 97.303 50.337 97.8553C50.337 98.4219 50.337 98.0851 50.337 98.7813C50.337 99.0202 50.337 99.1595 50.337 99.2531C50.337 99.8054 50.7847 100.253 51.337 100.253H110.631C111.184 100.253 111.631 100.701 111.631 101.253V108.636C111.631 110.822 109.868 112.601 107.701 112.601H8.44254C5.65633 112.601 3.38977 110.314 3.38977 107.503V101.253C3.38977 100.701 3.83748 100.253 4.38977 100.253H43.2552C43.2552 101.613 43.2552 98.7813 43.2552 100.253C43.2552 99.5216 43.2552 98.8981 43.2552 97.8545C43.2552 97.3022 42.8075 96.8544 42.2552 96.8544H29.2088C28.6565 96.8544 28.2088 96.4067 28.2088 95.8544V81.0878C28.2088 80.5356 28.6565 80.0878 29.2088 80.0878H43.5874C44.5175 80.0878 45.2716 79.327 45.2716 78.3886V72.911C45.2716 67.3876 42.913 62.4097 39.1585 58.9486C38.5957 58.4297 38.9438 57.3949 39.7093 57.3949C40.6395 57.3949 41.3936 56.6341 41.3936 55.6957V52.5655C41.3936 47.2962 39.0534 42.5681 35.3665 39.3836C35.0694 39.127 35.245 38.6144 35.6375 38.6144C36.5676 38.6144 37.3217 37.8536 37.3217 36.9152V34.1763C37.3217 31.8973 36.7455 29.6453 35.6554 27.6638C35.2038 26.8432 34.1787 26.547 33.3655 27.0027C32.5521 27.458 32.2588 28.4925 32.7102 29.3131C33.5236 30.7915 33.9534 32.4732 33.9534 34.1765V34.2162C33.9534 34.7685 33.5057 35.2162 32.9534 35.2162H12.3395C11.7872 35.2162 11.3395 34.7685 11.3395 34.2162V34.1765C11.3395 28.6412 15.8027 24.138 21.2892 24.138H24.0037C25.5122 24.138 26.9604 24.4692 28.308 25.1229C29.1466 25.5295 30.1526 25.1734 30.5557 24.3274C30.9586 23.4814 30.6058 22.4662 29.7673 22.0597C27.9606 21.1836 26.0215 20.7396 24.0037 20.7396H21.2892C13.9456 20.7396 7.97095 26.7675 7.97095 34.1768V36.9157C7.97095 37.8541 8.72504 38.6149 9.6552 38.6149C10.0477 38.6149 10.2233 39.1275 9.92621 39.3841C6.23929 42.5686 3.89909 47.2969 3.89909 52.5659V55.6961C3.89909 56.6345 4.65319 57.3953 5.58334 57.3953C6.34883 57.3953 6.69688 58.4301 6.13405 58.9489C2.37981 62.4097 0.0212502 67.3875 0.0212502 72.9108V78.3884C0.0212502 79.3268 0.775348 80.0876 1.70551 80.0876H16.0841C16.6364 80.0876 17.0841 80.5353 17.0841 81.0876V95.8541C17.0841 96.4064 16.6364 96.8541 16.0841 96.8541H0.807257C-0.203266 96.8544 0.0212502 97.615 0.0212502 98.5534V107.503C0.0212502 112.189 3.79893 116 8.44254 116H107.701C111.726 116 115 112.697 115 108.636V98.5536C115 97.6152 115.032 96.8544 114.102 96.8544H108.477C107.925 96.8544 107.477 96.4067 107.477 95.8544V87.8849C107.477 87.3327 107.925 86.8849 108.477 86.8849H113.316C113.316 86.8849 113.316 86.885 113.316 86.8851ZM8.26782 53.996C7.71554 53.996 7.26782 53.5483 7.26782 52.996V52.5653C7.26782 44.8725 13.4708 38.6142 21.0954 38.6142H24.1978C31.8223 38.6142 38.0253 44.8728 38.0253 52.5653V52.996C38.0253 53.5483 37.5776 53.996 37.0253 53.996H8.26782ZM3.38977 72.9108C3.38977 64.3551 10.2887 57.3947 18.7684 57.3947H26.5243C35.0042 57.3947 41.9029 64.3551 41.9029 72.9108V75.6892C41.9029 76.2415 41.4552 76.6892 40.9029 76.6892H4.38976C3.83748 76.6892 3.38977 76.2415 3.38977 75.6892V72.9108ZM20.4526 81.0878C20.4526 80.5356 20.9004 80.0878 21.4526 80.0878H23.84C24.3923 80.0878 24.84 80.5356 24.84 81.0878V95.8544C24.84 96.4067 24.3923 96.8544 23.84 96.8544H21.4526C20.9004 96.8544 20.4526 96.4067 20.4526 95.8544V81.0878ZM95.8099 71.9311C96.3622 71.9311 96.8099 72.3789 96.8099 72.9311V75.6892C96.8099 76.2415 96.3622 76.6892 95.8099 76.6892H93.9923C93.44 76.6892 92.9923 76.2415 92.9923 75.6892V72.9311C92.9923 72.3789 93.44 71.9311 93.9923 71.9311H95.8099ZM74.8887 76.6892C74.3365 76.6892 73.8887 76.2415 73.8887 75.6892V72.9311C73.8887 72.3789 74.3365 71.9311 74.8887 71.9311H88.6238C89.176 71.9311 89.6238 72.3789 89.6238 72.9311V75.6892C89.6238 76.2415 89.176 76.6892 88.6238 76.6892H74.8887ZM66.7026 72.9311C66.7026 72.3789 67.1503 71.9311 67.7026 71.9311H69.5202C70.0725 71.9311 70.5202 72.3789 70.5202 72.9311V75.6892C70.5202 76.2415 70.0725 76.6892 69.5202 76.6892H67.7026C67.1503 76.6892 66.7026 76.2415 66.7026 75.6892V72.9311ZM51.8811 81.0878C51.8811 80.5356 52.3288 80.0878 52.8811 80.0878H110.631C111.184 80.0878 111.631 80.5356 111.631 81.0878V82.4865C111.631 83.0388 111.184 83.4865 110.631 83.4865H52.8811C52.3288 83.4865 51.8811 83.0388 51.8811 82.4865V81.0878ZM95.9222 86.8852C96.4745 86.8852 96.9222 87.3329 96.9222 87.8852V95.8546C96.9222 96.4069 96.4745 96.8546 95.9222 96.8546H67.5903C67.038 96.8546 66.5903 96.4069 66.5903 95.8546V87.8852C66.5903 87.3329 67.038 86.8852 67.5903 86.8852H95.9222ZM60.4041 96.8544C59.8518 96.8544 59.4041 96.4067 59.4041 95.8544V87.8849C59.4041 87.3327 59.8518 86.8849 60.4041 86.8849H62.2218C62.7741 86.8849 63.2218 87.3327 63.2218 87.8849V95.8544C63.2218 96.4067 62.7741 96.8544 62.2218 96.8544H60.4041ZM104.108 95.8544C104.108 96.4067 103.661 96.8544 103.108 96.8544H101.291C100.738 96.8544 100.291 96.4067 100.291 95.8544V87.8849C100.291 87.3327 100.738 86.8849 101.291 86.8849H103.108C103.661 86.8849 104.108 87.3327 104.108 87.8849V95.8544Z" fill="black"/>
</mask>
<g mask="url(#mask0)">
<rect width="116.742" height="100.182" fill="url(#paint0_linear)"/>
</g>
<defs>
<linearGradient id="paint0_linear" x1="116.742" y1="100.182" x2="31.3947" y2="-21.9408" gradientUnits="userSpaceOnUse">
<stop stop-color="#64E0B9"/>
<stop offset="0.930911" stop-color="#4451C4"/>
</linearGradient>
</defs>
</svg>
