<svg width="20" height="22" viewBox="0 0 20 22" fill="none" xmlns="http://www.w3.org/2000/svg">
<path d="M18.3483 5.58565H17.9612C17.8049 5.58565 17.6537 5.61019 17.5104 5.65505C17.3642 4.81651 16.6928 4.18083 15.8885 4.18083H15.5014C14.5907 4.18083 13.8497 4.99591 13.8497 5.99768V8.93021H6.15023V5.6385C6.15023 4.63669 5.40926 3.82166 4.49855 3.82166H4.11148C3.30723 3.82166 2.63578 4.45733 2.48969 5.29587C2.34625 5.25101 2.19512 5.22648 2.03879 5.22648H1.65172C0.740976 5.22648 0 6.04146 0 7.04332V14.5972C0 15.599 0.740977 16.4141 1.65168 16.4141H2.03875C2.19508 16.4141 2.34621 16.3895 2.48965 16.3447C2.63578 17.1832 3.30723 17.8189 4.11144 17.8189H4.49852C5.40926 17.8189 6.1502 17.0038 6.1502 16.002V13.3637H13.8497V16.3613C13.8497 17.3631 14.5907 18.1781 15.5014 18.1781H15.8885C16.6927 18.1781 17.3642 17.5424 17.5103 16.7039C17.6537 16.7488 17.8049 16.7733 17.9612 16.7733H18.3483C19.259 16.7733 20 15.9582 20 14.9564V7.4025C20 6.40068 19.259 5.58565 18.3483 5.58565ZM2.4598 14.5972C2.4598 14.8526 2.27094 15.0604 2.03875 15.0604H1.65168C1.41949 15.0604 1.23062 14.8526 1.23062 14.5972V7.04332C1.23062 6.78792 1.41949 6.58016 1.65168 6.58016H2.03875C2.27094 6.58016 2.4598 6.78792 2.4598 7.04332V14.5972V14.5972ZM4.91961 16.0021C4.91961 16.2575 4.73074 16.4653 4.49855 16.4653H4.11148C3.8793 16.4653 3.69043 16.2575 3.69043 16.0021V5.63842C3.69043 5.38301 3.87934 5.17526 4.11148 5.17526H4.49855C4.73074 5.17526 4.91961 5.38301 4.91961 5.63842V16.0021ZM13.8498 12.01H6.15023V10.2839H13.8497V12.01H13.8498ZM16.3096 16.3613C16.3096 16.6167 16.1207 16.8245 15.8885 16.8245H15.5014C15.2692 16.8245 15.0803 16.6167 15.0803 16.3613V5.99764C15.0803 5.74223 15.2692 5.53448 15.5014 5.53448H15.8885C16.1207 5.53448 16.3096 5.74223 16.3096 5.99764V16.3613ZM18.7694 14.9564C18.7694 15.2118 18.5805 15.4196 18.3483 15.4196H17.9612C17.7291 15.4196 17.5402 15.2118 17.5402 14.9564V7.4025C17.5402 7.14709 17.729 6.93934 17.9612 6.93934H18.3483C18.5805 6.93934 18.7694 7.14709 18.7694 7.4025V14.9564Z" fill="white"/>
</svg>
