<svg width="20" height="20" viewBox="0 0 20 20" fill="none" xmlns="http://www.w3.org/2000/svg">
<circle cx="10" cy="10" r="9.5" fill="white" stroke="white"/>
<path d="M10.7345 12.2703C10.2051 12.5056 9.72275 12.7174 9.24039 12.9409C8.14628 13.4468 7.01687 13.6821 5.81687 13.388C5.38157 13.2821 5.01687 13.0703 4.67569 12.7997C4.39334 12.5762 4.33451 12.388 4.73451 12.2115C5.11098 12.0468 5.47569 11.8468 5.85216 11.6821C6.2051 11.5291 6.34628 11.3762 5.98157 11.0703C5.73451 10.8586 5.68745 10.5644 5.75804 10.2586C5.8051 10.0115 5.99334 9.83502 6.22863 9.76444C6.47569 9.69385 6.55804 9.92915 6.66392 10.0703C6.75804 10.1997 6.8404 10.3291 6.92275 10.4586C7.31098 11.0468 7.53451 11.0586 8.08745 10.5056C7.85216 10.2938 7.53451 10.3409 7.26392 10.2586C6.86392 10.1409 6.71098 9.88208 6.88745 9.50561C7.0404 9.1762 7.2404 8.84679 7.45216 8.55267C7.6051 8.32914 7.85216 8.21149 8.11098 8.38796C8.39334 8.5762 8.39333 8.83503 8.25216 9.10561C8.22863 9.15267 8.18157 9.19973 8.15804 9.25855C8.09922 9.42326 7.72275 9.54091 8.06392 9.76444C8.32275 9.92914 8.53451 9.84679 8.71098 9.58797C9.13451 8.9762 9.72275 8.6115 10.4522 8.49385C10.7227 8.44679 10.9345 8.34091 11.0522 8.08208C11.2051 7.75267 11.3698 7.75267 11.4875 8.10561C11.7345 8.82326 11.9698 9.55267 12.2051 10.2821C12.2639 10.4586 12.2757 10.635 12.0992 10.7527C11.911 10.8821 11.7698 10.7409 11.6404 10.6233C11.5933 10.588 11.558 10.5409 11.511 10.5056C11.2757 10.3409 11.1345 9.94091 10.8169 10.0468C10.4404 10.1762 10.3816 10.6233 10.2522 10.9644C10.158 11.2233 10.2404 11.3056 10.5345 11.2821C11.7816 11.1762 11.7933 11.2115 11.4169 12.435C11.2522 12.9527 11.0404 13.3762 10.4757 13.5291C10.2992 13.5762 10.0875 13.7762 9.95804 13.5291C9.86392 13.3291 9.98157 13.1056 10.1463 12.9527C10.2404 12.8586 10.3816 12.8233 10.4992 12.7527C10.6639 12.6821 10.7345 12.5644 10.7345 12.2703Z" fill="#4452C5"/>
<path d="M14.7933 9.61133C15.3816 9.85839 16.0051 10.129 16.5698 10.5172C16.8169 10.6937 16.7698 10.9878 16.6051 11.2113C16.1581 11.8349 15.6992 12.4466 15.2404 13.0466C15.1463 13.176 15.0169 13.2937 14.8404 13.1878C14.6639 13.0819 14.6992 12.9172 14.7698 12.776C14.9345 12.4349 15.1228 12.1172 15.2639 11.776C15.3581 11.5643 15.7345 11.3407 15.3345 11.1055C15.0169 10.9172 14.7816 11.0113 14.5698 11.3525C14.0522 12.2231 13.4757 13.0702 12.9345 13.929C12.8757 14.0231 12.8051 14.129 12.7463 14.2231C12.6639 14.3407 12.5581 14.4466 12.4051 14.376C12.2169 14.2937 12.2404 14.129 12.2992 13.976C12.4286 13.6702 12.5698 13.3643 12.6992 13.0584C13.111 12.129 13.511 11.1878 13.9345 10.2584C14.0992 9.92898 14.2639 9.57604 14.7933 9.61133Z" fill="#4452C5"/>
<path d="M9.88672 4.84665C8.85143 4.84665 7.80437 4.84665 6.76907 4.84665C6.56907 4.84665 6.32202 4.87018 6.27496 4.64665C6.2279 4.43489 6.49849 4.3996 6.63966 4.34077C7.34554 4.03489 8.07496 3.82312 8.8279 3.70548C9.0279 3.67018 9.27496 3.70548 9.40437 3.49371C9.41613 3.47018 9.38084 3.3643 9.34554 3.35254C9.12201 3.24665 8.93378 3.3996 8.73378 3.45842C8.48672 3.52901 8.25143 3.63489 8.01613 3.70548C7.86319 3.75254 7.68672 3.77606 7.60437 3.58783C7.49849 3.37606 7.66319 3.25842 7.81613 3.17606C8.32202 2.90548 8.81613 2.64666 9.33378 2.3996C9.4279 2.35254 9.56907 2.34077 9.67496 2.3643C10.075 2.45842 10.8985 3.68195 10.8514 4.09371C10.8161 4.54077 10.4397 4.82312 9.88672 4.84665Z" fill="#4452C5"/>
<path d="M10.2987 17.6465C9.68693 17.423 9.01634 17.2112 8.38105 16.9171C8.08693 16.7877 8.03987 16.4465 8.18105 16.1524C8.31046 15.8582 8.56928 15.7524 8.8634 15.8465C9.09869 15.9171 9.34575 16.0347 9.53399 16.1877C10.134 16.7053 10.7458 16.8112 11.4516 16.3994C12.181 15.9641 13.0516 15.87 13.8046 15.47C14.1693 15.27 14.534 15.1053 14.9105 14.9288C15.0399 14.87 15.2281 14.7171 15.3105 14.9171C15.3928 15.1053 15.1693 15.1641 15.0399 15.223C14.7458 15.3759 14.4399 15.5053 14.1458 15.67C13.5928 15.9759 13.0399 16.27 12.5105 16.6347C11.9693 16.9994 11.2987 17.2935 10.6516 17.5641C10.5575 17.5877 10.4634 17.5994 10.2987 17.6465Z" fill="#4452C5"/>
<path d="M4.61649 7.21129C4.55767 7.51717 4.36943 7.776 4.1459 7.98776C3.81649 8.30541 3.76943 8.63482 3.93414 9.04659C4.06355 9.35247 4.1459 9.67012 4.24002 9.98776C4.28708 10.1642 4.27532 10.3642 4.07532 10.4348C3.88708 10.5054 3.79296 10.3525 3.72237 10.1995C3.47531 9.67011 3.22826 9.14071 2.99296 8.59953C2.92237 8.43482 2.92237 8.24658 3.00473 8.09364C3.21649 7.68188 3.41649 7.25835 3.65179 6.84658C3.79296 6.61129 4.01649 6.48188 4.29885 6.61129C4.55767 6.72894 4.62826 6.9407 4.61649 7.21129Z" fill="#4452C5"/>
<path d="M9.40511 5.94032C9.65217 6.01091 10.1581 5.79914 10.1698 6.16385C10.1816 6.63444 9.65217 6.38738 9.36982 6.43444C9.11099 6.46973 8.86393 6.46973 8.68746 6.70502C8.55805 6.86973 8.36982 6.91679 8.16982 6.94032C7.39335 7.05796 6.62864 7.16385 5.85217 7.30503C5.39335 7.38738 5.31099 7.10502 5.25217 6.78738C5.16982 6.36385 5.49923 6.42267 5.73452 6.42267C6.26393 6.41091 6.79335 6.41091 7.31099 6.42267C7.75805 6.42267 8.19335 6.4462 8.55805 6.08149C8.78158 5.86973 9.09923 5.95208 9.40511 5.94032Z" fill="#4452C5"/>
<path d="M15.0635 7.12891C15.3341 7.62302 15.24 8.03478 14.6753 8.17596C13.993 8.35243 13.8165 8.82302 13.8047 9.43478C13.8047 9.49361 13.8047 9.55243 13.793 9.61125C13.7459 9.82302 13.7694 10.1642 13.44 10.1054C13.1341 10.0583 13.2047 9.75243 13.2165 9.51714C13.2282 9.30537 13.2635 9.09361 13.2753 8.88184C13.3106 7.84655 14.0047 7.1642 15.0635 7.12891Z" fill="#4452C5"/>
<path d="M7.11071 16.6938C6.08718 16.6585 5.93424 16.3879 6.36953 15.5408C6.59306 15.1056 6.84012 14.6938 7.08718 14.2703C7.1813 14.1173 7.29895 13.9526 7.51071 14.0703C7.68718 14.1644 7.62836 14.3408 7.5813 14.4938C7.51071 14.6938 7.41659 14.8938 7.35777 15.0938C7.27542 15.3526 6.9813 15.682 7.5813 15.7408C7.82836 15.7644 7.73424 16.0114 7.67542 16.1761C7.55777 16.4585 7.51071 16.835 7.11071 16.6938Z" fill="#4452C5"/>
<path d="M15.5811 7.88206C15.8399 7.91735 15.7222 8.21147 16.0516 8.32912C16.1693 8.16441 16.3222 7.96441 16.4869 7.76441C16.5811 7.65853 16.7105 7.57618 16.8516 7.68206C16.9811 7.77618 16.9693 7.92912 16.8869 8.04677C16.6046 8.4703 16.3222 8.88206 16.0164 9.29382C15.9105 9.44677 15.7458 9.52912 15.5575 9.435C15.4046 9.35265 15.3222 9.21147 15.3458 9.04677C15.3928 8.65853 15.4164 8.24677 15.5811 7.88206Z" fill="#4452C5"/>
<path d="M12.1102 4.68193C11.8632 4.81134 11.6161 4.94075 11.3455 4.79957C11.0396 4.63487 10.8985 4.36428 10.969 4.02311C11.0396 3.68193 11.2749 3.48193 11.6279 3.48193C12.0043 3.48193 12.1808 3.71722 12.2396 4.0584C12.2632 4.21134 12.2514 4.36428 12.2514 4.51723C12.2514 4.61134 12.2043 4.6584 12.1102 4.68193Z" fill="#4452C5"/>
<path d="M5.42786 5.75233C5.3808 6.15233 5.1808 6.43469 4.75727 6.42292C4.3808 6.41116 4.14551 6.15233 4.14551 5.77586C4.14551 5.37586 4.36904 5.11704 4.80433 5.1288C5.20433 5.11704 5.36904 5.38763 5.42786 5.75233Z" fill="#4452C5"/>
<path d="M15.0753 7.14118C15.0282 7.01177 14.9694 6.88236 14.9458 6.75295C14.8988 6.44706 14.9694 6.17647 15.287 6.02353C15.5458 5.90589 15.7929 5.95294 15.9811 6.15294C16.2047 6.38824 16.2047 6.69412 16.0517 6.96471C15.8988 7.2353 15.64 7.29412 15.3458 7.21177C15.2517 7.18824 15.1576 7.16471 15.0753 7.14118C15.0635 7.12942 15.0753 7.14118 15.0753 7.14118Z" fill="#4452C5"/>
<path d="M9.54583 7.95269C9.55759 8.16445 9.42818 8.21151 9.28701 8.21151C9.14583 8.21151 8.99289 8.17622 9.01642 8.39975C9.02818 8.50563 9.08701 8.65857 8.93406 8.69386C8.76936 8.74092 8.69877 8.58798 8.63995 8.47033C8.60465 8.39974 8.59289 8.30562 8.53407 8.27033C8.13407 7.98798 8.1223 7.67034 8.47524 7.36445C8.76936 7.11739 9.14583 7.27033 9.40465 7.72916C9.45171 7.79974 9.49877 7.8821 9.54583 7.95269Z" fill="#4452C5"/>
<path d="M12.1104 4.68164C12.1574 4.62281 12.2045 4.57576 12.2515 4.51694C12.3692 4.1287 12.5927 3.98753 13.0045 4.1287C13.2751 4.22282 13.5692 4.28164 13.8515 4.364C13.9456 4.38753 14.0398 4.43458 14.0515 4.55223C14.0633 4.6934 13.9339 4.79929 13.8398 4.78752C13.2633 4.74046 12.6751 5.01105 12.1104 4.68164Z" fill="#4452C5"/>
<path d="M8.85167 14.9409C8.76932 15.1644 8.96932 15.5762 8.53403 15.5644C8.1105 15.5526 8.1105 15.1762 8.12226 14.8585C8.13403 14.5762 8.05167 14.1879 8.48697 14.2115C8.96932 14.2232 8.78108 14.6585 8.85167 14.9409Z" fill="#4452C5"/>
<path d="M8.89844 14.9294C9.00432 14.7059 8.75726 14.2941 9.15726 14.2706C9.52197 14.2471 9.56903 14.6235 9.55726 14.9176C9.55726 15.2235 9.52197 15.6353 9.13373 15.6118C8.7455 15.5765 9.00432 15.1529 8.89844 14.9294Z" fill="#4452C5"/>
</svg>
