<svg width="23" height="23" viewBox="0 0 23 23" fill="none" xmlns="http://www.w3.org/2000/svg">
<circle cx="11.16" cy="11.8016" r="11.16" fill="white"/>
<path d="M10.4088 6.80047C10.8552 6.2359 11.3016 6.28842 11.7743 6.3672C12.352 6.4591 12.9559 6.48536 13.5336 6.57727C14.1901 6.69543 14.5446 7.23374 14.3739 7.81143C14.2164 8.376 13.6912 8.65171 13.0741 8.45477C12.6408 8.31035 12.2207 8.11341 11.7874 7.95586C11.0259 7.69327 10.3038 8.25783 10.3038 9.16376C10.6452 9.07186 10.8552 8.80927 11.1047 8.63858C11.3541 8.45477 11.6167 8.34974 11.853 8.65171C12.0237 8.86179 12.3914 8.99308 12.3257 9.30819C12.2732 9.57077 11.9056 9.46574 11.7086 9.5839C11.2754 9.83336 10.829 10.0828 10.3957 10.3323C10.1462 10.4767 10.1462 10.713 10.1331 10.9625C10.0806 12.0785 10.0412 13.1945 9.98868 14.2974C9.97555 14.468 9.97555 14.6519 9.93616 14.8225C9.89677 15.0195 9.80486 15.2033 9.56853 15.2164C9.3322 15.2295 9.22717 15.0589 9.16152 14.8619C8.99084 14.3761 9.03024 13.8641 8.99085 13.3652C8.78078 11.1069 8.58382 8.83553 8.38688 6.57727C8.36062 6.27529 8.36062 5.96019 8.38688 5.65821C8.4394 5.1199 8.67574 4.73915 9.27969 4.71289C9.88364 4.68663 10.225 5.01487 10.3432 5.5663C10.3957 5.90767 10.3826 6.26216 10.4088 6.80047Z" fill="#4452C5"/>
<path d="M11.0785 18.8005C9.06967 18.8005 7.06088 18.8005 5.05208 18.8005C4.76323 18.8005 4.40873 18.9055 4.25117 18.5248C4.1724 18.3278 4.1724 18.0784 4.35622 17.9865C4.68445 17.842 4.97329 17.435 5.41969 17.6976C5.83984 17.9339 6.24685 17.9339 6.65386 17.6845C6.69325 17.6582 6.74577 17.6188 6.77203 17.632C7.46789 18.1046 8.22939 17.5532 8.95151 17.7764C8.9909 17.7895 9.04342 17.8289 9.06968 17.8158C9.94935 17.5532 10.8684 17.9865 11.7481 17.6845C11.8925 17.632 12.0369 17.5532 12.1813 17.6582C12.6146 17.9471 13.0479 17.9208 13.4812 17.6714C13.6518 17.5663 13.8094 17.5926 13.9669 17.6976C14.0195 17.737 14.0851 17.7895 14.1376 17.7895C15.0304 17.6451 15.9495 17.9471 16.8292 17.6582C17.1443 17.5532 17.9058 17.8289 17.9846 18.1309C18.1027 18.5642 17.932 18.8005 17.4594 18.8005C16.4747 18.8005 15.49 18.8005 14.5053 18.8005C13.3499 18.8005 12.2207 18.8005 11.0785 18.8005Z" fill="#4452C5"/>
<path d="M13.245 9.3606C13.8621 9.34747 14.3873 9.85952 14.4267 10.516C14.453 11.1331 13.9278 11.6976 13.3107 11.7239C12.6674 11.7502 12.1684 11.2512 12.1553 10.5816C12.1291 9.92516 12.6148 9.37373 13.245 9.3606Z" fill="#4452C5"/>
</svg>
