<svg width="20" height="20" viewBox="0 0 20 20" fill="none" xmlns="http://www.w3.org/2000/svg">
<g clip-path="url(#clip0)">
<path d="M17.2411 12.4571C16.9153 12.1742 16.4218 12.2089 16.1389 12.5348C15.9419 12.7617 15.733 12.9852 15.518 13.1995C14.4994 14.2139 13.5791 14.826 12.7532 15.1634L4.87962 7.28989C5.21836 6.46515 5.83131 5.54565 6.84587 4.52713C8.72148 2.64389 10.8823 1.56342 12.7742 1.5625H12.7765C14.1876 1.5625 15.5042 2.16583 16.6893 3.35587C16.9939 3.66165 17.4886 3.66257 17.7942 3.35815C18.1 3.05359 18.1009 2.55905 17.7965 2.25327C16.3281 0.779114 14.5924 0 12.7765 0C12.7756 0 12.7745 0 12.7736 0C11.5184 0.000610352 10.219 0.350647 8.91145 1.04019C7.8116 1.62033 6.71464 2.44476 5.73869 3.42453C2.86607 6.30875 2.22535 9.20166 3.8347 12.023C4.0207 12.3492 3.96211 12.7657 3.69203 13.0357C3.6754 13.0525 3.65937 13.0698 3.64427 13.0879C2.97166 13.895 1.54161 15.1595 0.786907 15.7599C0.322734 16.1292 0.0373948 16.6805 0.00382545 17.2723C-0.0297439 17.8635 0.191203 18.4427 0.609905 18.8612L1.13893 19.3904C1.52986 19.7812 2.06117 20 2.61125 20C2.64772 20 2.68449 19.9991 2.72096 19.9971C3.30949 19.966 3.85926 19.6852 4.22944 19.2268C4.85276 18.455 6.16105 17.0985 6.97404 16.3808C6.98609 16.3701 6.99784 16.3589 7.00929 16.3475C7.27739 16.0794 7.69151 16.0197 8.01698 16.2021C9.57399 17.0895 11.1511 17.2948 12.7351 16.8213C12.7637 16.8143 12.7919 16.8057 12.8197 16.7955C14.0848 16.398 15.354 15.5681 16.6206 14.3065C16.8622 14.0659 17.097 13.8144 17.3187 13.5591C17.6016 13.2333 17.5668 12.74 17.2411 12.4571ZM8.78556 14.8416C7.85905 14.3198 6.68611 14.4777 5.92317 15.2242C5.04258 16.0042 3.68837 17.4101 3.01393 18.2449C2.88774 18.4012 2.72447 18.4322 2.63841 18.4367C2.55189 18.4412 2.38618 18.4277 2.24382 18.2854L1.71479 17.7563C1.57197 17.6137 1.55885 17.4472 1.56373 17.3607C1.56877 17.2737 1.60081 17.1091 1.75981 16.9826C2.58103 16.3292 4.06587 15.0139 4.82331 14.1136C5.56703 13.3464 5.71962 12.1741 5.19197 11.2488C4.87168 10.6874 4.56834 9.99084 4.53096 9.15085L10.8881 15.5081C10.0487 15.4684 9.35136 15.1643 8.78923 14.8436C8.78785 14.843 8.78663 14.8424 8.78556 14.8416ZM16.8755 4.80469C15.1523 4.80469 13.7505 6.20651 13.7505 7.92969C13.7505 9.65286 15.1523 11.0547 16.8755 11.0547C18.5986 11.0547 20.0005 9.65286 20.0005 7.92969C20.0005 6.20651 18.5986 4.80469 16.8755 4.80469ZM16.8755 9.49219C16.014 9.49219 15.313 8.7912 15.313 7.92969C15.313 7.06818 16.014 6.36719 16.8755 6.36719C17.737 6.36719 18.438 7.06818 18.438 7.92969C18.438 8.7912 17.737 9.49219 16.8755 9.49219Z" fill="white"/>
</g>
<defs>
<clipPath id="clip0">
<rect width="20" height="20" fill="white"/>
</clipPath>
</defs>
</svg>
