<svg width="104" height="90" viewBox="0 0 104 90" fill="none" xmlns="http://www.w3.org/2000/svg">
<mask id="mask0" mask-type="alpha" maskUnits="userSpaceOnUse" x="7" y="0" width="90" height="90">
<g clip-path="url(#clip0)">
<path d="M46.8096 54.2367V70.2157C46.8096 71.1859 47.5965 71.9735 48.5674 71.9735H80.8803C81.8512 71.9735 82.6381 71.1859 82.6381 70.2157V54.2745C85.0516 53.5673 86.8197 51.335 86.8197 48.6962V42.5864C86.8197 42.2877 86.7401 41.9836 86.5932 41.7226L82.5021 34.4696C82.1904 33.9168 81.6054 33.5749 80.9709 33.5749H48.6038C47.9693 33.5749 47.3836 33.9168 47.0726 34.4696L42.9816 41.7226C42.8346 41.9829 42.7543 42.2877 42.7543 42.5864V48.6962C42.7543 51.289 44.4613 53.4897 46.8096 54.2367ZM46.2699 44.3442H50.8642V48.6928V48.6962C50.8642 49.9624 49.8343 50.993 48.5674 50.993H48.564C47.2992 50.991 46.2699 49.9617 46.2699 48.6962V44.3442ZM58.9742 44.3442V48.6804C58.9742 48.6859 58.9735 48.6907 58.9735 48.6962C58.9735 49.9624 57.9436 50.993 56.6767 50.993C56.1226 50.993 55.6138 50.7953 55.2169 50.4677C54.706 50.0461 54.3799 49.4082 54.3799 48.6962V44.3442H58.9742ZM67.0842 44.3442V48.6962C67.0842 49.6149 66.5143 50.4657 65.6663 50.8179C64.788 51.1832 63.7491 50.9525 63.103 50.2556C62.7144 49.836 62.4898 49.2682 62.4898 48.6962V44.3442H67.0842ZM75.1942 44.3442V48.6859C75.1942 48.6893 75.1935 48.6928 75.1935 48.6962C75.1935 49.9624 74.1635 50.993 72.8973 50.993C71.6305 50.993 70.6005 49.9624 70.6005 48.6962C70.6005 48.6941 70.5998 48.6928 70.5998 48.6907V44.3442H75.1942ZM62.2578 53.9435C61.4915 56.5336 60.1546 58.437 58.2704 59.6145C55.5121 61.3387 52.1345 61.1945 50.3252 60.9453V54.2388C51.1815 53.9662 51.9787 53.4855 52.6221 52.8586C53.6699 53.8804 55.1015 54.51 56.6767 54.51C57.6785 54.51 58.6213 54.2546 59.4446 53.8069C59.7281 53.6552 59.9973 53.4746 60.2507 53.2768C60.353 53.1972 60.4532 53.1148 60.5487 53.0276C60.5878 52.9919 60.6998 52.8779 60.6998 52.8779C60.6998 52.8779 60.8872 53.0049 60.9572 53.066C61.3562 53.4189 61.795 53.7176 62.2578 53.9435ZM68.8489 52.8641C69.896 53.8824 71.3249 54.51 72.8973 54.51C74.4677 54.51 75.8945 53.8838 76.9417 52.8683C77.5514 53.4622 78.293 53.9223 79.1225 54.2017V60.9514C77.3434 61.2034 74.0433 61.3463 71.3022 59.6448C69.4085 58.4699 68.0661 56.5555 67.2991 53.9435C67.8759 53.6689 68.3984 53.3029 68.8489 52.8641ZM50.3252 64.4904C50.9494 64.5611 51.6745 64.6126 52.4703 64.6126C54.7383 64.6126 57.5597 64.1952 60.1065 62.6131C61.225 61.9182 62.1987 61.0565 63.0295 60.0375V68.4579H50.3252V64.4904ZM66.5452 68.4579V60.078C67.3712 61.0888 68.338 61.9436 69.4483 62.6324C71.9717 64.1986 74.7602 64.6126 77.0048 64.6126C77.7897 64.6126 78.5052 64.5618 79.1225 64.4925V68.4579H66.5452ZM83.3041 48.6962C83.3041 49.9624 82.2742 50.993 81.0073 50.993C79.7597 50.993 78.7098 49.9431 78.7098 48.6962V44.3442H83.3048L83.3041 48.6962ZM49.6303 37.0912H79.9444L82.0531 40.8286H47.5217L49.6303 37.0912Z" fill="black"/>
<path d="M22.5621 44.8084H30.4215C31.3924 44.8084 32.1793 44.0215 32.1793 43.0506V35.1906C32.1793 34.2203 31.3924 33.4327 30.4215 33.4327H22.5621C21.5912 33.4327 20.8043 34.2203 20.8043 35.1906V43.0506C20.8043 44.0215 21.5912 44.8084 22.5621 44.8084ZM24.3199 36.9484H28.6637V41.2928H24.3199V36.9484Z" fill="black"/>
<path d="M80.8804 75.8455H48.5675C47.5966 75.8455 46.8097 76.633 46.8097 77.6033C46.8097 78.5742 47.5966 79.3611 48.5675 79.3611H80.8804C81.8513 79.3611 82.6382 78.5742 82.6382 77.6033C82.6382 76.633 81.8513 75.8455 80.8804 75.8455Z" fill="black"/>
<path d="M95.2422 86.4219H94.0076V26.6048H95.2422C95.8691 26.6048 96.4493 26.2704 96.7631 25.7279C97.0776 25.1848 97.079 24.5153 96.7665 23.9715L83.6077 1.05812C83.2946 0.512237 82.713 0.175781 82.0833 0.175781H22.155C21.5253 0.175781 20.9437 0.512237 20.6299 1.05812L7.47173 23.9715C7.1593 24.516 7.15999 25.1848 7.47447 25.7279C7.78896 26.2704 8.36848 26.6048 8.99608 26.6048H10.2726V50.8179H8.75781C7.7869 50.8179 7 51.6048 7 52.5758V88.1797C7 89.1506 7.7869 89.9375 8.75781 89.9375H95.2422C96.2131 89.9375 97 89.1506 97 88.1797C97 87.2088 96.2131 86.4219 95.2422 86.4219ZM23.1726 3.69141H81.0657L85.5976 11.5823C70.6864 11.5727 45.5847 11.5844 45.3141 11.5844C44.3432 11.5851 43.557 12.3727 43.5577 13.3436C43.5577 14.3138 44.3446 15.1 45.3155 15.1H45.3162C45.5991 15.1 73.0896 15.087 87.617 15.0993L92.2058 23.0891H12.0324L16.6206 15.1H29.316C30.2869 15.1 31.0738 14.3131 31.0738 13.3422C31.0738 12.372 30.2869 11.5844 29.316 11.5844H18.6393L23.1726 3.69141ZM90.492 26.6048V86.4219H39.6905V52.5758C39.6905 52.2723 39.6136 51.9866 39.4783 51.7374C39.1803 51.1894 38.6001 50.8173 37.9327 50.8173H13.7882V26.6048H90.492ZM10.5156 54.3336H36.1749V86.4219H31.8367V60.3664C31.8367 59.3955 31.0498 58.6086 30.0788 58.6086H16.8252C15.8543 58.6086 15.0674 59.3955 15.0674 60.3664V86.4219H10.5156V54.3336ZM18.583 86.4219V62.1243H28.321V86.4219H18.583Z" fill="black"/>
<path d="M36.262 14.8034C36.8738 15.2038 37.6758 15.1948 38.2705 14.7643C38.8527 14.3427 39.1233 13.5826 38.9358 12.8877C38.7401 12.1626 38.0851 11.6263 37.3332 11.5872C36.5854 11.548 35.8796 12.0012 35.6049 12.6975C35.3055 13.4562 35.5822 14.3503 36.262 14.8034Z" fill="black"/>
<path d="M22.7991 72.9252C22.5121 72.2351 21.7993 71.7902 21.0516 71.8444C20.3127 71.898 19.6728 72.4267 19.4798 73.1422C19.2924 73.8391 19.565 74.6082 20.1534 75.0263C20.7488 75.45 21.559 75.461 22.1639 75.0517C22.8478 74.5896 23.1115 73.686 22.7991 72.9252Z" fill="black"/>
</g>
</mask>
<g mask="url(#mask0)">
<rect x="1" width="103.08" height="90" fill="url(#paint0_linear)"/>
</g>
<defs>
<linearGradient id="paint0_linear" x1="104.08" y1="90" x2="26.9597" y2="-18.4588" gradientUnits="userSpaceOnUse">
<stop stop-color="#64E0B9"/>
<stop offset="0.930911" stop-color="#4451C4"/>
</linearGradient>
<clipPath id="clip0">
<rect x="7" width="90" height="90" fill="white"/>
</clipPath>
</defs>
</svg>
