<svg height="512pt" viewBox="0 -66 512 512" width="512pt" xmlns="http://www.w3.org/2000/svg"><path d="m16.515625 198.199219c-9.128906 0-16.515625-7.386719-16.515625-16.519531 0-63.738282 51.871094-115.609376 115.613281-115.609376h280.773438c9.128906 0 16.515625 7.386719 16.515625 16.515626 0 9.128906-7.386719 16.515624-16.515625 16.515624h-280.773438c-45.535156 0-82.582031 37.046876-82.582031 82.578126 0 9.132812-7.386719 16.519531-16.515625 16.519531zm0 0"/><path d="m396.386719 165.164062c-2.675781 0-5.355469-.644531-7.789063-1.949218-5.371094-2.871094-8.726562-8.46875-8.726562-14.566406v-132.128907c0-6.097656 3.355468-11.691406 8.726562-14.5625 5.355469-2.886719 11.886719-2.550781 16.953125.820313l99.09375 66.0625c4.597657 3.066406 7.355469 8.226562 7.355469 13.742187s-2.757812 10.679688-7.355469 13.742188l-99.09375 66.0625c-2.757812 1.84375-5.953125 2.777343-9.164062 2.777343zm16.515625-117.789062v70.417969l52.808594-35.210938zm0 0"/><path d="m396.386719 313.8125h-280.773438c-9.128906 0-16.515625-7.390625-16.515625-16.519531 0-9.128907 7.386719-16.515625 16.515625-16.515625h280.773438c45.535156 0 82.582031-37.046875 82.582031-82.578125 0-9.128907 7.386719-16.519531 16.515625-16.519531s16.515625 7.390624 16.515625 16.519531c0 63.742187-51.871094 115.613281-115.613281 115.613281zm0 0"/><path d="m115.613281 379.875c-3.210937 0-6.40625-.933594-9.164062-2.773438l-99.09375-66.066406c-4.597657-3.0625-7.355469-8.222656-7.355469-13.742187 0-5.515625 2.757812-10.675781 7.355469-13.738281l99.09375-66.066407c5.066406-3.371093 11.597656-3.691406 16.953125-.820312 5.371094 2.871093 8.726562 8.46875 8.726562 14.5625v132.128906c0 6.097656-3.355468 11.695313-8.726562 14.566406-2.433594 1.304688-5.113282 1.949219-7.789063 1.949219zm-69.324219-82.582031 52.808594 35.210937v-70.417968zm0 0"/></svg>