<svg width="20" height="20" viewBox="0 0 20 20" fill="none" xmlns="http://www.w3.org/2000/svg">
<circle cx="10" cy="10" r="9.5" fill="white" stroke="white"/>
<path d="M8.40047 7.05908C8.67105 7.08261 8.92988 7.22379 9.15341 7.42379C9.67106 7.87085 10.1887 8.31791 10.7181 8.76496C11.1063 9.10614 11.2122 9.48261 10.8122 9.87085C9.83576 10.7885 9.5887 11.8473 10.0946 13.0944C10.1652 13.2708 10.1652 13.4826 10.2005 13.6708C10.2358 13.8826 10.2828 14.1297 9.9887 14.2003C9.70635 14.2591 9.624 14.012 9.55341 13.812C9.32988 13.2003 9.11812 12.6003 8.90635 11.9885C8.48282 10.765 8.04752 9.5532 7.63576 8.32967C7.424 7.64732 7.7887 7.05908 8.40047 7.05908Z" fill="#4452C5"/>
<path d="M12.2591 4.58838C12.6826 4.58838 13.0473 4.97661 13.0473 5.43544C13.0473 5.89426 12.6826 6.29426 12.2591 6.29426C11.812 6.29426 11.412 5.8825 11.4356 5.41191C11.4473 4.97661 11.8356 4.58838 12.2591 4.58838Z" fill="#4452C5"/>
<path fill-rule="evenodd" clip-rule="evenodd" d="M12.9334 9.50826C13.0096 9.51439 13.0884 9.52073 13.1655 9.51807C13.1199 9.6296 13.0327 9.68433 12.9521 9.73498C12.8456 9.80187 12.7505 9.86164 12.7773 10.0357C12.789 10.1534 12.8714 10.2122 12.9655 10.2357C13.2126 10.2828 13.4361 10.2357 13.6126 10.0475C13.7773 9.88278 13.8008 9.67101 13.7302 9.44749C13.6479 9.18866 13.4479 9.09454 13.2008 9.03572C12.1655 8.80043 11.4361 8.00043 11.3184 6.98866C11.3123 6.93116 11.3065 6.8733 11.3007 6.81528C11.2731 6.54086 11.2452 6.26263 11.1773 6.00043C11.0949 5.67101 10.8478 5.49454 10.5184 5.52984C10.1655 5.55337 9.90667 5.80042 9.9302 6.1416C9.9718 6.80732 10.2065 7.42705 10.4393 8.04145C10.4698 8.12195 10.5002 8.20237 10.5302 8.28278C10.6319 8.56249 10.8802 8.67121 11.1298 8.78053C11.2267 8.82295 11.3238 8.86546 11.4125 8.91807C11.4378 8.93212 11.4633 8.94567 11.4886 8.95911C11.6748 9.05824 11.8507 9.15179 11.8714 9.40043C11.8804 9.53863 11.8995 9.67946 11.9187 9.82055C11.9989 10.4121 12.0797 11.0083 11.4243 11.4357C11.3989 11.4527 11.3857 11.4757 11.3715 11.5005C11.366 11.5101 11.3603 11.52 11.3537 11.5298C10.6243 12.6475 10.9184 14.1887 12.0125 14.9887C13.0243 15.7181 14.4126 15.5298 15.2126 14.4828C15.8361 13.671 15.9773 12.7298 15.4949 11.7769C15.0243 10.8357 14.2478 10.3181 13.1655 10.4122C12.7067 10.4475 12.4008 10.3063 12.4243 9.82396C12.4425 9.46876 12.6723 9.48725 12.9334 9.50826ZM13.7536 14.8122C14.636 14.5534 15.1889 13.824 15.1889 12.8946C15.1889 11.8946 14.5183 11.0828 13.5889 10.9534C13.5627 10.9503 13.536 10.9466 13.5092 10.9429C13.3317 10.9183 13.1469 10.8926 13.0242 11.0357C12.892 11.1774 12.9645 11.3267 13.0347 11.4713C13.052 11.5069 13.0691 11.5421 13.083 11.5769C13.1416 11.7234 13.2023 11.8679 13.2624 12.0112C13.3471 12.2131 13.4309 12.4127 13.5066 12.6122C13.5654 12.7769 13.636 12.9769 13.4242 13.071C13.2007 13.1769 13.1066 12.9887 13.036 12.824C12.8595 12.4357 12.6948 12.0357 12.5301 11.6357C12.4007 11.3299 12.2477 11.3063 12.0124 11.5534C11.4477 12.1416 11.3419 13.1534 11.7654 13.9063C12.1771 14.624 13.0242 15.0122 13.7536 14.8122Z" fill="#4452C5"/>
<path fill-rule="evenodd" clip-rule="evenodd" d="M6.51827 10.4117C5.1418 10.4 4.11826 11.447 4.11826 12.8823C4.1065 14.3176 5.13004 15.4 6.49474 15.4C7.81239 15.4 8.85945 14.3176 8.87121 12.9411C8.88298 11.4941 7.88297 10.4235 6.51827 10.4117ZM6.48292 10.941C5.44763 10.941 4.6241 11.8234 4.63587 12.894C4.64763 13.9528 5.52999 14.8822 6.49469 14.8587C7.50646 14.8351 8.35351 13.9528 8.35351 12.9528C8.35351 11.8351 7.51821 10.9293 6.48292 10.941Z" fill="#4452C5"/>
</svg>
