<svg width="20" height="20" viewBox="0 0 20 20" fill="none" xmlns="http://www.w3.org/2000/svg">
<circle cx="10" cy="10" r="9.5" fill="white" stroke="white"/>
<path d="M12.4258 6.35303C12.8729 6.37656 13.1317 6.63538 13.1435 7.04715C13.1552 7.45891 12.9317 7.75303 12.4846 7.78832C12.0611 7.82361 11.7317 7.50597 11.7435 7.07068C11.7552 6.63538 12.0023 6.40009 12.4258 6.35303Z" fill="#4452C5"/>
<path d="M7.27276 7.0823C7.20217 7.50583 7.01393 7.78819 6.55511 7.79995C6.15511 7.81171 5.8257 7.44701 5.86099 7.03524C5.89629 6.59995 6.14335 6.3529 6.59041 6.36466C7.03747 6.37642 7.2257 6.6823 7.27276 7.0823Z" fill="#4452C5"/>
<path fill-rule="evenodd" clip-rule="evenodd" d="M4.23785 9.50572C4.59662 9.77147 4.91411 10.011 5.21364 10.2369C5.44451 10.411 5.66471 10.5771 5.88491 10.741C6.06138 10.8704 6.16726 10.8234 6.22608 10.6234C6.23785 10.5881 6.24961 10.5498 6.26138 10.5116L6.26139 10.5116C6.27315 10.4733 6.28491 10.4351 6.29667 10.3998C6.66138 9.09396 6.7202 9.07043 7.90843 9.67043C8.13784 9.78219 8.36431 9.89689 8.59078 10.0116C8.81725 10.1263 9.04373 10.241 9.27314 10.3528C9.55549 10.494 9.77902 10.694 9.81431 10.9998C9.84961 11.3528 10.0261 11.3998 10.3202 11.3881C10.3844 11.3864 10.4486 11.3852 10.513 11.384C10.8967 11.3768 11.2853 11.3695 11.7084 11.2587L9.66138 9.74101C9.63225 9.71966 9.60185 9.69926 9.57154 9.67893C9.41818 9.57605 9.2672 9.47477 9.29667 9.25866C9.33054 9.01027 9.55945 8.95692 9.75462 8.91142L9.77902 8.90572C10.8567 8.66864 11.8849 8.30324 12.9181 7.9361L13.2025 7.83513C13.7555 7.6469 14.1084 7.78807 14.2025 8.19984C14.3084 8.63513 14.0496 8.95278 13.4614 9.03513C12.7566 9.13693 12.0465 9.22832 11.2827 9.32662L11.2827 9.32663C10.8991 9.376 10.5018 9.42713 10.0849 9.48219L10.1846 9.55516C10.7976 10.0041 11.3001 10.3719 11.8026 10.7292C12.0026 10.8704 12.0731 10.7292 12.1202 10.5528C12.1414 10.4716 12.1615 10.3916 12.1815 10.3119C12.2282 10.1259 12.2743 9.94224 12.332 9.75278C12.4496 9.32925 12.732 9.15278 13.132 9.35278C13.7253 9.63531 14.3186 9.93292 14.9059 10.2275L14.9059 10.2275L14.9061 10.2276C15.0524 10.301 15.1983 10.3742 15.3437 10.4469C15.4849 10.5175 15.6378 10.6351 15.6496 10.7881C15.6688 11.4021 16.0245 11.3902 16.3975 11.3777C16.4819 11.3748 16.5672 11.372 16.6496 11.3763C16.7035 11.3797 16.7622 11.3715 16.8207 11.3633C16.9667 11.3429 17.1118 11.3226 17.179 11.4822C17.264 11.6839 17.1093 11.8473 16.9746 11.9897C16.96 12.0051 16.9457 12.0202 16.932 12.0351C16.5202 12.494 15.8849 12.6234 15.2614 12.3763C15.2261 12.3606 15.1908 12.341 15.1555 12.3214L15.1555 12.3214C15.0849 12.2822 15.0143 12.243 14.9437 12.2351C14.7084 12.1998 14.4967 12.3292 14.3908 12.494C14.3033 12.634 14.4175 12.7024 14.5254 12.767C14.5625 12.7892 14.5989 12.811 14.6261 12.8351C14.7409 12.9335 14.8614 13.0262 14.9796 13.1171C15.0311 13.1567 15.082 13.1959 15.132 13.2351C15.1424 13.2446 15.1532 13.254 15.164 13.2634C15.2745 13.3603 15.39 13.4616 15.2614 13.6116C15.1437 13.7528 15.0026 13.6587 14.8967 13.5763L14.8966 13.5763C14.3672 13.1998 13.8378 12.8234 13.332 12.4234C13.0849 12.2351 12.8731 12.1175 12.6026 12.341C12.5967 12.3469 12.5878 12.3498 12.579 12.3528C12.5702 12.3557 12.5614 12.3587 12.5555 12.3645C12.2173 12.5164 11.8872 12.4293 11.57 12.3457C11.3465 12.2867 11.1293 12.2295 10.9202 12.2587C10.7794 12.2796 10.641 12.3128 10.5034 12.3457L10.5034 12.3457C10.1007 12.4422 9.70586 12.5367 9.2849 12.3175C9.26234 12.3062 9.24008 12.294 9.21793 12.2819L9.2179 12.2819C9.10145 12.2182 8.98798 12.1561 8.84961 12.2351C8.81129 12.2595 8.76678 12.2787 8.72219 12.298C8.6162 12.3438 8.50975 12.3898 8.4849 12.5057C8.45773 12.6235 8.55608 12.6854 8.6511 12.7453C8.6795 12.7632 8.7076 12.7809 8.73196 12.7998L9.29667 13.2234C9.41432 13.3175 9.50843 13.4351 9.40255 13.5763C9.29667 13.7175 9.15549 13.6704 9.03785 13.5881C8.57902 13.2587 8.1202 12.9175 7.67314 12.5763C7.33196 12.3057 7.01431 12.3057 6.55549 12.3645C6.07559 12.4245 5.58652 12.4081 5.09606 12.3915H5.09606H5.09605C4.62463 12.3756 4.15195 12.3597 3.68491 12.4116C3.5555 12.4234 3.39079 12.3057 3.27314 12.2116C3.03785 12.0351 2.75549 11.7998 2.83785 11.5057C2.90016 11.2743 3.12413 11.3055 3.33137 11.3344C3.39802 11.3437 3.46294 11.3528 3.5202 11.3528C4.06686 11.3351 4.60692 11.3373 5.15028 11.3395H5.15028C5.33192 11.3403 5.51392 11.341 5.69667 11.341C5.71828 11.341 5.73548 11.3278 5.76989 11.3013C5.79166 11.2846 5.82033 11.2625 5.86138 11.2351C5.63998 11.0691 5.41991 10.9057 5.20161 10.7436L5.20159 10.7436C4.77031 10.4234 4.34595 10.1083 3.93196 9.78807C3.888 9.75388 3.83896 9.72171 3.78949 9.68926C3.60066 9.56539 3.40544 9.43733 3.46137 9.17631C3.51887 8.90801 3.76367 8.86604 3.986 8.82791C4.03665 8.81923 4.08613 8.81075 4.13196 8.79983C5.14373 8.5763 6.13197 8.24689 7.09667 7.85866C7.23785 7.79983 7.39079 7.74102 7.54373 7.71749C7.93196 7.6469 8.27314 7.74101 8.3555 8.17631C8.43785 8.58807 8.22608 8.87042 7.81432 8.94101C7.217 9.03908 6.61293 9.11688 6.00723 9.19489L6.00723 9.19489L6.00717 9.19489C5.81359 9.21983 5.61983 9.24478 5.42608 9.27042C5.07314 9.3763 4.73197 9.43513 4.23785 9.50572ZM13.9909 11.3058C13.7613 11.4079 13.5685 11.3992 13.386 11.3911C13.316 11.3879 13.2476 11.3849 13.1792 11.3881C13.158 11.3881 13.1355 11.3894 13.1126 11.3907L13.1126 11.3907C12.996 11.3972 12.8694 11.4044 12.8497 11.247C12.8262 11.0705 12.9086 10.894 13.0262 10.7764C13.1359 10.6567 13.2372 10.7315 13.33 10.8001L13.33 10.8001C13.3467 10.8124 13.363 10.8245 13.3791 10.8352C13.5443 10.9518 13.7014 11.0763 13.8769 11.2155L13.9909 11.3058ZM7.78269 11.4027C7.86729 11.4013 7.95559 11.3999 8.04957 11.3999C7.95882 11.173 7.80507 11.0581 7.66392 10.9527C7.62208 10.9214 7.58135 10.891 7.54369 10.8587C7.43781 10.7528 7.28486 10.6352 7.14369 10.7999C7.02604 10.9293 6.93193 11.1058 6.97899 11.2822C7.01766 11.4176 7.14375 11.4099 7.25928 11.4029C7.28433 11.4014 7.30887 11.3999 7.33193 11.3999C7.47782 11.4076 7.62371 11.4052 7.78269 11.4027Z" fill="#4452C5"/>
</svg>
