<svg width="23" height="23" viewBox="0 0 23 23" fill="none" xmlns="http://www.w3.org/2000/svg">
<circle cx="11.1607" cy="11.7681" r="10.9375" fill="white" stroke="white" stroke-width="0.446429"/>
<path d="M10.78 10.812C11.0557 10.812 11.3052 10.8908 11.5152 11.0484C12.198 11.5867 12.9071 12.1119 13.5636 12.6765C14.1676 13.2017 14.1544 13.7401 13.5504 14.2259C12.4212 15.1187 11.2526 15.9722 10.0972 16.8257C9.84771 17.0095 9.53258 17.2984 9.24372 16.9176C8.99424 16.5762 9.26998 16.3005 9.49319 16.0641C10.1234 15.4207 10.7668 14.8036 11.3839 14.1602C11.5284 14.0027 11.9617 13.8582 11.6466 13.5694C11.3971 13.3462 11.0426 13.0704 10.6487 13.3856C10.2941 13.6744 9.95275 13.9764 9.61136 14.2915C8.40338 15.3945 7.1954 16.5105 5.98742 17.6135C5.9349 17.6529 5.8955 17.7054 5.82985 17.7448C5.61977 17.8892 5.39656 18.1387 5.13395 17.9024C4.84509 17.6529 5.05517 17.3771 5.21273 17.1408C5.50159 16.7338 5.80359 16.3267 6.11872 15.9328C7.37922 14.3966 8.53469 12.7684 9.8871 11.311C10.1366 11.0484 10.386 10.7989 10.78 10.812Z" fill="#4452C5"/>
<path d="M13.6952 10.1422C13.7477 9.63009 13.9053 9.35436 14.076 9.09175C14.2467 8.82915 14.3648 8.51402 14.5355 8.1595C14.9163 8.7241 14.7981 9.38062 15.1264 9.91896C15.4153 9.81392 15.4021 9.52505 15.494 9.3281C15.888 8.56654 16.5576 8.52715 17.004 9.26245C17.4504 9.98461 17.4636 10.7593 17.0303 11.5077C16.6758 12.1117 16.19 12.2036 15.796 11.6259C15.4021 11.0482 14.9688 11.0219 14.3648 11.1269C12.5266 11.4552 12.5923 11.7178 12.0277 9.65635C11.9226 9.30184 11.8176 8.93419 11.7913 8.56654C11.7519 8.05446 11.9883 7.67368 12.5266 7.56864C12.9862 7.48986 13.4326 7.88377 13.5114 8.42211C13.5639 8.92106 13.4063 9.44627 13.6952 10.1422Z" fill="#4452C5"/>
<path d="M13.0909 6.70224C13.1172 6.07199 13.6424 5.55991 14.2333 5.5993C14.8373 5.63869 15.2968 6.19017 15.2574 6.82042C15.218 7.45067 14.7585 7.87083 14.1282 7.83144C13.5111 7.80518 13.0647 7.30623 13.0909 6.70224Z" fill="#4452C5"/>
</svg>
