<svg width="52" height="8" viewBox="0 0 52 8" fill="none" xmlns="http://www.w3.org/2000/svg">
<path d="M4.266 0.799V4.939L1.827 0.799H0.792V7H1.89V2.824L4.365 7H5.364V0.799H4.266ZM10.8053 7H11.9663L9.64434 0.799H8.45634L6.12534 7H7.29534L7.83534 5.479H10.2653L10.8053 7ZM8.16834 4.525L9.05034 2.023L9.93234 4.525H8.16834ZM15.4174 0.799L14.1754 5.191L12.9334 0.799H11.7904L13.6804 7H14.6794L16.5604 0.799H15.4174ZM17.544 7H18.642V0.799H17.544V7ZM22.9876 7.09C24.7606 7.09 25.9666 6.064 25.9666 3.805H22.9966V4.723H24.7696C24.7696 4.777 24.7516 4.822 24.7426 4.867C24.5896 5.632 23.8966 6.091 22.9876 6.091C21.8266 6.091 20.9356 5.092 20.9356 3.913C20.9356 2.716 21.8266 1.744 22.9876 1.744C23.5456 1.744 24.0496 1.978 24.4186 2.347L25.2106 1.654C24.6706 1.087 23.8786 0.727 22.9876 0.727C21.2146 0.727 19.8286 2.149 19.8286 3.913C19.8286 5.659 21.2146 7.09 22.9876 7.09ZM30.8356 7H31.9966L29.6746 0.799H28.4866L26.1556 7H27.3256L27.8656 5.479H30.2956L30.8356 7ZM28.1986 4.525L29.0806 2.023L29.9626 4.525H28.1986ZM36.2801 0.799H31.6361V1.78H33.4091V7H34.5071V1.78H36.2801V0.799ZM37.249 7H38.347V0.799H37.249V7ZM42.6837 7.09C44.4477 7.09 45.8337 5.659 45.8337 3.904C45.8337 2.149 44.4477 0.727 42.6837 0.727C40.9107 0.727 39.5337 2.149 39.5337 3.904C39.5337 5.659 40.9107 7.09 42.6837 7.09ZM42.6747 6.055C41.4957 6.055 40.6407 5.092 40.6407 3.904C40.6407 2.716 41.4957 1.753 42.6747 1.753C43.8627 1.753 44.7357 2.716 44.7357 3.904C44.7357 5.092 43.8627 6.055 42.6747 6.055ZM50.4965 0.799V4.939L48.0575 0.799H47.0225V7H48.1205V2.824L50.5955 7H51.5945V0.799H50.4965Z" fill="#6B75CA"/>
</svg>
