<svg height="512pt" viewBox="0 0 512 512" width="512pt" xmlns="http://www.w3.org/2000/svg"><path d="m512 259v173c0 44.113281-35.886719 80-80 80h-352c-44.113281 0-80-35.886719-80-80v-352c0-44.113281 35.886719-80 80-80h174c11.046875 0 20 8.953125 20 20s-8.953125 20-20 20h-174c-22.054688 0-40 17.945312-40 40v352c0 22.054688 17.945312 40 40 40h352c22.054688 0 40-17.945312 40-40v-173c0-11.046875 8.953125-20 20-20s20 8.953125 20 20zm-238.832031-73.214844c.378906.785156.804687 1.550782 1.277343 2.277344 1.515626 2.332031 5.050782 7.683594 9.042969 13.164062l-65.628906 65.628907c-7.8125 7.8125-7.8125 20.476562 0 28.285156 3.902344 3.90625 9.023437 5.859375 14.140625 5.859375s10.238281-1.953125 14.140625-5.855469l36.210937-36.210937c.859376 1.570312 1.691407 3.152344 2.464844 4.6875 3.585938 7.566406 5.402344 15.195312 5.402344 22.683594 0 20.460937-11.691406 43.0625-33.824219 65.386718l-1.84375 1.597656c-.730469.632813-1.414062 1.316407-2.046875 2.046876l-1.589844 1.835937c-22.34375 22.136719-44.941406 33.828125-65.390624 33.828125-11.277344 0-21.707032-3.476562-31.839844-10.617188-.363282-.320312-.738282-.632812-1.121094-.929687l-1.945312-1.488281c-2.890626-2.214844-5.75-4.730469-8.496094-7.476563-13.539063-13.519531-20.121094-27.589843-20.121094-43.011719 0-20.464843 11.695312-43.066406 33.828125-65.394531l1.847656-1.597656c.722657-.628906 1.402344-1.304687 2.027344-2.027344l1.597656-1.84375c17.511719-17.355469 34.484375-28.136719 50.457031-32.046875 10.726563-2.625 17.296876-13.453125 14.667969-24.183594-2.625-10.726562-13.449219-17.296874-24.179687-14.671874-23.320313 5.710937-46.769532 20.203124-69.703125 43.089843-.34375.34375-.675781.695313-.992188 1.0625l-1.144531 1.320313-1.320312 1.144531c-.367188.316406-.722657.648437-1.0625.988281-30.109376 30.15625-46.023438 62.714844-46.023438 94.160156 0 26.214844 10.71875 50.210938 31.855469 71.316407 3.976562 3.972656 8.15625 7.644531 12.425781 10.917969l.644531.492187c.566407.53125 1.167969 1.03125 1.796875 1.492187 17.398438 12.8125 36.507813 19.304688 56.800782 19.304688 31.425781 0 63.984374-15.914062 94.15625-46.019531.347656-.347657.679687-.707031 1-1.078125l1.132812-1.308594 1.316406-1.136719c.367188-.320312.726563-.652343 1.070313-.996093 30.105469-30.15625 46.019531-62.714844 46.019531-94.15625 0-13.558594-3.160156-27.046876-9.390625-40.089844-.050781-.109375-.101563-.21875-.15625-.324219-1.410156-2.820313-4.84375-9.476563-9.066406-16.214844l64.535156-64.535156c7.808594-7.808594 7.808594-20.472656 0-28.285156-7.8125-7.808594-20.476563-7.808594-28.285156 0l-35.667969 35.667969c-1.191406-1.722657-2.367188-3.464844-3.457031-5.113282-3.289063-7.246094-4.953125-14.546875-4.953125-21.71875 0-20.460937 11.695312-43.058594 33.824218-65.386718l1.847657-1.597657c.730469-.632812 1.414062-1.3125 2.042969-2.042969l1.585937-1.839843c22.347656-22.132813 44.949219-33.828125 65.394531-33.828125 11.277344 0 21.710938 3.476562 31.84375 10.621094.363282.320312.734375.628906 1.121094.925781l1.941406 1.488281c2.886719 2.214844 5.746094 4.730469 8.5 7.476562 13.539063 13.519532 20.121094 27.589844 20.121094 43.015626 0 20.460937-11.695312 43.0625-33.828125 65.390624l-1.847656 1.601563c-.722657.625-1.402344 1.304687-2.027344 2.027344l-1.59375 1.839843c-17.175781 17.003907-34.648437 27.523438-51.9375 31.269532-10.792969 2.335937-17.652344 12.984375-15.3125 23.777344 2.027344 9.371093 10.316406 15.769531 19.527344 15.769531 1.402343 0 2.824219-.144531 4.25-.457031 25.074219-5.425782 49.375-19.742188 72.230469-42.546876.34375-.339843.671874-.695312.992187-1.0625l1.140625-1.320312 1.324219-1.144531c.363281-.316407.71875-.648438 1.058593-.988281 30.109376-30.152344 46.023438-62.710938 46.023438-94.15625 0-26.214844-10.71875-50.210938-31.855469-71.316407-3.980469-3.976562-8.160156-7.648437-12.425781-10.917969l-.648438-.5c-.566406-.527343-1.167968-1.023437-1.792968-1.484374-17.394532-12.8125-36.507813-19.308594-56.800782-19.308594-31.421874 0-63.980468 15.914062-94.15625 46.023437-.34375.34375-.679687.703125-1 1.074219l-1.132812 1.3125-1.320312 1.140625c-.367188.316406-.722657.648437-1.066407.992187-30.105469 30.152344-46.019531 62.714844-46.019531 94.15625 0 13.558594 3.15625 27.046876 9.386719 40.089844zm0 0"/></svg>