<svg width="20" height="20" viewBox="0 0 20 20" fill="none" xmlns="http://www.w3.org/2000/svg">
<g clip-path="url(#clip0)">
<path d="M19.9672 3.76384C19.8938 3.5519 19.7072 3.39931 19.4849 3.36956L16.9716 3.03325L16.5532 0.535081C16.5163 0.314439 16.3583 0.133164 16.1449 0.0663306C15.9312 -0.000502888 15.6982 0.0582435 15.5421 0.218613L14.4113 1.37859C13.0257 0.659593 11.4786 0.27797 9.87244 0.27797C7.23541 0.27797 4.75632 1.30489 2.89154 3.16951C1.02692 5.03429 0 7.51354 0 10.1506C0 12.7876 1.02692 15.2668 2.89154 17.1315C4.75632 18.9961 7.23557 20.023 9.87259 20.023C12.5096 20.023 14.9889 18.9961 16.8535 17.1315C18.7181 15.2668 19.745 12.7876 19.745 10.1506C19.745 8.54031 19.3616 6.98925 18.6388 5.6007L19.8322 4.37206C19.9884 4.21108 20.0407 3.97579 19.9672 3.76384ZM16.9852 5.59856L14.7656 5.30193L14.3968 3.0952L15.5751 1.8864L15.8723 3.66176C15.9154 3.91887 16.1211 4.11785 16.3794 4.15248L18.1583 4.39052L16.9852 5.59856ZM1.1879 10.1506C1.1879 5.36175 5.08377 1.46587 9.87244 1.46587C11.1806 1.46587 12.4217 1.75716 13.5353 2.27718L13.336 2.48165C13.2039 2.61714 13.1444 2.80742 13.1755 2.99419L13.4187 4.44881C12.3889 3.80596 11.1734 3.4338 9.87259 3.4338C6.16898 3.4338 3.15598 6.44695 3.15598 10.1504C3.15598 13.854 6.16898 16.8672 9.87259 16.8672C13.5761 16.8672 16.5892 13.854 16.5892 10.1504C16.5892 8.85143 16.2181 7.6376 15.5769 6.60869L17.1242 6.8156C17.1504 6.81911 17.1768 6.82079 17.2029 6.82079C17.3622 6.82079 17.5163 6.75655 17.6289 6.64059L17.7562 6.50966C18.27 7.61761 18.5573 8.85113 18.5573 10.1504C18.5573 14.9392 14.6614 18.8351 9.87259 18.8351C5.08377 18.8351 1.1879 14.9392 1.1879 10.1506ZM12.0503 10.1506C12.0503 11.3514 11.0735 12.3285 9.87259 12.3285C8.67173 12.3285 7.6947 11.3514 7.6947 10.1506C7.6947 8.9497 8.67173 7.97268 9.87259 7.97268C10.2631 7.97268 10.6296 8.07659 10.9468 8.25726L9.45557 9.72759C9.22196 9.95785 9.21936 10.3338 9.44962 10.5674C9.56589 10.6854 9.71909 10.7444 9.87259 10.7444C10.0232 10.7444 10.1738 10.6875 10.2896 10.5735L11.7812 9.1029C11.9525 9.41387 12.0503 9.77093 12.0503 10.1506ZM11.8131 7.40307C11.2642 7.01427 10.5949 6.78478 9.87244 6.78478C8.01666 6.78478 6.50681 8.29464 6.50681 10.1504C6.50681 12.0063 8.01666 13.5162 9.87244 13.5162C11.7284 13.5162 13.2382 12.0063 13.2382 10.1504C13.2382 9.44515 13.0197 8.79009 12.6474 8.24871L14.2018 6.71612C14.9522 7.66003 15.4013 8.85372 15.4013 10.1506C15.4013 13.1991 12.921 15.6793 9.87244 15.6793C6.82388 15.6793 4.34372 13.1991 4.34372 10.1506C4.34372 7.10186 6.82388 4.62169 9.87244 4.62169C11.1972 4.62169 12.4147 5.09029 13.3679 5.87017L11.8131 7.40307Z" fill="white"/>
</g>
<defs>
<clipPath id="clip0">
<rect width="20" height="20" fill="white"/>
</clipPath>
</defs>
</svg>
