<svg width="20" height="20" viewBox="0 0 20 20" fill="none" xmlns="http://www.w3.org/2000/svg">
<circle cx="10" cy="10" r="9.5" fill="white" stroke="white"/>
<path d="M8.07432 8.02389C8.06256 8.76506 7.53314 9.32977 6.85079 9.31801C6.19197 9.30624 5.59197 8.69448 5.59197 8.02389C5.58021 7.32977 6.15668 6.718 6.81551 6.70624C7.54492 6.69447 8.08609 7.24742 8.07432 8.02389Z" fill="#4452C5"/>
<path fill-rule="evenodd" clip-rule="evenodd" d="M9.22757 10.3181C9.58051 9.8122 10.0276 9.47103 10.7099 9.55338C10.5509 9.67659 10.4363 9.85082 10.3215 10.0253C10.0964 10.3672 9.87081 10.71 9.30991 10.671C9.22756 10.671 9.10992 10.8004 9.0511 10.8946C8.99144 10.999 8.90343 11.101 8.81552 11.2029C8.62603 11.4226 8.43701 11.6417 8.53345 11.8828C8.61658 12.0944 8.85994 12.0778 9.11069 12.0608C9.25026 12.0512 9.39212 12.0416 9.50991 12.071C10.204 12.2475 10.5687 11.8946 10.8393 11.3181C10.9264 11.1342 11.0254 10.9584 11.1241 10.7831C11.2654 10.5321 11.406 10.2824 11.5099 10.0122C11.804 9.27103 12.3099 9.00044 13.0864 8.96515C13.8006 8.94023 14.5148 8.84497 15.229 8.74972C15.5265 8.71003 15.8241 8.67034 16.1217 8.63573C16.3334 8.60044 16.5217 8.54161 16.4864 8.27102C16.4511 8.0475 16.2746 8.01221 16.0864 8.01221C15.9687 8.01221 15.8511 8.02397 15.7334 8.03573C15.4444 8.06598 15.1554 8.09431 14.8663 8.12264C14.1436 8.19347 13.4209 8.2643 12.6982 8.36515C12.3866 8.41074 12.0677 8.43057 11.749 8.45038C11.0807 8.49192 10.4132 8.53342 9.8158 8.81221C8.87463 9.2475 7.90991 9.40044 6.92167 9.4828C6.7622 9.49784 6.60196 9.52443 6.44095 9.55114C5.97242 9.62888 5.49737 9.7077 5.0158 9.50632C4.4158 9.25926 3.94521 9.42397 3.67462 9.87103C3.40403 10.3416 3.50992 10.9651 4.00404 11.3416C4.67743 11.8493 5.3782 12.3295 6.0742 12.8065C6.16858 12.8712 6.26286 12.9358 6.35698 13.0004C6.80404 13.3063 7.20404 13.2357 7.52169 12.7769C8.08639 11.9534 8.6511 11.1416 9.22757 10.3181ZM7.27814 10.964C7.33671 10.8567 7.39565 10.7487 7.48643 10.6827C7.37925 10.7224 7.26135 10.7326 7.14449 10.7427C6.91502 10.7626 6.68954 10.7822 6.55702 11.0239C6.53349 11.0709 6.67468 11.2592 6.75703 11.2827C7.06255 11.3591 7.16972 11.1627 7.27814 10.964Z" fill="#4452C5"/>
</svg>
