<svg width="20" height="20" viewBox="0 0 20 20" fill="none" xmlns="http://www.w3.org/2000/svg">
<circle cx="10" cy="10" r="9.5" fill="white" stroke="white"/>
<path d="M10.3261 5.57567C10.032 4.8345 9.54967 4.36391 9.18497 3.82274C9.07909 3.65803 8.96143 3.50509 8.86731 3.32862C8.78496 3.17568 8.8085 3.01097 8.94967 2.90508C9.09085 2.78744 9.25555 2.7992 9.3732 2.92862C10.1144 3.70509 10.9261 4.4345 11.4908 5.36391C11.6791 5.65803 11.4203 5.68156 11.2203 5.69332C10.7967 5.72862 10.5379 5.85803 10.585 6.37567C10.632 7.04626 10.1497 7.48155 9.53791 7.4345C8.98497 7.38744 8.59672 6.8345 8.69084 6.2345C8.78496 5.64627 9.29084 5.32861 9.91437 5.45803C10.0085 5.46979 10.1026 5.50509 10.3261 5.57567Z" fill="#4452C5"/>
<path d="M13.2318 7.54052C12.8671 7.57581 12.4907 7.62288 12.1259 7.64641C11.7377 7.66993 11.373 7.57581 11.1848 7.18758C11.0436 6.90522 11.0789 6.61111 11.2554 6.35229C11.5024 6.01111 11.8436 6.03464 12.2083 6.09346C13.5024 6.30523 14.7024 6.75229 15.8436 7.38758C16.0671 7.51699 16.3259 7.6464 16.2083 7.96405C16.0789 8.30522 15.7965 8.18758 15.5612 8.11699C14.7848 7.92876 14.0789 7.4817 13.2318 7.54052Z" fill="#4452C5"/>
<path d="M11.1732 16.5874C11.2203 16.5404 11.2555 16.5051 11.3026 16.458C11.432 16.4815 11.585 16.4815 11.6908 16.5404C11.8908 16.6462 11.9144 16.8462 11.8438 17.0462C11.785 17.2109 11.6673 17.3051 11.4908 17.2815C11.2791 17.258 11.1967 17.1168 11.1732 16.9286C11.1614 16.8227 11.1732 16.7051 11.1732 16.5874Z" fill="#4452C5"/>
<path d="M14.585 14.3521C14.6321 14.305 14.6674 14.2697 14.7144 14.2227C14.8438 14.2462 14.9968 14.2462 15.1027 14.305C15.2791 14.3991 15.3144 14.5756 15.2556 14.7638C15.2085 14.9285 15.0909 15.0344 14.9144 15.0344C14.7027 15.0344 14.5968 14.8815 14.5732 14.6932C14.5732 14.5874 14.585 14.4697 14.585 14.3521Z" fill="#4452C5"/>
<path fill-rule="evenodd" clip-rule="evenodd" d="M14.1346 14.5915C14.3094 14.4961 14.4473 14.4209 14.5851 14.352C14.6557 14.3402 14.7028 14.3049 14.691 14.2343C14.7498 14.1834 14.8099 14.1337 14.8701 14.084C14.9903 13.9847 15.1106 13.8853 15.2204 13.7755C15.4792 13.5167 15.7498 13.2226 15.5381 12.8461C15.3145 12.4461 14.9028 12.399 14.5028 12.552C14.1381 12.6932 13.9028 12.5873 13.7145 12.2814C13.6086 12.0932 13.4792 11.9167 13.3263 11.7638C12.9028 11.3285 12.6792 10.8814 13.2439 10.3755C13.3453 10.2854 13.3927 10.1307 13.4379 9.98352C13.4399 9.97691 13.4419 9.97032 13.4439 9.96375C13.5969 9.46963 13.4439 9.06964 12.9851 8.82258C12.5381 8.58728 12.091 8.70493 11.8675 9.12846C11.7142 9.4162 11.5468 9.69728 11.3794 9.97835C10.9172 10.7545 10.4551 11.5306 10.291 12.4461C10.2204 12.8461 10.0439 12.9167 9.67923 12.7873C9.14982 12.5873 8.60865 12.4108 8.06747 12.2461C6.67924 11.8226 5.25571 11.552 3.82042 11.352C3.64395 11.3285 3.45571 11.3049 3.34983 11.4932C3.27924 11.6226 3.26747 11.7638 3.36159 11.8814C3.45589 12.0134 3.59554 12.0245 3.73812 12.0358C3.77343 12.0386 3.80892 12.0414 3.84394 12.0461C5.77335 12.3049 7.65571 12.752 9.47924 13.4343C9.50986 13.4456 9.54136 13.4562 9.57315 13.4669C9.77337 13.5344 9.98464 13.6056 10.0557 13.8696C10.2322 14.5285 9.80864 15.4343 9.20864 15.7167C9.1892 15.7259 9.16946 15.7351 9.14962 15.7444C8.9174 15.8525 8.67118 15.9671 8.71453 16.2814C8.75699 16.5786 9.01015 16.6555 9.24934 16.7282C9.27525 16.7361 9.30099 16.7439 9.32629 16.752C9.83917 16.9229 10.3291 16.8025 10.8207 16.6817C10.938 16.6528 11.0555 16.624 11.1734 16.599C11.2439 16.5873 11.291 16.552 11.3028 16.4696C11.4586 16.3646 11.6155 16.2617 11.7721 16.159C12.1241 15.9283 12.4748 15.6985 12.8086 15.4461C13.1263 15.2108 13.4086 15.2108 13.7263 15.4108C13.8523 15.4864 13.9782 15.5624 14.1043 15.6384C14.6845 15.9882 15.2661 16.3389 15.8557 16.6579C15.9264 16.6948 15.9996 16.7574 16.0743 16.8214C16.2854 17.0022 16.5091 17.1937 16.7263 16.8461C16.9683 16.4645 16.658 16.3185 16.378 16.1868C16.3041 16.152 16.2323 16.1182 16.1734 16.0814C15.5488 15.6821 14.9152 15.3006 14.234 14.8903C14.1326 14.8292 14.03 14.7675 13.9263 14.7049C14.0019 14.664 14.0707 14.6264 14.1346 14.5915ZM12.0675 12.0109C11.5616 12.1874 11.4204 12.6345 11.291 13.2109C11.3268 13.5422 11.6215 13.6282 11.9107 13.7125C12.0015 13.7391 12.0918 13.7654 12.1734 13.7992C12.4087 13.8933 13.1969 13.3403 13.1969 13.1403C13.1969 12.9874 12.2087 11.9639 12.0675 12.0109Z" fill="#4452C5"/>
</svg>
