<svg width="33" height="32" viewBox="0 0 33 32" fill="none" xmlns="http://www.w3.org/2000/svg">
<path d="M18.5625 2C18.5625 0.9 17.6344 0 16.5 0C15.3656 0 14.4375 0.9 14.4375 2V20H12.375V24H14.4375V30C14.4375 31.1 15.3656 32 16.5 32C17.6344 32 18.5625 31.1 18.5625 30V24H20.625V20H18.5625V2ZM6.1875 2C6.1875 0.9 5.25938 0 4.125 0C2.99062 0 2.0625 0.9 2.0625 2V12H0V16H2.0625V30C2.0625 31.1 2.99062 32 4.125 32C5.25938 32 6.1875 31.1 6.1875 30V16H8.25V12H6.1875V2ZM33 8H30.9375V2C30.9375 0.9 30.0094 0 28.875 0C27.7406 0 26.8125 0.9 26.8125 2V8H24.75V12H26.8125V30C26.8125 31.1 27.7406 32 28.875 32C30.0094 32 30.9375 31.1 30.9375 30V12H33V8Z" fill="#6B75CA"/>
</svg>
