<svg width="69" height="47" viewBox="0 0 69 47" fill="none" xmlns="http://www.w3.org/2000/svg">
<path d="M67.8428 0L2.05544 0C1.76464 0 1.48575 0.115519 1.28013 0.321145C1.0745 0.52677 0.958984 0.805658 0.958984 1.09646L0.958984 44.9547C0.958984 45.2455 1.0745 45.5244 1.28013 45.73C1.48575 45.9356 1.76464 46.0511 2.05544 46.0511L67.8428 46.0511C68.1336 46.0511 68.4125 45.9356 68.6181 45.73C68.8237 45.5244 68.9393 45.2455 68.9393 44.9547V1.09646C68.9393 0.805658 68.8237 0.52677 68.6181 0.321145C68.4125 0.115519 68.1336 0 67.8428 0ZM55.7818 25.9821C55.7818 26.6357 55.1555 27.1122 54.5971 26.7725C54.143 26.4963 53.7398 26.1379 53.4098 25.712C52.8141 24.9432 52.4907 23.9982 52.4907 23.0256C52.4907 22.053 52.8141 21.1079 53.4098 20.3391C53.7398 19.9133 54.143 19.5549 54.5971 19.2786C55.1555 18.9389 55.7818 19.4155 55.7818 20.0691V25.9821ZM57.9747 13.061C57.9747 12.5087 58.4224 12.061 58.9747 12.061H65.7596C66.3067 12.061 66.7522 12.5006 66.7595 13.0477L66.7887 15.2384V16.4574C66.7887 16.4574 66.7887 16.7762 66.7887 17.067L66.7585 24.3814L66.7529 25.6005L66.7463 29.2577V30.7008V32.9901C66.7463 33.5424 66.2986 33.9901 65.7463 33.9901L58.9747 33.9901C58.4224 33.9901 57.9747 33.5424 57.9747 32.9901V13.061ZM66.7873 18.5818L66.7887 18.8956L66.7463 26.8195L66.7887 18.286L66.7873 18.5818ZM33.8527 29.4666C33.8527 30.0757 33.3096 30.5475 32.7266 30.3712C31.3455 29.9536 30.1019 29.1523 29.1471 28.0499C27.9387 26.6549 27.2736 24.8711 27.2736 23.0256C27.2736 21.18 27.9387 19.3963 29.1471 18.0012C30.1019 16.8988 31.3455 16.0975 32.7266 15.6799C33.3096 15.5036 33.8527 15.9755 33.8527 16.5845V29.4666ZM36.0456 16.5845C36.0456 15.9755 36.5886 15.5036 37.1716 15.6799C38.5528 16.0975 39.7963 16.8988 40.7512 18.0012C41.9595 19.3963 42.6246 21.18 42.6246 23.0256C42.6246 24.8711 41.9595 26.6549 40.7512 28.0499C39.7963 29.1523 38.5528 29.9536 37.1716 30.3712C36.5886 30.5475 36.0456 30.0757 36.0456 29.4666V16.5845ZM14.1165 20.0691C14.1165 19.4155 14.7427 18.9389 15.3011 19.2786C15.7552 19.5549 16.1584 19.9133 16.4884 20.3391C17.0842 21.1079 17.4075 22.053 17.4075 23.0256C17.4075 23.9982 17.0842 24.9432 16.4884 25.712C16.1584 26.1379 15.7552 26.4963 15.3011 26.7725C14.7427 27.1122 14.1165 26.6357 14.1165 25.9821V20.0691ZM11.9235 32.9901C11.9235 33.5424 11.4758 33.9901 10.9235 33.9901H4.1519C3.59961 33.9901 3.1519 33.5424 3.1519 32.9901V30.7008V29.7682V28.5079C3.1519 28.5079 3.1519 25.2024 3.1519 24.9116L3.1519 16.4196V15.3504V13.061C3.1519 12.5087 3.59961 12.061 4.1519 12.061H10.9235C11.4758 12.061 11.9235 12.5087 11.9235 13.061L11.9235 32.9901ZM3.1519 37.183C3.1519 36.6308 3.59961 36.183 4.1519 36.183H13.02C13.3108 36.183 13.5897 36.0675 13.7953 35.8619C14.0009 35.6563 14.1165 35.3774 14.1165 35.0866V30.3565C14.1165 29.8685 14.4718 29.4597 14.9386 29.3174C16.1435 28.9502 17.2238 28.2427 18.0445 27.2717C19.0481 26.0845 19.5987 24.5801 19.5987 23.0256C19.5987 21.471 19.0481 19.9667 18.0445 18.7794C17.2238 17.8085 16.1435 17.1009 14.9387 16.7337C14.4718 16.5915 14.1165 16.1826 14.1165 15.6946V10.9646C14.1165 10.6738 14.0009 10.3949 13.7953 10.1892C13.5897 9.98362 13.3108 9.8681 13.02 9.8681H4.1519C3.59961 9.8681 3.1519 9.42039 3.1519 8.8681L3.1519 3.19291C3.1519 2.64063 3.59961 2.19291 4.1519 2.19291L32.8527 2.19291C33.4049 2.19291 33.8527 2.64063 33.8527 3.19291V12.3253C33.8527 12.8346 33.4683 13.2571 32.9694 13.3593C30.9002 13.7828 29.0127 14.8615 27.5941 16.4474C25.9759 18.2564 25.0813 20.5984 25.0813 23.0256C25.0813 25.4527 25.9759 27.7947 27.5941 29.6037C29.0127 31.1896 30.9002 32.2684 32.9694 32.6919C33.4683 32.794 33.8527 33.2165 33.8527 33.7258V42.8582C33.8527 43.4105 33.4049 43.8582 32.8527 43.8582H4.1519C3.59961 43.8582 3.1519 43.4105 3.1519 42.8582V37.183ZM37.0456 43.8582C36.4933 43.8582 36.0456 43.4105 36.0456 42.8582V33.7258C36.0456 33.2165 36.4299 32.794 36.9289 32.6919C38.9981 32.2684 40.8855 31.1896 42.3041 29.6037C43.9223 27.7947 44.8169 25.4527 44.8169 23.0256C44.8169 20.5984 43.9223 18.2564 42.3041 16.4474C40.8855 14.8615 38.9981 13.7828 36.9289 13.3593C36.4299 13.2571 36.0456 12.8346 36.0456 12.3253V3.19291C36.0456 2.64063 36.4933 2.19291 37.0456 2.19291L65.7463 2.19291C66.2986 2.19291 66.7463 2.64063 66.7463 3.19291V8.8681C66.7463 9.42039 66.2986 9.8681 65.7463 9.8681H56.8782C56.5874 9.8681 56.3086 9.98362 56.1029 10.1892C55.8973 10.3949 55.7818 10.6738 55.7818 10.9646V15.6946C55.7818 16.1826 55.4264 16.5915 54.9596 16.7337C53.7547 17.1009 52.6744 17.8085 51.8537 18.7794C50.8501 19.9667 50.2995 21.471 50.2995 23.0256C50.2995 24.5801 50.8501 26.0845 51.8537 27.2717C52.6744 28.2427 53.7547 28.9502 54.9596 29.3174C55.4264 29.4597 55.7818 29.8685 55.7818 30.3565V35.0866C55.7818 35.3774 55.8973 35.6563 56.1029 35.8619C56.3086 36.0675 56.5874 36.183 56.8782 36.183L65.7463 36.183C66.2986 36.183 66.7463 36.6308 66.7463 37.183V42.8582C66.7463 43.4105 66.2986 43.8582 65.7463 43.8582L37.0456 43.8582Z" fill="#4452C5"/>
</svg>
