<svg width="20" height="23" viewBox="0 0 20 23" fill="none" xmlns="http://www.w3.org/2000/svg">
<g clip-path="url(#clip0)">
<path d="M19.6725 15.3089C19.5165 15.2207 19.3654 15.1097 19.2234 14.9791C18.1717 14.0115 16.8236 13.8384 15.6653 14.4583L13.0673 11.4706C14.2958 11.3883 15.2734 10.2133 15.2734 8.78031C15.2734 7.29412 14.222 6.08505 12.9297 6.08505C11.6836 6.08505 10.6619 7.20931 10.5904 8.62205L8.97022 6.75887L11.2429 4.14523C11.93 3.35514 11.9301 2.07689 11.2429 1.28667C10.5576 0.498518 9.44252 0.498518 8.75721 1.28667L5.24162 5.3296C4.55455 6.11968 4.55443 7.39793 5.24162 8.18815L7.171 10.407L3.84779 14.2286C2.82779 13.9104 1.72541 14.1602 0.835254 14.979C0.679082 15.1227 0.512286 15.2423 0.339473 15.3345C0.0459183 15.4911 -0.0816208 15.8918 0.0545511 16.2294C0.190762 16.5669 0.539082 16.7137 0.832676 16.557C1.09065 16.4194 1.33783 16.2426 1.56732 16.0314C2.41143 15.2548 3.54572 15.2547 4.3899 16.0314C5.66662 17.206 7.35596 17.2104 8.63756 16.0314C9.48303 15.2536 10.5756 15.2536 11.4211 16.0314C12.6978 17.206 14.3871 17.2104 15.6687 16.0314C16.5128 15.2547 17.6471 15.2548 18.4913 16.0314C18.6996 16.2231 18.9231 16.3869 19.1555 16.5183C19.4458 16.6825 19.797 16.5448 19.9398 16.2109C20.0826 15.877 19.9629 15.4731 19.6725 15.3089ZM12.9297 7.4327C13.5759 7.4327 14.1016 8.03726 14.1016 8.78036C14.1016 9.52346 13.5759 10.128 12.9297 10.128C12.2835 10.128 11.7578 9.52346 11.7578 8.78036C11.7578 8.03726 12.2835 7.4327 12.9297 7.4327ZM12.1531 14.9791C11.5258 14.402 10.7915 14.097 10.0293 14.097C9.26717 14.097 8.53279 14.402 7.90549 14.9791C7.05998 15.7569 5.96744 15.7569 5.12197 14.9791C5.0715 14.9326 5.0201 14.8887 4.9683 14.8459L8.41393 10.8834C8.64276 10.6203 8.64276 10.1936 8.41393 9.93049L6.07022 7.23523C5.84115 6.97176 5.84108 6.54599 6.07022 6.28248L9.5858 2.23956C9.81494 1.97609 10.1851 1.97609 10.4143 2.23956C10.6434 2.50302 10.6434 2.92875 10.4143 3.1923L7.72725 6.28239C7.49842 6.54554 7.49842 6.97216 7.72725 7.23532L14.6555 15.2027C13.8586 15.7473 12.9076 15.6732 12.1531 14.9791Z" fill="white"/>
<path d="M19.6725 18.0041C19.5164 17.9159 19.3653 17.8049 19.2233 17.6743C17.9413 16.4948 16.2186 16.4949 14.9367 17.6743C14.0912 18.4521 12.9986 18.4521 12.1531 17.6743C11.5258 17.0972 10.7915 16.7921 10.0293 16.7921C9.26717 16.7921 8.53279 17.0972 7.90549 17.6743C7.05998 18.4521 5.96744 18.4521 5.12197 17.6743C3.83998 16.4948 2.11732 16.4948 0.835254 17.6743C0.679082 17.8179 0.512285 17.9375 0.339473 18.0297C0.0459183 18.1864 -0.0816208 18.587 0.0545511 18.9246C0.190762 19.2622 0.539082 19.4089 0.832676 19.2522C1.09064 19.1146 1.33783 18.9378 1.56732 18.7266C2.41143 17.95 3.54572 17.95 4.3899 18.7266C5.66662 19.9012 7.35596 19.9057 8.63756 18.7266C9.48303 17.9488 10.5756 17.9488 11.4211 18.7266C12.6978 19.9012 14.3871 19.9057 15.6687 18.7266C16.5128 17.95 17.6471 17.95 18.4913 18.7266C18.6996 18.9183 18.9231 19.0822 19.1554 19.2135C19.4458 19.3778 19.797 19.2401 19.9398 18.9062C20.0825 18.5722 19.9629 18.1683 19.6725 18.0041Z" fill="white"/>
<path d="M19.6725 20.6993C19.5164 20.6111 19.3653 20.5001 19.2233 20.3694C17.9413 19.19 16.2186 19.19 14.9367 20.3694C14.0912 21.1473 12.9986 21.1473 12.1531 20.3694C11.5258 19.7923 10.7915 19.4873 10.0293 19.4873C9.26717 19.4873 8.53279 19.7923 7.90549 20.3694C7.05998 21.1473 5.96744 21.1473 5.12197 20.3694C3.83998 19.19 2.11732 19.19 0.835254 20.3694C0.679082 20.5131 0.512285 20.6327 0.339473 20.7249C0.0459183 20.8816 -0.0816208 21.2822 0.0545511 21.6198C0.190762 21.9573 0.539082 22.1041 0.832676 21.9474C1.09064 21.8098 1.33783 21.633 1.56732 21.4218C2.41143 20.6452 3.54572 20.6451 4.3899 21.4218C5.66662 22.5964 7.35596 22.6009 8.63756 21.4218C9.48303 20.644 10.5756 20.644 11.4211 21.4218C12.6978 22.5964 14.3871 22.6009 15.6687 21.4218C16.5128 20.6452 17.6471 20.6452 18.4913 21.4218C18.6996 21.6135 18.9231 21.7773 19.1554 21.9087C19.4458 22.0729 19.797 21.9352 19.9398 21.6013C20.0825 21.2673 19.9629 20.8635 19.6725 20.6993Z" fill="white"/>
</g>
<defs>
<clipPath id="clip0">
<rect width="20" height="23" fill="white"/>
</clipPath>
</defs>
</svg>
