<svg width="20" height="20" viewBox="0 0 20 20" fill="none" xmlns="http://www.w3.org/2000/svg">
<circle cx="10" cy="10" r="9.5" fill="white" stroke="white"/>
<path d="M9.48598 12.1989C8.70951 11.6695 7.69774 12.5401 6.78009 11.9989C6.63892 11.9166 6.48598 12.0578 6.33304 12.0695C5.28598 12.1872 4.25068 12.0813 3.20362 12.0931C3.06245 12.0931 2.86245 12.0342 2.82715 11.8578C2.79186 11.6578 3.00362 11.6225 3.13304 11.5636C4.81539 10.8225 6.55657 10.3166 8.36833 10.1048C8.55657 10.0813 8.80362 10.1401 8.87421 9.91659C8.93304 9.71659 8.78009 9.54012 8.67421 9.38718C8.52127 9.16365 8.33304 9.28129 8.1448 9.35188C7.42715 9.61071 6.70951 9.86953 5.99186 10.1401C5.72127 10.2342 5.42715 10.3048 5.28598 9.96365C5.15657 9.646 5.36833 9.446 5.62715 9.30482C6.5448 8.83423 7.47421 8.36364 8.40362 7.89306C8.88598 7.646 9.27421 7.76365 9.59186 8.17541C10.0272 8.75188 10.4624 9.32835 10.886 9.91659C11.1919 10.3284 11.3919 10.7754 11.0742 11.2695C10.7448 11.8107 10.2977 12.1989 9.48598 12.1989Z" fill="#4452C5"/>
<path d="M12.5569 12.1874C11.9098 12.1639 11.4275 11.658 11.451 10.9992C11.4745 10.2815 12.004 9.75213 12.6745 9.77566C13.2981 9.81095 13.7922 10.3874 13.7569 11.0698C13.7216 11.7168 13.1804 12.211 12.5569 12.1874Z" fill="#4452C5"/>
<path d="M15.9566 12.1991C15.4507 12.0109 14.8389 12.0344 14.1919 12.1873C13.8271 12.2697 13.6036 12.1285 13.8389 11.6579C14.2271 10.8226 14.2036 10.7991 15.133 11.0226C15.7095 11.152 16.2742 11.3167 16.8389 11.4697C16.9683 11.505 17.133 11.5167 17.1683 11.6815C17.2036 11.8815 17.0036 11.9285 16.886 11.9991C16.6272 12.1403 16.3566 12.1991 15.9566 12.1991Z" fill="#4452C5"/>
</svg>
