<svg width="209" height="87" viewBox="0 0 209 87" fill="none" xmlns="http://www.w3.org/2000/svg">
<mask id="mask0" mask-type="alpha" maskUnits="userSpaceOnUse" x="0" y="0" width="49" height="87">
<path d="M31.7059 4.34998H17.2941C16.4987 4.34998 15.853 4.99959 15.853 5.79992C15.853 6.60025 16.4987 7.24986 17.2941 7.24986H31.7059C32.5013 7.24986 33.147 6.60025 33.147 5.79992C33.147 4.99959 32.5013 4.34998 31.7059 4.34998Z" fill="#4452C5"/>
<path d="M41.7943 4.34998H40.3532C39.5578 4.34998 38.9121 4.99959 38.9121 5.79992C38.9121 6.60025 39.5578 7.24986 40.3532 7.24986H41.7943C42.5898 7.24986 43.2355 6.60025 43.2355 5.79992C43.2355 4.99959 42.5898 4.34998 41.7943 4.34998Z" fill="#4452C5"/>
<path d="M26.2904 73.95H22.712C20.52 73.95 18.7358 75.745 18.7358 77.9504V78.6508C18.7358 80.8563 20.52 82.6499 22.7106 82.6499H26.289C28.481 82.6499 30.2651 80.8563 30.2651 78.6508V77.9504C30.2651 75.745 28.481 73.95 26.2904 73.95ZM27.3829 78.6508C27.3829 79.2569 26.893 79.7499 26.2905 79.7499H22.712C22.1082 79.7499 21.6181 79.2569 21.6181 78.6508V77.9504C21.6181 77.343 22.108 76.8498 22.712 76.8498H26.289C26.893 76.8498 27.3829 77.3428 27.3829 77.9504V78.6508Z" fill="#4452C5"/>
<path d="M43.7917 0H5.20986C2.33758 0 0 2.35189 0 5.24175V81.7583C0 84.6481 2.33758 87 5.20986 87H43.7901C46.6624 87 49 84.6481 49 81.7598V5.24175C49.0002 2.35189 46.6626 0 43.7917 0ZM46.1178 81.7583C46.1178 83.0488 45.0744 84.0999 43.7917 84.0999H5.20986C3.9258 84.0999 2.88241 83.0486 2.88241 81.7596V5.24175C2.88241 3.95119 3.9258 2.90006 5.20986 2.90006H43.7901C45.0742 2.90006 46.1176 3.95136 46.1176 5.24175V81.7583H46.1178Z" fill="#4452C5"/>
<path d="M47.5587 8.69983H1.44112C0.64566 8.69983 0 9.34944 0 10.1498V71.0498C0 71.8501 0.64566 72.4997 1.44112 72.4997H47.5589C48.3543 72.4997 49 71.8501 49 71.0498V10.1498C49 9.34944 48.3543 8.69983 47.5587 8.69983ZM46.1176 69.5998H2.88224V11.5999H46.1176V69.5998Z" fill="#4452C5"/>
</mask>
<g mask="url(#mask0)">
<rect width="49" height="87" fill="url(#paint0_linear)"/>
</g>
<mask id="mask1" mask-type="alpha" maskUnits="userSpaceOnUse" x="122" y="0" width="87" height="87">
<path d="M204.649 0H126.351C123.88 0.0789052 121.937 2.13908 122.002 4.61083V67.8865C121.937 70.3583 123.88 72.4184 126.351 72.4973H151.552L148.652 78.2971H143.751C141.348 78.2971 139.401 80.2446 139.401 82.647C139.401 85.0493 141.348 86.9968 143.751 86.9968H187.249C189.652 86.9968 191.599 85.0493 191.599 82.647C191.599 80.2446 189.652 78.2971 187.249 78.2971H182.348L179.448 72.4973H204.649C207.12 72.4184 209.063 70.3583 208.998 67.8865V4.61083C209.063 2.13908 207.12 0.0789052 204.649 0V0ZM188.699 82.647C188.699 83.4478 188.05 84.0969 187.249 84.0969H143.751C142.95 84.0969 142.301 83.4478 142.301 82.647C142.301 81.8462 142.95 81.197 143.751 81.197H187.249C188.05 81.197 188.699 81.8462 188.699 82.647ZM179.101 78.2971H151.899L154.799 72.4973H176.201L179.101 78.2971ZM204.649 69.5975H126.351C125.489 69.506 124.85 68.7526 124.901 67.8865V63.7977H130.701C131.502 63.7977 132.151 63.1485 132.151 62.3477C132.151 61.5469 131.502 60.8978 130.701 60.8978H124.901V4.61083C124.85 3.74477 125.489 2.99133 126.351 2.89989H204.649C205.511 2.99133 206.15 3.74477 206.099 4.61083V60.8978H136.501C135.7 60.8978 135.051 61.5469 135.051 62.3477C135.051 63.1485 135.7 63.7977 136.501 63.7977H206.099V67.8865C206.15 68.7526 205.511 69.506 204.649 69.5975Z" fill="#4452C5"/>
<path d="M129.251 14.4996C129.637 14.5018 130.007 14.3505 130.281 14.0791L136.081 8.27929C136.649 7.71073 136.649 6.78892 136.081 6.22036C135.512 5.65181 134.59 5.65181 134.022 6.22036L128.222 12.0202C127.947 12.2924 127.793 12.663 127.793 13.0496C127.793 13.4362 127.947 13.8068 128.222 14.0791C128.495 14.3505 128.866 14.5018 129.251 14.4996Z" fill="#4452C5"/>
<path d="M144.78 6.22027C144.508 5.94578 144.137 5.79138 143.751 5.79138C143.364 5.79138 142.994 5.94578 142.721 6.22027L128.222 20.7197C127.947 20.992 127.793 21.3626 127.793 21.7492C127.793 22.1358 127.947 22.5064 128.222 22.7787C128.494 23.0532 128.865 23.2076 129.251 23.2076C129.638 23.2076 130.009 23.0532 130.281 22.7787L144.78 8.2792C145.055 8.00695 145.209 7.63635 145.209 7.24974C145.209 6.86313 145.055 6.49253 144.78 6.22027Z" fill="#4452C5"/>
</mask>
<g mask="url(#mask1)">
<rect x="122" width="87" height="87" fill="url(#paint1_linear)"/>
</g>
<mask id="mask2" mask-type="alpha" maskUnits="userSpaceOnUse" x="59" y="31" width="53" height="18">
<path d="M59 32.7662C59 31.9889 59.848 31.5088 60.5145 31.9087L72.5708 39.1425C73.2182 39.5309 73.2182 40.4691 72.5708 40.8575L60.5145 48.0913C59.848 48.4912 59 48.0111 59 47.2338V32.7662Z" fill="url(#paint2_linear)"/>
<path d="M78 32.7662C78 31.9889 78.848 31.5088 79.5145 31.9087L91.5708 39.1425C92.2182 39.5309 92.2182 40.4691 91.5708 40.8575L79.5145 48.0913C78.848 48.4912 78 48.0111 78 47.2338V32.7662Z" fill="#8F97DC"/>
<path d="M97 32.7662C97 31.9889 97.848 31.5088 98.5145 31.9087L110.571 39.1425C111.218 39.5309 111.218 40.4691 110.571 40.8575L98.5145 48.0913C97.848 48.4912 97 48.0111 97 47.2338V32.7662Z" fill="url(#paint3_linear)"/>
</mask>
<g mask="url(#mask2)">
<rect x="59" y="31" width="53" height="18" fill="url(#paint4_linear)"/>
</g>
<defs>
<linearGradient id="paint0_linear" x1="49" y1="87" x2="-24.8475" y2="35.9286" gradientUnits="userSpaceOnUse">
<stop stop-color="#64E0B9"/>
<stop offset="0.930911" stop-color="#4451C4"/>
</linearGradient>
<linearGradient id="paint1_linear" x1="209" y1="87" x2="131.708" y2="-7.90654" gradientUnits="userSpaceOnUse">
<stop stop-color="#64E0B9"/>
<stop offset="0.930911" stop-color="#4451C4"/>
</linearGradient>
<linearGradient id="paint2_linear" x1="74" y1="40" x2="59" y2="40" gradientUnits="userSpaceOnUse">
<stop stop-color="#64E0B9"/>
<stop offset="1" stop-color="#4451C4"/>
</linearGradient>
<linearGradient id="paint3_linear" x1="112" y1="40" x2="97" y2="40" gradientUnits="userSpaceOnUse">
<stop stop-color="#64E0B9"/>
<stop offset="1" stop-color="#4451C4"/>
</linearGradient>
<linearGradient id="paint4_linear" x1="112" y1="40" x2="59" y2="40" gradientUnits="userSpaceOnUse">
<stop stop-color="#64E0B9"/>
<stop offset="1" stop-color="#4451C4"/>
</linearGradient>
</defs>
</svg>
