<svg width="23" height="23" viewBox="0 0 23 23" fill="none" xmlns="http://www.w3.org/2000/svg">
<circle cx="11.16" cy="11.4813" r="11.16" fill="white"/>
<path d="M16.8088 14.9045C16.8088 15.3246 16.8482 15.7316 16.7957 16.1518C16.73 16.7295 16.323 17.0052 15.7716 16.8082C15.4302 16.6901 15.1545 16.6901 14.8263 16.8214C14.6556 16.887 14.4192 16.9133 14.2486 16.8476C13.8153 16.7163 13.3951 16.6769 12.975 16.8476C12.8831 16.887 12.7518 16.887 12.6468 16.8608C12.371 16.8214 11.9772 16.782 11.9509 16.48C11.9115 16.1255 12.3185 16.2043 12.5417 16.1518C13.1982 16.0073 13.8678 15.8498 14.5374 15.7579C15.1545 15.6791 15.2989 15.3903 15.1282 14.8126C15.0101 14.3924 14.9182 13.9592 14.8525 13.5259C14.7606 12.9219 15.0495 12.4887 15.5746 12.3836C16.1392 12.2655 16.5593 12.5674 16.7169 13.1845C16.8744 13.7753 16.8219 14.3399 16.8088 14.9045Z" fill="#4452C5"/>
<path d="M10.7824 14.7994C10.7824 15.259 10.8087 15.7185 10.7693 16.178C10.7299 16.7163 10.3754 16.992 9.86336 16.8476C9.45635 16.7426 9.11498 16.7163 8.7211 16.8607C8.51103 16.9395 8.28783 16.9264 8.07776 16.8345C7.76265 16.6901 7.46067 16.6901 7.13244 16.8214C6.97488 16.887 6.79108 16.887 6.6204 16.8739C6.33155 16.8476 5.96393 16.782 5.92454 16.4931C5.88515 16.1386 6.29216 16.2174 6.51536 16.1649C7.23748 15.9942 7.95959 15.8235 8.69484 15.7316C9.18063 15.666 9.24628 15.4559 9.15437 15.0358C9.02308 14.5106 8.87866 13.9854 8.87866 13.434C8.87866 12.8825 9.08873 12.4886 9.66642 12.4099C10.2047 12.3311 10.6249 12.6462 10.7168 13.2502C10.7956 13.7622 10.7824 14.2874 10.8087 14.8126C10.8087 14.7994 10.7956 14.7994 10.7824 14.7994Z" fill="#4452C5"/>
<path d="M11.3607 6.48836C11.3476 6.26516 11.387 6.08134 11.5577 6.00257C11.8071 5.89753 12.0041 6.04196 12.1091 6.2389C12.3586 6.72469 12.5818 7.2236 12.7918 7.72252C13.2908 8.93043 13.8422 10.1252 14.4855 11.2675C14.6956 11.6351 14.7087 11.9108 14.3674 12.1734C14.3017 12.2259 14.2361 12.2916 14.1835 12.3572C13.5402 13.0793 13.514 13.0925 13.212 12.1865C12.5949 10.3878 12.0172 8.57593 11.4264 6.76407C11.4001 6.65904 11.387 6.554 11.3607 6.48836Z" fill="#4452C5"/>
<path d="M5.71474 6.00244C6.01671 6.0287 6.10862 6.21251 6.20053 6.38319C7.01455 8.07689 7.68415 9.83623 8.62947 11.4643C8.74763 11.6743 8.72138 11.8319 8.55069 11.9895C8.45879 12.0814 8.36688 12.1733 8.27497 12.2652C7.53972 13.0923 7.52659 13.0923 7.15897 11.9763C6.59441 10.2564 6.02984 8.53642 5.47841 6.80334C5.34711 6.46197 5.2946 6.12061 5.71474 6.00244Z" fill="#4452C5"/>
<path d="M10.9269 10.6634C10.9269 11.3462 10.4411 11.8713 9.81089 11.8845C9.19381 11.8976 8.64237 11.2937 8.6555 10.6241C8.66863 9.95445 9.1938 9.42927 9.82402 9.45553C10.4542 9.46866 10.94 10.007 10.9269 10.6634Z" fill="#4452C5"/>
<path d="M14.6819 10.6506C14.695 9.95477 15.1546 9.48211 15.8242 9.50837C16.4938 9.5215 16.9664 10.0073 16.9533 10.69C16.9402 11.3334 16.415 11.8979 15.8242 11.8979C15.1546 11.8848 14.6688 11.3727 14.6819 10.6506Z" fill="#4452C5"/>
</svg>
