<svg width="20" height="20" viewBox="0 0 20 20" fill="none" xmlns="http://www.w3.org/2000/svg">
<circle cx="10" cy="10" r="9.5" fill="white" stroke="white"/>
<path d="M9.33129 10.9648C8.39011 10.8001 7.41364 10.6354 6.42541 10.4472C6.11953 10.3883 5.90776 10.3766 5.64894 10.6354C5.14305 11.1178 4.34305 11.0236 3.93129 10.506C3.60188 10.0942 3.67247 9.31776 4.0607 9.00011C4.56658 8.60011 5.42541 8.68247 5.79011 9.23541C5.97835 9.506 6.15482 9.57658 6.4607 9.56482C7.07246 9.54129 7.67247 9.50599 8.27247 9.62364C9.19011 9.80011 9.94305 9.34129 10.7195 8.98835C11.4607 8.65894 11.4489 8.64717 11.6842 9.38835C11.9666 10.2825 11.9666 10.2825 11.0254 10.5413C10.4842 10.6825 9.95482 10.906 9.33129 10.9648Z" fill="#4452C5"/>
<path d="M17.1783 9.45892C17.1665 9.67068 16.99 9.94126 16.8253 10.2119C16.3312 11.0119 15.8136 11.8001 15.3077 12.5766C15.143 12.8354 14.943 13.1766 14.5665 12.953C14.1783 12.7295 14.3312 12.3766 14.4841 12.0707C14.7547 11.4824 15.0253 10.8942 15.3077 10.3177C15.4606 10.0119 15.4018 9.84715 15.0488 9.78833C14.5665 9.71774 14.0841 9.63539 13.6136 9.51774C13.0371 9.37656 12.7077 8.81186 12.8606 8.25891C13.0135 7.70597 13.59 7.42362 14.1665 7.63539C14.99 7.94127 15.8136 8.27068 16.6253 8.60009C16.9312 8.75303 17.19 8.95303 17.1783 9.45892Z" fill="#4452C5"/>
<path d="M9.3901 14.1532C7.41363 14.1532 5.43716 14.1532 3.46069 14.1532C3.28421 14.1532 3.10774 14.1532 2.93127 14.1179C2.74304 14.0826 2.69598 13.9297 2.70774 13.765C2.71951 13.6003 2.81363 13.5179 2.97833 13.5061C3.33127 13.4826 3.68422 13.4355 4.02539 13.4355C7.41363 13.4355 10.7901 13.4355 14.1783 13.4355C14.5666 13.4355 14.9548 13.4708 15.343 13.5179C15.6019 13.5414 16.0136 13.3532 15.9901 13.8473C15.9666 14.3297 15.5548 14.1414 15.3077 14.1532C14.1901 14.1767 13.0725 14.165 11.9666 14.165C11.1077 14.1532 10.2489 14.1532 9.3901 14.1532Z" fill="#4452C5"/>
<path d="M10.4375 7.08252C10.4375 6.40017 10.9434 5.87075 11.6022 5.88252C12.2375 5.89428 12.7434 6.42369 12.7434 7.11781C12.7551 7.81193 12.2493 8.32958 11.5787 8.31781C10.9081 8.29429 10.4375 7.7884 10.4375 7.08252Z" fill="#4452C5"/>
<path d="M4.11991 7.17676C4.3552 7.20029 4.53167 7.30617 4.51991 7.57676C4.50814 7.84735 4.35521 8.01206 4.07285 8.01206C3.82579 8.01206 3.67285 7.85911 3.67285 7.61205C3.68462 7.31794 3.84932 7.18852 4.11991 7.17676Z" fill="#4452C5"/>
</svg>
