<svg width="20" height="20" viewBox="0 0 20 20" fill="none" xmlns="http://www.w3.org/2000/svg">
<circle cx="10" cy="10" r="9.5" fill="white" stroke="white"/>
<path d="M8.3125 15.6792C8.50074 13.7968 8.59486 11.7851 8.93603 9.82035C9.1125 8.77329 9.75956 7.83212 10.6419 7.14976C12.0772 6.03212 13.5243 4.92623 14.9713 3.82035C15.2066 3.64388 15.4537 3.37329 15.736 3.64388C16.0537 3.94976 15.7713 4.22035 15.5596 4.44388C14.5478 5.538 13.5831 6.66741 12.5007 7.69094C11.0184 9.09094 10.2537 10.8086 9.87721 12.7615C9.67721 13.8204 9.41838 14.8674 9.17133 15.9145C9.1125 16.1733 9.06544 16.5145 8.70074 16.4792C8.28897 16.4321 8.33603 16.0792 8.3125 15.6792Z" fill="#4452C5"/>
<path d="M7.23066 6.02045C7.23066 5.63221 7.43066 5.38515 7.77183 5.25574C9.06595 4.74986 10.3718 4.25574 11.6659 3.77339C11.8542 3.7028 12.0777 3.64397 12.1954 3.85574C12.3365 4.11456 12.113 4.26751 11.9248 4.36163C10.6895 5.04398 9.48948 5.78515 8.32477 6.57339C7.76007 6.96163 7.21889 6.64398 7.23066 6.02045Z" fill="#4452C5"/>
<path d="M6.97123 8.46737C6.85358 8.64384 6.7477 8.79678 6.63005 8.96149C6.38299 9.2909 6.1477 9.63208 5.88888 9.93796C5.5477 10.338 5.15946 10.3027 4.98299 9.83208C4.7124 9.13796 4.50064 8.43208 4.26534 7.7262C4.21829 7.57325 4.20652 7.39678 4.38299 7.31443C4.59476 7.20855 4.7124 7.36149 4.80652 7.51443C4.9477 7.77326 5.07711 8.03208 5.20652 8.2909C5.33593 8.53796 5.46535 8.57326 5.59476 8.30267C5.63005 8.23208 5.65358 8.16149 5.70064 8.0909C5.83005 7.92619 5.86534 7.53796 6.15946 7.70266C6.46534 7.87914 6.77123 8.12619 6.97123 8.46737Z" fill="#4452C5"/>
<path d="M9.75945 7.62054C9.72415 7.69112 9.68886 7.79701 9.63003 7.89113C9.45356 8.19701 9.30062 8.51465 9.10062 8.79701C8.93592 9.0323 8.91239 9.53818 8.54768 9.44407C8.13591 9.33818 7.73592 9.05583 7.47709 8.67936C7.43004 8.60877 7.4065 8.47936 7.4418 8.40877C7.73592 7.87936 8.0418 7.36171 8.34768 6.84407C8.37121 6.80877 8.4065 6.78525 8.4418 6.77348C8.68886 6.6676 9.73592 7.30289 9.75945 7.62054Z" fill="#4452C5"/>
<path d="M6.04191 7.26744C5.39485 7.27921 4.88897 6.78509 4.79485 6.09097C4.72427 5.57332 5.04191 5.19686 5.65368 5.00862C6.01839 4.89098 6.25368 5.05568 6.45368 5.33803C6.66544 5.64392 6.43015 5.78509 6.21838 5.93803C5.88897 6.16156 5.99485 6.39686 6.25368 6.59686C6.40662 6.72627 6.7125 6.73803 6.63015 7.03215C6.52427 7.3145 6.24191 7.23215 6.04191 7.26744Z" fill="#4452C5"/>
</svg>
