<svg width="20" height="20" viewBox="0 0 20 20" fill="none" xmlns="http://www.w3.org/2000/svg">
<path d="M10 0C4.47721 0 0 4.47721 0 10C0 15.5228 4.47721 20 10 20C15.5228 20 20 15.5228 20 10C19.9938 4.47982 15.5202 0.00618492 10 0ZM10.3569 2.88298L13.8333 1.49333C14.2279 1.67188 14.6095 1.8776 14.9756 2.10905L14.9847 2.11475C15.3444 2.34261 15.6882 2.59473 16.0137 2.8693L16.0417 2.89372C16.1877 3.01807 16.3296 3.14681 16.4676 3.27962C16.485 3.29671 16.5033 3.31299 16.5207 3.3304C16.6654 3.47168 16.8055 3.61735 16.9411 3.76725C16.9523 3.77995 16.9631 3.79329 16.9743 3.80599C17.0933 3.93929 17.2077 4.07731 17.3187 4.21761C17.3454 4.25098 17.3721 4.28434 17.3979 4.31771C17.5184 4.47363 17.6349 4.63232 17.745 4.79606L17.0519 7.74202L13.6423 8.87874L10.3577 6.25065L10.3569 2.88298ZM2.60173 4.31966C2.6276 4.2863 2.65397 4.25293 2.68066 4.21973C2.79036 4.08057 2.90381 3.94482 3.021 3.81234C3.03369 3.79834 3.04541 3.78402 3.05794 3.77002C3.19271 3.61979 3.33219 3.47428 3.47673 3.33333C3.49333 3.31706 3.50993 3.29997 3.52734 3.28499C3.66423 3.15299 3.80501 3.02507 3.94971 2.90137L3.98307 2.87337C4.30566 2.60075 4.64616 2.35026 5.00228 2.12337L5.0153 2.11507C5.37923 1.88411 5.75846 1.67871 6.15072 1.5L9.64307 2.88298V6.24967L6.3584 8.87728L2.94873 7.74268L2.2557 4.79671C2.3667 4.6333 2.48193 4.47494 2.60173 4.31966ZM2.20003 15.1151C2.10205 14.9657 2.0083 14.8135 1.91895 14.6584L1.8973 14.6209C1.80843 14.4666 1.72428 14.3097 1.64502 14.1504L1.64225 14.1453C1.47526 13.8101 1.32861 13.465 1.20329 13.112V13.1087C1.14404 12.9421 1.09001 12.7713 1.04004 12.5996L1.02197 12.5363C0.976237 12.375 0.934733 12.2119 0.897624 12.047C0.894369 12.0309 0.8903 12.0156 0.887044 11.9997C0.805176 11.6273 0.746419 11.2503 0.710938 10.8706L2.74593 8.42871L6.132 9.55729L7.11475 13.488L5.5 15.6364L2.20003 15.1151ZM12.2197 19.0643C12.0531 19.1056 11.882 19.1413 11.7109 19.1733C11.687 19.1781 11.6626 19.182 11.6387 19.1864C11.493 19.2124 11.3457 19.2347 11.1981 19.2529C11.1587 19.258 11.1196 19.2633 11.0804 19.2681C10.9434 19.284 10.805 19.2961 10.6663 19.306C10.6227 19.3089 10.5796 19.3133 10.536 19.3161C10.3587 19.327 10.18 19.3333 10 19.3333C9.83512 19.3333 9.67122 19.3289 9.5083 19.3203C9.48861 19.3203 9.46973 19.3171 9.45003 19.3156C9.30501 19.3073 9.16064 19.2964 9.0166 19.2824L9 19.2793C8.68441 19.2451 8.37061 19.195 8.06006 19.1294L6.08838 16.0423L7.67773 13.923H12.3223L13.9377 16.0563L12.2197 19.0643ZM19.1154 12C19.112 12.016 19.1081 12.0314 19.1047 12.0474C19.0674 12.2121 19.0259 12.3752 18.9803 12.5366L18.9624 12.5999C18.9123 12.7716 18.8584 12.9417 18.799 13.109V13.1123C18.6737 13.4653 18.5272 13.8104 18.36 14.1457L18.3573 14.1507C18.2775 14.3102 18.1935 14.4671 18.105 14.6213L18.0833 14.6587C17.9945 14.8143 17.9009 14.9661 17.8027 15.1147L14.514 15.6333L12.888 13.4867L13.8703 9.55697L17.2563 8.42839L19.2913 10.8703C19.256 11.2502 19.1973 11.6274 19.1154 12Z" fill="white"/>
</svg>
