<svg width="20" height="20" viewBox="0 0 20 20" fill="none" xmlns="http://www.w3.org/2000/svg">
<circle cx="10" cy="10" r="9.5" fill="white" stroke="white"/>
<path d="M10.9315 10.0312C11.1786 10.0312 11.3903 10.1136 11.5903 10.2665C12.3315 10.8077 13.0727 11.3489 13.8139 11.9018C14.0374 12.0665 14.2021 12.2783 14.308 12.5489C14.708 13.5842 15.1315 14.6195 15.5315 15.6665C15.6374 15.9489 15.7668 16.2665 15.4139 16.443C15.0256 16.6312 14.908 16.2783 14.7668 16.0312C14.2845 15.1842 13.8021 14.3254 13.3315 13.4783C12.9551 12.7842 12.1786 12.7371 11.5903 12.3842C11.4492 12.3018 11.3551 12.4665 11.308 12.6077C11.2609 12.7607 11.2139 12.9018 11.1786 13.0548C11.0021 13.8783 10.5786 14.5136 9.86094 14.9724C9.23741 15.3842 8.6727 15.8665 8.08447 16.3136C7.89623 16.4548 7.6727 16.6077 7.46093 16.3842C7.22564 16.1371 7.39034 15.9136 7.57858 15.7254C8.15505 15.1371 8.71976 14.5489 9.31976 13.9724C9.61388 13.6783 9.75505 13.3607 9.80211 12.9489C9.88446 12.2077 10.0256 11.4783 10.1551 10.7489C10.2021 10.3018 10.4845 10.0548 10.9315 10.0312Z" fill="#4452C5"/>
<path d="M11.6138 6.70177C11.1314 6.69001 10.7079 6.21942 10.7314 5.71354C10.7549 5.25472 11.1549 4.85472 11.602 4.85472C12.0961 4.84295 12.5196 5.29001 12.4961 5.80766C12.4843 6.3253 12.0961 6.71354 11.6138 6.70177Z" fill="#4452C5"/>
<path d="M4.81387 11.0312C5.10798 11.043 5.29622 11.196 5.30799 11.5018C5.31975 11.8195 5.14328 12.0195 4.81387 12.0313C4.53151 12.043 4.37858 11.8783 4.35505 11.6077C4.33152 11.2901 4.47269 11.0901 4.81387 11.0312Z" fill="#4452C5"/>
<path fill-rule="evenodd" clip-rule="evenodd" d="M15.3429 5.66632C15.0135 6.54867 15.2723 7.53691 15.6958 8.51338C15.8252 8.8075 15.6958 9.01927 15.3899 9.08985L15.3899 9.08986L15.3899 9.08986C14.6252 9.25457 13.8605 9.41927 13.0958 9.56044C12.8605 9.6075 12.637 9.48985 12.4252 9.3722C12.3183 9.31006 12.2109 9.24792 12.1033 9.18567L12.103 9.18547C11.7014 8.95315 11.2972 8.71927 10.9076 8.47809C10.5076 8.23103 10.2488 7.88985 10.4605 7.39573C10.6386 7.00001 10.9415 7.01193 11.2922 7.02574H11.2922C11.3585 7.02835 11.4266 7.03103 11.4958 7.03103C11.7294 7.03103 11.96 7.0961 12.1908 7.16122L12.1908 7.16122C12.611 7.27978 13.0319 7.39851 13.4723 7.12515C13.837 6.90162 14.0135 6.74868 13.6252 6.36044C13.1311 5.87809 12.884 5.25456 12.9429 4.54867C12.9782 4.10162 13.1546 3.68985 13.6488 3.57221C14.1429 3.45456 14.5664 3.57221 14.8958 4.0075C15.2487 4.44279 15.3311 4.94867 15.3429 5.66632ZM14.931 5.44268L14.9298 5.47491C14.9189 5.78161 14.9081 6.08236 14.5898 6.20739C14.2369 6.34857 14.0016 6.08974 13.8016 5.85445C13.531 5.52504 13.4134 5.1368 13.3898 4.72503C13.3663 4.40739 13.4957 4.1368 13.7898 4.00739C14.1193 3.87798 14.3545 4.07798 14.531 4.32504C14.7781 4.65445 14.9075 5.04268 14.931 5.44268ZM14.0253 7.73703C13.3194 8.32527 13.2135 8.3488 12.5194 7.9488C12.5749 8.00734 12.6263 8.07396 12.6779 8.14083C12.8234 8.32926 12.9704 8.51966 13.2135 8.53703C13.6008 8.56344 13.9947 8.53057 14.3903 8.49755C14.5234 8.48645 14.6567 8.47532 14.79 8.46644C14.9429 8.45467 15.0488 8.3488 14.99 8.18409C14.956 8.10244 14.9318 8.01096 14.9075 7.91902C14.8477 7.69303 14.7873 7.46431 14.5782 7.37232C14.4126 7.2978 14.2936 7.43893 14.1761 7.57828C14.1267 7.63691 14.0775 7.69523 14.0253 7.73703Z" fill="#4452C5"/>
</svg>
