<svg width="24" height="20" viewBox="0 0 24 20" fill="none" xmlns="http://www.w3.org/2000/svg">
<path d="M22.2718 6.74136L22.2716 6.74056C22.2592 6.69121 22.2262 6.64841 22.1795 6.62323C22.134 6.599 22.0797 6.59475 22.0304 6.61208M22.2718 6.74136L22.6761 10.0244C22.6761 12.7069 21.913 15.1184 20.6998 16.8485C19.4858 18.5799 17.8468 19.6 16.0812 19.6C13.5179 19.6 11.202 17.4293 10.118 14.1096C10.9007 13.667 11.6165 13.0668 12.2478 12.3406C12.5291 12.4827 12.864 12.5607 13.2147 12.5607C13.7401 12.5607 14.1729 12.2562 14.4556 11.9299C14.7332 11.6095 14.9421 11.181 14.9421 10.8049C14.9421 10.5934 14.8743 10.3917 14.7131 10.2387C14.5662 10.0994 14.3824 10.0402 14.2293 10.0106C14.1009 9.98575 13.9516 9.97538 13.7966 9.97153C14.1857 9.17372 14.5028 8.30606 14.7314 7.38243C15.1685 7.40568 15.6178 7.41972 16.0812 7.41972C18.4669 7.41972 20.6135 7.10988 22.0304 6.61208M22.2718 6.74136C22.5318 7.76503 22.676 8.86918 22.6761 10.0244L22.2718 6.74136ZM22.0304 6.61208L21.8979 6.23469M22.0304 6.61208L21.8979 6.23469M21.8979 6.23469C22.0529 6.18021 22.2239 6.19333 22.3684 6.27068M21.8979 6.23469L22.3684 6.27068M22.3684 6.27068C22.5134 6.34851 22.6193 6.4833 22.6595 6.64291L22.3684 6.27068ZM19.2582 17.1786L19.2581 17.1789C19.2141 17.3659 19.0757 17.5184 18.8916 17.5792C18.7086 17.64 18.5066 17.6016 18.3586 17.4767M19.2582 17.1786L18.3581 17.4763C18.3583 17.4765 18.3584 17.4766 18.3586 17.4767M19.2582 17.1786C19.3089 16.9626 19.3416 16.7337 19.3417 16.4917V16.4915C19.3417 14.6908 17.882 13.2311 16.0813 13.2311C14.2807 13.2311 12.8208 14.6908 12.8208 16.4915C12.8208 16.7336 12.8535 16.9626 12.9043 17.1787L12.9044 17.1789C12.9489 17.368 13.0884 17.518 13.2693 17.5787L13.2718 17.5795C13.4542 17.6394 13.655 17.6011 13.8025 17.4779L13.8034 17.4771C14.2558 17.097 15.0813 16.8088 16.0813 16.8088C17.0808 16.8088 17.9061 17.0968 18.3586 17.4767M19.2582 17.1786L18.3586 17.4767M20.675 11.2664V11.2664C20.675 10.8461 20.422 10.5127 20.1097 10.3023C19.795 10.0903 19.383 9.97211 18.9476 9.97211C18.8855 9.97211 18.8209 9.97147 18.755 9.97083C18.4731 9.96807 18.1682 9.96509 17.9331 10.0105C17.78 10.0402 17.5962 10.0993 17.4493 10.2387C17.2881 10.3917 17.2203 10.5933 17.2203 10.8048C17.2203 11.1809 17.4291 11.6095 17.7067 11.9298C17.9895 12.2562 18.4222 12.5607 18.9476 12.5607C19.383 12.5607 19.795 12.4425 20.1097 12.2304C20.422 12.02 20.6749 11.6867 20.675 11.2664Z" stroke="#FCE517" stroke-width="0.8"/>
<path d="M13.2821 0.0690528L13.0931 0.42158C13.1397 0.446557 13.1729 0.48937 13.1853 0.53894L13.1855 0.53974C13.4455 1.56336 13.5897 2.66756 13.5897 3.82263C13.5897 6.50521 12.8267 8.91666 11.6135 10.6468C10.3995 12.3782 8.76049 13.3982 6.99492 13.3982C5.2293 13.3982 3.59027 12.3782 2.37623 10.6468C1.16304 8.91666 0.4 6.50521 0.4 3.82263C0.4 2.66757 0.544258 1.56341 0.804207 0.539736L0.80433 0.539249C0.816651 0.490474 0.849764 0.447332 0.896508 0.422024C0.924015 0.407439 0.954545 0.4 0.984833 0.4C1.00612 0.4 1.02605 0.403486 1.0443 0.409972L1.0443 0.409974L1.04565 0.41045C2.46257 0.908251 4.60916 1.218 6.99492 1.218C9.38063 1.218 11.5272 0.908251 12.9441 0.410451L12.9448 0.410201C12.9637 0.403531 12.9842 0.4 13.0057 0.4C13.0368 0.4 13.0669 0.407535 13.0935 0.421788L13.2821 0.0690528ZM13.2821 0.0690528C13.1965 0.0232614 13.1015 0 13.0057 0C12.9403 0 12.8746 0.0107773 12.8116 0.0330634L0.707597 0.0694431C0.563005 0.147176 0.456744 0.282015 0.416512 0.441285C0.148395 1.49712 0 2.63435 0 3.82263C0 9.33209 3.13162 13.7982 6.99492 13.7982C10.8581 13.7982 13.9897 9.33209 13.9897 3.82263C13.9897 2.63435 13.8413 1.49707 13.5732 0.441285C13.5331 0.281674 13.4271 0.146786 13.2821 0.0690528ZM9.80546 7.96424C9.62229 7.90332 9.42035 7.9418 9.27241 8.06644C8.82004 8.44644 7.9946 8.73454 6.99487 8.73454C5.99498 8.73454 5.16941 8.44634 4.71704 8.06623L4.71629 8.0656C4.56866 7.94217 4.36785 7.90408 4.18565 7.96378L4.18565 7.96376L4.1822 7.96493C4.00228 8.0257 3.86266 8.17513 3.818 8.36431L3.81789 8.36478C3.76717 8.58083 3.73449 8.80987 3.73449 9.05198C3.73449 10.8525 5.19423 12.3123 6.99492 12.3123C8.79551 12.3123 10.2553 10.8525 10.2553 9.05198C10.2553 8.80981 10.2225 8.58076 10.1718 8.36478L10.1717 8.36431C10.1276 8.17732 9.98926 8.02513 9.80546 7.96424ZM9.80546 7.96424C9.80578 7.96435 9.8061 7.96446 9.80642 7.96457L9.6795 8.34389M9.80546 7.96424C9.80524 7.96417 9.80502 7.9641 9.8048 7.96403L9.6795 8.34389M9.6795 8.34389C9.73095 8.36086 9.77001 8.40373 9.7824 8.4562L4.45971 8.37247C5.00463 8.83034 5.93157 9.13454 6.99487 9.13454C8.05817 9.13454 8.98512 8.83034 9.52998 8.37247C9.57138 8.33751 9.62805 8.32668 9.6795 8.34389ZM4.12845 3.76819C3.69308 3.76819 3.28103 3.88635 2.96634 4.09836C2.65405 4.30875 2.40108 4.64213 2.40108 5.06247C2.40108 5.48277 2.65406 5.81614 2.96632 6.02653C3.28101 6.23855 3.69306 6.35674 4.12845 6.35674C4.19061 6.35674 4.2552 6.35737 4.32105 6.35802C4.60302 6.36077 4.90792 6.36376 5.14296 6.31831C5.29612 6.28869 5.47989 6.22952 5.62676 6.09018C5.78803 5.93719 5.85576 5.73552 5.85576 5.52404C5.85576 5.14787 5.64693 4.71934 5.36933 4.39895C5.08658 4.07262 4.65383 3.76819 4.12845 3.76819ZM9.86135 3.76819C9.33595 3.76819 8.90318 4.07261 8.62043 4.39895C8.34282 4.71934 8.13398 5.14787 8.13398 5.52404C8.13398 5.73552 8.20171 5.93719 8.36299 6.09019C8.50986 6.22952 8.69363 6.28869 8.8468 6.31831C9.08183 6.36376 9.38675 6.36077 9.66873 6.35802C9.73458 6.35737 9.79918 6.35674 9.86135 6.35674C10.2967 6.35674 10.7088 6.23855 11.0234 6.02653C11.3357 5.81614 11.5887 5.48277 11.5887 5.06247C11.5887 4.64213 11.3357 4.30875 11.0234 4.09836C10.7087 3.88635 10.2967 3.76819 9.86135 3.76819Z" stroke="#FCE517" stroke-width="0.8"/>
</svg>
