<svg width="20" height="20" viewBox="0 0 20 20" fill="none" xmlns="http://www.w3.org/2000/svg">
<circle cx="10" cy="10" r="9.5" fill="white" stroke="white"/>
<path d="M6.28595 10.1029C7.58006 10.0441 8.75654 11.1264 8.81536 12.4323C8.87418 13.8323 7.86242 15.0205 6.54477 15.0911C5.19183 15.1617 4.08595 14.1264 4.00359 12.7264C3.93301 11.2911 4.90948 10.1735 6.28595 10.1029Z" fill="#4452C5"/>
<path fill-rule="evenodd" clip-rule="evenodd" d="M13.2214 9.10002C13.2855 9.09745 13.35 9.09485 13.4157 9.09098C13.476 9.08495 13.5363 9.08201 13.5982 9.079C13.657 9.07613 13.7173 9.07319 13.7804 9.06745C14.4039 9.03216 14.651 8.80863 14.7098 8.1851C14.7216 8.03216 14.7216 7.90275 14.5569 7.84392C14.4358 7.8109 14.3662 7.89117 14.2903 7.97872C14.2851 7.98475 14.2798 7.99081 14.2745 7.99686C13.7569 8.64392 12.7098 8.50275 12.3569 7.74981C12.2706 7.56359 12.1878 7.37561 12.1051 7.18792C11.9737 6.88944 11.8425 6.59166 11.6981 6.30275C11.5686 6.05569 11.3333 5.93804 11.051 5.99686C10.7686 6.05569 10.6157 6.23216 10.5569 6.51451C10.5007 6.79527 10.6375 7.02242 10.7729 7.24714C10.7793 7.25784 10.7858 7.26853 10.7922 7.27922C10.8657 7.39865 10.9403 7.51723 11.0149 7.63571C11.4179 8.27579 11.819 8.91298 12.0275 9.66745C12.1098 9.97333 12.1333 10.1616 11.8981 10.3969C11.3333 10.9616 11.0863 11.6557 11.1686 12.4792C11.2981 13.8322 12.3686 14.7851 13.6981 14.7145C15.0275 14.6322 15.9804 13.5027 15.9098 12.091C15.851 10.7027 14.8157 9.69098 13.4981 9.72628C13.4076 9.72628 13.315 9.73271 13.2221 9.73918C13.0975 9.74784 12.9723 9.75655 12.851 9.74981C12.6157 9.73804 12.4863 9.5851 12.4863 9.36157C12.4863 9.15075 12.6537 9.13876 12.8011 9.12821C12.81 9.12758 12.8188 9.12695 12.8275 9.12628C12.9617 9.11048 13.0907 9.10529 13.2214 9.10002ZM12.0861 10.9732C11.792 11.3615 11.7214 11.8203 11.6744 12.2085C11.6979 13.2909 12.6273 14.1968 13.6391 14.2085C14.6038 14.1968 15.4273 13.2321 15.4038 12.1615C15.3803 11.1497 14.4861 10.2556 13.5214 10.2791C13.1332 10.2909 12.9567 10.4203 13.145 10.8203C13.1967 10.9332 13.256 11.0424 13.3153 11.1516C13.4043 11.3154 13.4932 11.4791 13.5567 11.6556C13.5761 11.711 13.6092 11.7722 13.6435 11.8358C13.755 12.0424 13.8799 12.2736 13.592 12.4085C13.3359 12.5275 13.2362 12.2978 13.1437 12.0847C13.1173 12.0238 13.0914 11.9641 13.0626 11.9144C12.8979 11.6203 12.7567 11.3262 12.6273 11.0203C12.4744 10.6438 12.2861 10.7026 12.0861 10.9732Z" fill="#4452C5"/>
<path d="M13.5563 5.85552C13.5446 6.31435 13.3681 6.66729 12.9093 6.78493C12.4975 6.89082 12.1446 6.70258 11.9916 6.32611C11.8504 5.96141 11.6387 5.73788 11.2857 5.62023C11.1799 5.58494 11.0504 5.52611 11.0504 5.3967C11.0387 5.22023 11.1916 5.18494 11.321 5.13788C11.7681 4.97317 12.2387 4.90258 12.7093 4.96141C13.2151 5.02023 13.4857 5.34964 13.5563 5.85552Z" fill="#4452C5"/>
<path fill-rule="evenodd" clip-rule="evenodd" d="M8.60376 6.75739C8.56279 6.74649 8.52647 6.73683 8.4978 6.72607C7.95662 6.73784 7.53309 7.23196 7.70956 7.72607C8.1473 9.15714 8.6031 10.5822 9.05974 12.0098C9.24128 12.5774 9.42296 13.1454 9.60368 13.7143C9.65074 13.8908 9.75662 14.0555 9.96839 14.0202C10.2154 13.9731 10.2507 13.7614 10.2154 13.5614C10.1449 13.0908 10.0743 12.632 9.95662 12.1731C9.73309 11.3025 9.68603 10.4908 10.4743 9.83196C10.6355 9.69494 10.758 9.51376 10.8797 9.33379C10.9357 9.25106 10.9915 9.16859 11.0507 9.09078C11.3449 8.69078 11.3449 8.33784 10.886 8.05549C10.239 7.65549 9.58016 7.26726 8.92134 6.87902L8.92133 6.87902C8.81498 6.81357 8.69726 6.78226 8.60376 6.75739ZM9.48615 8.80844C9.30968 9.0202 9.38027 9.26726 9.58027 9.54961C9.62023 9.47968 9.66962 9.41822 9.7167 9.35965C9.83592 9.21131 9.9403 9.08145 9.83909 8.87903C9.78027 8.76138 9.58027 8.69079 9.48615 8.80844Z" fill="#4452C5"/>
<path d="M6.28595 10.1024C7.58006 10.0436 8.75654 11.1259 8.81536 12.4318C8.87418 13.8318 7.86242 15.02 6.54477 15.0906C5.19183 15.1612 4.08595 14.1259 4.00359 12.7259C3.93301 11.2906 4.90948 10.173 6.28595 10.1024Z" fill="#4452C5"/>
<path fill-rule="evenodd" clip-rule="evenodd" d="M13.2214 9.10002C13.2855 9.09745 13.35 9.09485 13.4157 9.09098C13.476 9.08495 13.5363 9.08201 13.5982 9.079C13.657 9.07613 13.7173 9.07319 13.7804 9.06745C14.4039 9.03216 14.651 8.80863 14.7098 8.1851C14.7216 8.03216 14.7216 7.90275 14.5569 7.84392C14.4358 7.8109 14.3662 7.89117 14.2903 7.97872C14.2851 7.98475 14.2798 7.99081 14.2745 7.99686C13.7569 8.64392 12.7098 8.50275 12.3569 7.74981C12.2706 7.56359 12.1878 7.37561 12.1051 7.18792C11.9737 6.88944 11.8425 6.59166 11.6981 6.30275C11.5686 6.05569 11.3333 5.93804 11.051 5.99686C10.7686 6.05569 10.6157 6.23216 10.5569 6.51451C10.5007 6.79527 10.6375 7.02242 10.7729 7.24714C10.7793 7.25784 10.7858 7.26853 10.7922 7.27922C10.8657 7.39865 10.9403 7.51723 11.0149 7.63571C11.4179 8.27579 11.819 8.91298 12.0275 9.66745C12.1098 9.97333 12.1333 10.1616 11.8981 10.3969C11.3333 10.9616 11.0863 11.6557 11.1686 12.4792C11.2981 13.8322 12.3686 14.7851 13.6981 14.7145C15.0275 14.6322 15.9804 13.5027 15.9098 12.091C15.851 10.7027 14.8157 9.69098 13.4981 9.72628C13.4076 9.72628 13.315 9.73271 13.2221 9.73918C13.0975 9.74784 12.9723 9.75655 12.851 9.74981C12.6157 9.73804 12.4863 9.5851 12.4863 9.36157C12.4863 9.15075 12.6537 9.13876 12.8011 9.12821C12.81 9.12758 12.8188 9.12695 12.8275 9.12628C12.9617 9.11048 13.0907 9.10529 13.2214 9.10002ZM12.0861 10.9732C11.792 11.3615 11.7214 11.8203 11.6744 12.2085C11.6979 13.2909 12.6273 14.1968 13.6391 14.2085C14.6038 14.1968 15.4273 13.2321 15.4038 12.1615C15.3803 11.1497 14.4861 10.2556 13.5214 10.2791C13.1332 10.2909 12.9567 10.4203 13.145 10.8203C13.1967 10.9332 13.256 11.0424 13.3153 11.1516C13.4043 11.3154 13.4932 11.4791 13.5567 11.6556C13.5761 11.711 13.6092 11.7722 13.6435 11.8358C13.755 12.0424 13.8799 12.2736 13.592 12.4085C13.3359 12.5275 13.2362 12.2978 13.1437 12.0847C13.1173 12.0238 13.0914 11.9641 13.0626 11.9144C12.8979 11.6203 12.7567 11.3262 12.6273 11.0203C12.4744 10.6438 12.2861 10.7026 12.0861 10.9732Z" fill="#4452C5"/>
<path d="M9.57967 13.7143C8.94437 11.7143 8.29731 9.72607 7.68555 7.72607L9.57967 13.7143Z" fill="#4452C5"/>
<path d="M11.3096 5.1496C11.7566 4.98489 12.2272 4.9143 12.6978 4.97313C13.2155 5.03195 13.486 5.36136 13.5566 5.86724" fill="#4452C5"/>
</svg>
