<svg width="53" height="53" viewBox="0 0 53 53" fill="none" xmlns="http://www.w3.org/2000/svg">
<path d="M51.4473 46.6855C52.3049 46.6855 52.5 45.8576 52.5 45C52.5 44.1424 52.3049 43.5801 51.4473 43.5801H49.8945V38.9219C49.8945 38.0642 49.1994 37.3691 48.3418 37.3691H38.9219C38.0642 37.3691 37.3691 38.0642 37.3691 38.9219V43.5801H35.8164C34.9588 43.5801 34.5 44.1424 34.5 45C34.5 45.8576 34.9588 46.6855 35.8164 46.6855H37.3691V49.8945H31.1582V42.6921C36.5802 40.5555 40.4746 34.8003 40.4746 28.0527C40.4746 24.2194 39.2304 20.5935 36.9555 17.7501C37.2333 16.4865 37.3691 15.2787 37.3691 14.0781C37.3691 6.31526 32.4934 0 26.5 0C24.2437 0 22.0771 0.881096 20.2644 2.50945C18.5071 0.928406 16.3749 0 14.0781 0C8.08473 0 3.20898 6.31526 3.20898 14.0781C3.20898 15.2779 3.34485 16.4857 3.62224 17.7481C1.2806 20.6546 0 24.2817 0 28.0527C0 34.8144 3.93966 40.5797 9.41992 42.7055V49.8945H1.55273C0.695091 49.8945 0.5 50.6424 0.5 51.5C0.5 52.3576 0.695091 53 1.55273 53H51.4473C52.3049 53 52.5 52.3576 52.5 51.5C52.5 50.6424 52.3049 49.8945 51.4473 49.8945H49.8945V46.6855H51.4473ZM40.4746 40.4746H46.7891V43.5801H40.4746V40.4746ZM28.0527 49.8945H24.9473V43.4826C25.4612 43.5461 25.9796 43.5801 26.5 43.5801C27.0249 43.5801 27.5428 43.5465 28.0527 43.4838V49.8945ZM20.2826 41.9631C20.7888 42.2421 21.3097 42.4855 21.8418 42.6937V49.8945H18.7363V42.6921C19.2673 42.4827 19.7832 42.2392 20.2826 41.9631ZM31.8404 6.16767C33.4032 8.27518 34.2637 11.0843 34.2637 14.0781C34.2637 15.9345 33.8824 17.1755 33.753 17.8047C33.4659 19.1993 32.7134 20.7731 31.8456 21.9299C31.3309 22.6161 31.47 23.5894 32.1562 24.1038C32.8464 24.6218 33.8185 24.475 34.33 23.7932C34.8573 23.0905 35.3251 22.3153 35.7266 21.4868C36.7966 23.4378 37.3691 25.6929 37.3691 28.0527C37.3691 34.9022 32.4934 40.4746 26.5 40.4746C25.354 40.4746 24.2182 40.266 23.1378 39.8648C26.1434 37.0145 28.0527 32.7768 28.0527 28.0527C28.0527 24.2194 26.8085 20.5935 24.5336 17.7501C24.8114 16.4865 24.9473 15.2787 24.9473 14.0781C24.9473 10.5586 23.9449 7.33627 22.2906 4.86564C23.5441 3.72373 25.0067 3.10547 26.5 3.10547C28.4797 3.10547 30.3762 4.19279 31.8404 6.16767ZM3.10547 28.0527C3.10547 25.7176 3.71039 23.4515 4.84016 21.4625C5.24412 22.2999 5.716 23.0836 6.24814 23.7932C6.76006 24.4758 7.73294 24.6209 8.42197 24.1038C9.10816 23.5894 9.24726 22.6161 8.73251 21.9299C7.91975 20.8467 7.28127 19.5289 6.86721 18.0898C6.85023 17.6656 6.31445 16.2471 6.31445 14.0781C6.31445 11.0843 7.17493 8.27518 8.73777 6.16767C10.202 4.19279 12.0984 3.10547 14.0781 3.10547C16.0579 3.10547 17.9543 4.19279 19.4185 6.16767C20.9813 8.27518 21.8418 11.0843 21.8418 14.0781C21.8418 14.417 21.8264 14.7583 21.7993 15.1024C19.5313 13.4259 16.8698 12.5254 14.0781 12.5254C13.2205 12.5254 12.5254 13.2205 12.5254 14.0781C12.5254 14.9358 13.2205 15.6309 14.0781 15.6309C16.92 15.6309 19.6037 16.8767 21.6441 19.1399C21.6566 19.1552 21.6687 19.1702 21.6817 19.1852C23.7876 21.5434 24.9473 24.6925 24.9473 28.0527C24.9473 34.9022 20.0715 40.4746 14.0781 40.4746C7.94604 40.4746 3.10547 34.8075 3.10547 28.0527ZM12.5254 43.4851C13.0353 43.5473 13.5533 43.5801 14.0781 43.5801C14.603 43.5801 15.121 43.5465 15.6309 43.4838V49.8945H12.5254V43.4851ZM46.7891 49.8945H40.4746V46.6855H46.7891V49.8945Z" fill="#6B75CA"/>
</svg>
