<svg width="20" height="20" viewBox="0 0 20 20" fill="none" xmlns="http://www.w3.org/2000/svg">
<circle cx="10" cy="10" r="9.5" fill="white" stroke="white"/>
<path d="M14.9175 11.4252C15.3528 11.4722 15.7175 11.8017 16.1292 12.0252C16.3528 12.1428 16.5763 12.2722 16.788 12.4252C17.1057 12.6487 17.1527 12.9193 16.9057 13.2252C16.3998 13.8487 15.8939 14.4723 15.3763 15.084C15.2469 15.237 15.0939 15.4134 14.8822 15.2723C14.6233 15.1075 14.7998 14.8958 14.8939 14.7075C15.0939 14.3546 15.3175 14.0017 15.5175 13.6487C15.6233 13.4605 15.8704 13.2487 15.5292 13.0605C15.2586 12.9075 14.988 12.8487 14.7645 13.1781C14.1527 14.0605 13.5292 14.9428 12.8704 15.8017C12.6939 16.037 12.541 16.5781 12.188 16.3664C11.7527 16.1075 12.2116 15.7428 12.3527 15.4723C12.941 14.2958 13.5528 13.1428 14.1528 11.9664C14.3175 11.6723 14.4939 11.4134 14.9175 11.4252Z" fill="#4452C5"/>
<path d="M5.28223 10.4257C5.28223 9.79041 5.8587 9.44924 6.36458 9.80218C6.94105 10.2022 7.44693 10.6963 7.97635 11.1551C8.2234 11.3786 8.18811 11.6845 7.97635 11.8845C7.07046 12.7316 7.05869 13.7316 7.41163 14.8257C7.48222 15.0375 7.55281 15.3434 7.25869 15.4257C6.97634 15.5081 6.91752 15.2139 6.8587 15.0257C6.35282 13.6022 5.8587 12.1904 5.36458 10.7669C5.30576 10.6492 5.29399 10.5081 5.28223 10.4257Z" fill="#4452C5"/>
<path d="M7.75347 6.27247C7.40053 6.15482 7.00053 6.20188 6.58876 6.27247C6.41229 6.296 6.18876 6.27247 6.1417 6.08423C6.08288 5.8607 6.32994 5.81364 6.47111 5.75482C7.32994 5.36658 8.24759 5.15482 9.177 4.97835C9.32994 4.95482 9.6123 5.00188 9.56524 4.74305C9.50642 4.4607 9.24759 4.60188 9.08288 4.64894C8.72994 4.76659 8.377 4.896 8.03583 5.02541C7.85936 5.08423 7.67112 5.13129 7.56524 4.93129C7.45936 4.73129 7.577 4.57835 7.72994 4.496C8.32994 4.17835 8.94171 3.87247 9.56524 3.56658C9.777 3.4607 9.95347 3.60188 10.0711 3.75482C10.3535 4.10776 10.6241 4.4607 10.8947 4.82541C11.1064 5.10776 11.1888 5.4254 11.0005 5.75482C10.8005 6.10776 10.4829 6.27247 10.0829 6.27247C9.30641 6.27247 8.55347 6.27247 7.75347 6.27247Z" fill="#4452C5"/>
<path d="M15.5526 8.84923C15.7526 9.3904 15.5643 9.75511 15.0232 9.87275C14.329 10.0139 14.0349 10.4257 13.9996 11.0963C13.9996 11.2139 13.9526 11.3316 13.929 11.4375C13.882 11.6375 13.8585 11.9198 13.5643 11.861C13.282 11.8022 13.3408 11.5433 13.3643 11.3316C13.3879 11.1551 13.3996 10.9786 13.4114 10.8022C13.4702 9.60217 13.8114 9.16687 14.9173 8.81393C15.1526 8.74334 15.3526 8.80217 15.5526 8.84923Z" fill="#4452C5"/>
<path d="M15.9883 9.51939C16.2354 10.19 16.4942 10.0018 16.7766 9.73116C16.9295 9.57822 17.1177 9.30763 17.353 9.56646C17.5413 9.77822 17.3177 9.95469 17.1883 10.1194C16.9295 10.4606 16.6707 10.8017 16.4001 11.1312C16.2707 11.2841 16.1295 11.4488 15.906 11.3429C15.6824 11.237 15.6236 11.0253 15.6589 10.8017C15.7413 10.4135 15.8589 10.0488 15.9883 9.51939Z" fill="#4452C5"/>
<path d="M12.4827 6.04905C12.0591 6.33141 11.6474 6.41376 11.3062 5.93141C11.118 5.67258 11.1297 5.37847 11.2944 5.10788C11.4591 4.84905 11.718 4.75494 12.0003 4.81376C12.3062 4.87258 12.5297 5.06082 12.5885 5.39023C12.6121 5.51965 12.6003 5.66082 12.6003 5.802C12.6356 5.90788 12.6003 6.002 12.4827 6.04905Z" fill="#4452C5"/>
<path d="M8.40039 8.37825C8.45921 7.96648 8.63569 7.67236 9.09451 7.67236C9.51804 7.67236 9.74157 7.95471 9.75333 8.34295C9.7651 8.77824 9.50627 9.04883 9.07098 9.04883C8.67098 9.06059 8.44745 8.79001 8.40039 8.37825Z" fill="#4452C5"/>
<path d="M15.5527 8.84882C15.5056 8.70765 15.4233 8.5547 15.3997 8.41353C15.3527 8.00176 15.4821 7.67235 15.9291 7.57823C16.3174 7.50764 16.6468 7.82529 16.6703 8.22529C16.6938 8.66058 16.388 8.97823 15.9409 8.94294C15.8115 8.93117 15.6821 8.88412 15.5527 8.84882Z" fill="#4452C5"/>
<path d="M12.4824 6.04867C12.5295 5.96631 12.5648 5.8722 12.6118 5.78985C12.7412 5.49573 12.9412 5.37808 13.2707 5.4722C13.6471 5.57808 14.0354 5.66043 14.4001 5.77808C14.6118 5.84867 14.6942 5.97808 14.4707 6.14279C14.2001 6.34279 12.7765 6.2722 12.4824 6.04867Z" fill="#4452C5"/>
<path fill-rule="evenodd" clip-rule="evenodd" d="M9.25929 11.9546C9.25929 11.684 9.44753 11.6604 9.68282 11.7075C9.67096 11.7629 9.62717 11.8156 9.58411 11.8674C9.49909 11.9698 9.4169 12.0688 9.5887 12.1781C9.80046 12.3193 10.0122 12.2369 10.1769 12.0722C10.4593 11.7899 10.2946 11.3546 9.85929 11.2134C8.94165 10.931 8.30635 10.4134 8.30635 9.36633C8.30635 9.20162 8.28282 9.01339 8.23576 8.84868C8.15341 8.55457 7.97693 8.3428 7.64752 8.38986C7.32988 8.43692 7.11811 8.7075 7.20047 8.97809C7.24919 9.15248 7.28394 9.33413 7.31873 9.51599C7.44353 10.1684 7.56883 10.8234 8.34164 11.1546C8.84753 11.3781 8.9887 12.5428 8.61223 12.9193C7.90635 13.6369 7.81223 14.7546 8.40047 15.6134C8.90635 16.3428 9.87105 16.6487 10.6946 16.3193C11.5534 15.9781 12.0711 14.9663 11.8946 13.9899C11.7299 13.0134 10.9887 12.3899 9.96517 12.3546C9.90635 12.3487 9.84752 12.3487 9.7887 12.3487C9.72988 12.3487 9.67105 12.3487 9.61223 12.3428C9.3887 12.3193 9.24752 12.1781 9.25929 11.9546ZM10.4592 15.8726C11.1062 15.6609 11.4474 15.1432 11.4357 14.3667C11.4239 13.5432 10.8474 12.8962 10.1062 12.8609C9.77683 12.8491 9.5886 12.9079 9.76507 13.2844L9.76508 13.2844C9.84743 13.4609 9.92978 13.6373 9.9886 13.8256C10.0071 13.8786 10.0341 13.9351 10.0614 13.9926C10.1554 14.1903 10.2544 14.3985 10.0357 14.5079C9.79244 14.6208 9.72239 14.4195 9.65503 14.2259C9.63115 14.1573 9.60762 14.0897 9.57683 14.0373C9.48272 13.8844 9.4239 13.7197 9.36507 13.555L9.36507 13.555C9.20036 13.1315 9.02389 13.1315 8.77684 13.4962C8.41213 14.0491 8.41213 14.8138 8.80037 15.3197C9.2239 15.8726 9.84742 16.0726 10.4592 15.8726Z" fill="#4452C5"/>
<path fill-rule="evenodd" clip-rule="evenodd" d="M4.412 12.3662C3.30612 12.3662 2.45906 13.2603 2.47082 14.425C2.48259 15.5662 3.35318 16.4603 4.4473 16.4721C5.47083 16.4839 6.40024 15.4603 6.37671 14.3544C6.35318 13.2368 5.49435 12.3662 4.412 12.3662ZM4.3884 15.9898C5.20016 16.0015 5.89428 15.2839 5.89428 14.4251C5.89428 13.5309 5.27075 12.8603 4.42369 12.8603C3.57663 12.8603 2.9531 13.5192 2.96486 14.4251C2.96486 15.2839 3.5884 15.9662 4.3884 15.9898Z" fill="#4452C5"/>
</svg>
