<svg width="10" height="17" viewBox="0 0 10 17" fill="none" xmlns="http://www.w3.org/2000/svg">
<path d="M2.94795 10.9374H5.36953L5.39216 10.5074C5.39216 9.57946 6.00321 9.35314 6.86321 9.05893C8.60584 8.44788 9.91847 6.97683 9.91847 4.78157C9.91847 2.06578 7.94953 0.368408 5.25637 0.368408C2.58584 0.368408 0.526367 2.06578 0.526367 5.1663H3.28742C3.31005 3.92157 4.26058 3.19736 5.23374 3.19736C6.29742 3.19736 7.06689 3.80841 7.06689 4.91736C7.06689 5.52841 6.70479 6.18472 5.89005 6.5242L5.07531 6.84104C3.19689 7.61051 2.76689 8.74209 2.94795 10.4847V10.9374ZM4.14742 16.3689C5.18847 16.3689 6.0711 15.5995 6.0711 14.5358C6.0711 13.4721 5.18847 12.7252 4.14742 12.7252C3.129 12.7252 2.269 13.4721 2.269 14.5358C2.269 15.5995 3.129 16.3689 4.14742 16.3689Z" fill="white"/>
</svg>
