<svg width="23" height="23" viewBox="0 0 23 23" fill="none" xmlns="http://www.w3.org/2000/svg">
<circle cx="11.1607" cy="11.1607" r="10.9375" fill="white" stroke="white" stroke-width="0.446429"/>
<path d="M11.1552 15.6248C11.0501 15.6773 10.9845 15.7036 10.9451 15.743C9.85528 16.7409 9.85528 16.7409 8.54225 16.0187C7.75444 15.5854 6.95349 15.1915 6.16568 14.7582C5.87681 14.6007 5.49603 14.4431 5.70612 14.0361C5.90307 13.629 6.27072 13.8129 6.57271 13.931C7.41305 14.233 8.26652 14.5219 9.09373 14.8633C9.47451 15.0208 9.68458 14.9289 9.92093 14.6138C10.3936 13.9573 10.9057 13.327 11.3915 12.6837C11.6935 12.2897 12.0874 12.0534 12.5864 12.2372C13.0985 12.4342 13.3085 12.8675 13.2298 13.3927C13.0591 14.5875 12.8621 15.7693 12.6652 16.951C12.5995 17.3186 12.3369 17.5025 11.9955 17.5812C10.5512 17.9358 9.10686 18.2903 7.66253 18.6317C7.37366 18.6973 7.07167 18.7236 6.95349 18.3559C6.84845 18.0014 7.09794 17.8307 7.37367 17.7257C8.47661 17.3055 9.57955 16.8853 10.6825 16.4783C11.1027 16.3601 11.3259 16.15 11.1552 15.6248Z" fill="#4452C5"/>
<path d="M9.48801 9.51969C9.98696 9.33587 10.3415 9.1783 10.7223 9.06013C11.3919 8.86318 11.8777 9.11265 12.009 9.70352C12.1272 10.2419 11.8252 10.7277 11.1949 10.8327C10.394 10.9771 9.59305 11.0822 8.7921 11.1478C8.12246 11.2004 7.85986 10.8196 8.10933 10.1893C8.47698 9.25709 8.87088 8.32484 9.26479 7.40572C9.3567 7.18251 9.47487 6.93303 9.79 7.02494C10.1445 7.12998 10.0526 7.43198 9.98695 7.68145C9.84252 8.25919 9.68496 8.82379 9.48801 9.51969Z" fill="#4452C5"/>
<path d="M13.0853 9.65074C12.8227 9.32248 12.5076 9.02049 12.2844 8.65284C12.1268 8.39023 12.4288 8.27206 12.5995 8.16702C13.7024 7.53677 14.6741 6.72269 15.6851 5.94801C15.8427 5.82984 16.0134 5.72479 16.1841 5.64601C16.3416 5.58036 16.4861 5.61975 16.5911 5.76418C16.6699 5.88236 16.6699 6.02679 16.578 6.13183C15.5013 7.28729 14.464 8.45589 13.3085 9.53257C13.2691 9.57196 13.1904 9.59821 13.0853 9.65074Z" fill="#4452C5"/>
<path d="M14.7789 3.5452C15.3435 3.53207 15.8293 3.99163 15.8293 4.55623C15.8425 5.12083 15.3829 5.60665 14.8314 5.63291C14.2406 5.64604 13.8467 5.22587 13.8467 4.58249C13.8467 4.01789 14.2537 3.55833 14.7789 3.5452Z" fill="#4452C5"/>
<path d="M11.2607 8.71868C10.6961 8.73181 10.2234 8.27225 10.2102 7.69452C10.1971 7.12992 10.6567 6.65723 11.2344 6.65723C11.8121 6.65723 12.2323 7.09052 12.2323 7.70765C12.2323 8.24599 11.799 8.70555 11.2607 8.71868Z" fill="#4452C5"/>
</svg>
