<svg width="20" height="20" viewBox="0 0 20 20" fill="none" xmlns="http://www.w3.org/2000/svg">
<circle cx="10" cy="10" r="9.5" fill="white" stroke="white"/>
<path d="M12.6398 16.1059C12.6751 15.5765 12.7104 15.0471 12.7575 14.5294C12.781 14.2118 12.6516 14.0353 12.3575 13.9059C11.0869 13.3412 11.0398 13.2941 10.181 14.3882C9.22808 15.6 7.91044 16.3647 6.74573 17.3059C6.5575 17.4588 6.31043 17.5529 6.11043 17.3412C5.89867 17.1176 6.02809 16.8941 6.19279 16.7176C6.46338 16.4353 6.75749 16.1765 7.05161 15.9176C8.05161 15.0471 8.82808 14.0118 9.41631 12.8118C10.0046 11.6 10.3104 10.9412 11.9575 12.1059C12.4399 12.4471 12.9457 12.7294 13.4516 13.0353C13.781 13.2235 13.9222 13.4941 13.8751 13.8706C13.7222 14.9176 13.5693 15.9647 13.4046 17.0118C13.3693 17.2353 13.2751 17.4471 13.0046 17.4235C12.734 17.4 12.6752 17.1765 12.6634 16.9529C12.6516 16.6824 12.6634 16.4 12.6634 16.1294C12.6516 16.1059 12.6398 16.1059 12.6398 16.1059Z" fill="#4452C5"/>
<path d="M9.45117 4.25859C9.45117 3.21153 10.1571 2.45859 11.1335 2.47035C12.0512 2.48212 12.7924 3.27036 12.7924 4.24683C12.7924 5.2233 12.0629 6.01153 11.1453 6.03506C10.1688 6.04682 9.46294 5.29388 9.45117 4.25859Z" fill="#4452C5"/>
<path d="M11.6161 8.27023C11.6161 8.50552 11.6396 8.74082 11.6161 8.97611C11.569 9.37611 11.3572 9.6467 10.9455 9.6467C10.5102 9.65846 10.1925 9.37611 10.2161 8.96435C10.2867 8.09376 10.4396 7.22317 10.5808 6.36435C10.6278 6.082 10.8867 6.11729 11.1102 6.12906C11.369 6.14082 11.4984 6.25846 11.5102 6.52905C11.5455 7.11729 11.6043 7.69376 11.6514 8.282C11.6396 8.27023 11.6278 8.27023 11.6161 8.27023Z" fill="#4452C5"/>
<path d="M12.5929 9.06995C12.1458 9.05818 11.8164 8.69347 11.8164 8.21112C11.8164 7.69347 12.1576 7.3523 12.6517 7.36406C13.1223 7.37583 13.4399 7.72877 13.4399 8.21112C13.4399 8.68171 13.0517 9.08171 12.5929 9.06995Z" fill="#4452C5"/>
</svg>
