<svg width="20" height="20" viewBox="0 0 20 20" fill="none" xmlns="http://www.w3.org/2000/svg">
<circle cx="10" cy="10" r="9.5" fill="white" stroke="white"/>
<path d="M7.9715 10.8119C7.68914 11.6472 7.35973 12.6119 7.01856 13.5766C6.9715 13.7177 6.83032 13.7883 6.67738 13.7295C6.47738 13.6472 6.44209 13.4589 6.47738 13.2825C6.58327 12.6825 6.71268 12.0942 6.83032 11.4942C6.86562 11.3413 6.90091 11.1883 6.91267 11.0354C6.95973 10.6119 6.66561 10.3648 6.38326 10.1883C6.07738 10.0119 5.95972 10.3883 5.81855 10.5531C5.05384 11.4942 4.31267 12.4589 3.55973 13.4119C3.40679 13.6001 3.26561 13.906 2.95973 13.6942C2.71267 13.5177 2.85385 13.2589 2.97149 13.0589C3.81855 11.6001 4.65384 10.1413 5.52443 8.69422C5.97149 7.95305 6.50091 7.98834 6.94797 8.71775C7.21856 9.16481 7.48914 9.62364 7.75973 10.0825C7.87737 10.2589 7.95973 10.4589 7.9715 10.8119Z" fill="#4452C5"/>
<path d="M12.0186 13.2825C12.0538 12.8472 12.1362 12.5295 12.0891 12.2236C11.8538 10.7178 12.595 9.68247 13.6539 8.77658C14.2303 8.28247 14.7715 8.44717 14.9597 9.18835C14.9833 9.25894 15.0068 9.34129 14.995 9.42364C14.8185 10.8119 15.748 11.6236 16.5715 12.506C16.795 12.7531 17.0068 13.0119 17.2068 13.2707C17.3127 13.4119 17.3244 13.5648 17.1715 13.6942C17.0421 13.8001 16.9009 13.7766 16.795 13.6825C15.9597 12.9766 15.1127 12.2707 14.3127 11.5295C14.1244 11.3531 14.0774 11.0001 13.995 10.7178C13.8891 10.3413 13.7244 10.3648 13.4538 10.5648C13.148 10.8001 13.0186 11.0942 12.9715 11.4589C12.8891 12.0589 12.7833 12.6589 12.6656 13.2472C12.6186 13.4707 12.595 13.7766 12.2656 13.7295C11.9597 13.6825 12.0303 13.3883 12.0186 13.2825Z" fill="#4452C5"/>
<path d="M9.54777 10.6357C8.13601 10.6357 8.14777 10.6357 7.94777 9.34156C7.88895 8.97686 7.85365 8.60039 7.90071 8.23569C7.94777 7.9298 8.11248 7.71803 8.43012 7.6945C8.7713 7.67098 8.97129 7.89451 9.04188 8.21215C9.11247 8.50627 9.05365 8.78863 9.01836 9.08275C8.99483 9.3651 8.79483 9.76509 9.24189 9.87098C9.68895 9.97686 10.1713 10.271 10.5713 9.70627C11.0184 9.07098 11.5713 8.50627 11.9595 7.82392C12.0772 7.62392 12.2184 7.42392 12.3595 7.24745C12.6066 6.94156 12.9007 6.65921 13.2889 7.00039C13.6654 7.3298 13.5713 7.69451 13.2419 8.01215C12.736 8.50627 12.2301 8.98863 11.7125 9.47098C11.5713 9.60039 11.4066 9.71803 11.2889 9.87098C10.8066 10.4827 10.2066 10.8122 9.54777 10.6357Z" fill="#4452C5"/>
<path d="M9.17123 8.23557C9.21829 7.8591 9.44182 7.55322 9.91241 7.55322C10.383 7.56499 10.6065 7.87087 10.6183 8.31793C10.6301 8.74146 10.2889 9.07087 9.88888 9.07087C9.46536 9.0591 9.15946 8.71793 9.17123 8.23557Z" fill="#4452C5"/>
<path d="M11.4535 6.23567C11.8771 6.2239 12.2182 6.54155 12.2182 6.95331C12.2182 7.37684 11.9006 7.69449 11.4771 7.69449C11.03 7.68272 10.7947 7.4239 10.7476 7.00037C10.7006 6.60037 11.03 6.24743 11.4535 6.23567Z" fill="#4452C5"/>
</svg>
