<svg width="20" height="20" viewBox="0 0 20 20" fill="none" xmlns="http://www.w3.org/2000/svg">
<circle cx="10" cy="10" r="9.5" fill="white" stroke="white"/>
<path d="M11.2483 12.1692C11.2836 13.1104 10.1778 13.9457 9.24834 13.6868C8.81305 13.5692 8.40128 13.6986 8.01305 13.6516C6.98952 13.5339 5.95422 13.8869 4.94246 13.5574C4.73069 13.4869 4.56599 13.5104 4.37775 13.5927C4.01304 13.7692 3.62481 13.8045 3.23657 13.6633C3.07187 13.6045 2.84834 13.5927 2.82481 13.3927C2.80128 13.1692 3.04834 13.1457 3.18952 13.0751C4.60128 12.428 6.08363 12.0045 7.61304 11.7339C7.88363 11.6869 8.15422 11.6633 8.42481 11.6163C8.60128 11.581 8.95422 11.6986 8.84834 11.3339C8.77775 11.0868 8.71893 10.6516 8.23657 10.828C7.50716 11.0986 6.76599 11.3692 6.02481 11.628C5.75422 11.7221 5.42481 11.8633 5.27187 11.4633C5.14246 11.1104 5.38952 10.9104 5.6601 10.7692C6.58952 10.2986 7.50716 9.82802 8.43657 9.3692C8.76599 9.20449 9.0954 9.18097 9.36599 9.46332C10.0601 10.181 10.6483 10.9927 11.1307 11.8633C11.213 11.981 11.2248 12.1104 11.2483 12.1692Z" fill="#4452C5"/>
<path d="M13.0018 9.09869C12.9312 9.09869 12.9076 9.11046 12.8959 9.11046C12.6488 9.11046 12.3665 9.45163 12.2135 9.21633C12.0606 8.96927 12.39 8.69869 12.5194 8.43987C12.8135 7.83987 13.1312 7.2634 13.4606 6.67516C13.7782 6.09869 14.1312 6.08692 14.437 6.65163C14.837 7.36928 15.2135 8.09869 15.59 8.8281C15.6488 8.94575 15.7665 9.07516 15.6253 9.20457C15.5312 9.29869 15.39 9.23986 15.2959 9.1928C15.0253 9.05163 14.7665 9.09869 14.5076 9.20457C13.9665 9.43987 13.4606 9.2281 13.0018 9.09869Z" fill="#4452C5"/>
<path d="M12.5422 11.2986C13.1775 11.275 13.7304 11.828 13.7539 12.4868C13.7775 13.1456 13.2363 13.7456 12.6245 13.7574C12.001 13.7692 11.4951 13.2633 11.4716 12.5927C11.448 11.875 11.9069 11.3103 12.5422 11.2986Z" fill="#4452C5"/>
<path d="M15.9189 13.7576C15.3895 13.4165 14.7542 13.6047 14.1071 13.7341C13.7777 13.8047 13.6012 13.6517 13.7777 13.2517C14.1777 12.3459 14.1659 12.3223 15.1895 12.5576C15.7424 12.687 16.2836 12.8518 16.8248 13.0047C16.9542 13.04 17.1189 13.0517 17.1424 13.2165C17.1659 13.4047 17.0012 13.4753 16.8601 13.5459C16.6012 13.6753 16.3189 13.7576 15.9189 13.7576Z" fill="#4452C5"/>
</svg>
